<svg width="144" height="142" viewBox="0 0 144 142" fill="none" xmlns="http://www.w3.org/2000/svg">
<mask id="mask0" mask-type="alpha" maskUnits="userSpaceOnUse" x="24" y="22" width="96" height="96">
<g clip-path="url(#clip0)">
<path d="M72 22C62.5065 22 53.2262 24.8152 45.3326 30.0895C37.4391 35.3638 31.2868 42.8603 27.6538 51.6312C24.0208 60.402 23.0702 70.0532 24.9223 79.3643C26.7744 88.6754 31.346 97.2282 38.0589 103.941C44.7718 110.654 53.3246 115.226 62.6357 117.078C71.9468 118.93 81.598 117.979 90.3688 114.346C99.1397 110.713 106.636 104.561 111.911 96.6674C117.185 88.7738 120 79.4935 120 70C119.985 57.2742 114.923 45.0738 105.925 36.0752C96.9262 27.0767 84.7259 22.0148 72 22V22ZM99.708 54.8L72.328 91.956C72.0048 92.3849 71.5993 92.7451 71.1354 93.0156C70.6714 93.2861 70.1582 93.4614 69.6257 93.5314C69.0932 93.6014 68.5521 93.5647 68.034 93.4233C67.5159 93.2819 67.0311 93.0388 66.608 92.708L47.056 77.076C46.6458 76.7477 46.3042 76.3418 46.0508 75.8815C45.7974 75.4212 45.6372 74.9155 45.5793 74.3932C45.4622 73.3385 45.769 72.2805 46.432 71.452C47.0951 70.6235 48.0601 70.0923 49.1148 69.9752C49.637 69.9173 50.1656 69.9628 50.6702 70.1091C51.1749 70.2554 51.6458 70.4997 52.056 70.828L68.36 83.872L93.268 50.068C93.5679 49.618 93.9559 49.2335 94.4085 48.9377C94.8612 48.6419 95.3691 48.441 95.9016 48.347C96.4341 48.2531 96.9801 48.2681 97.5067 48.3911C98.0332 48.5141 98.5294 48.7426 98.9651 49.0628C99.4009 49.383 99.7672 49.7882 100.042 50.2539C100.317 50.7197 100.494 51.2363 100.564 51.7725C100.633 52.3088 100.593 52.8535 100.446 53.3739C100.299 53.8943 100.048 54.3794 99.708 54.8Z" fill="#111111"/>
</g>
</mask>
<g mask="url(#mask0)">
<rect y="-2" width="144" height="144" fill="#39743C"/>
</g>
<defs>
<clipPath id="clip0">
<rect x="24" y="22" width="96" height="96" fill="white"/>
</clipPath>
</defs>
</svg>
