<svg width="24" height="24" viewBox="0 0 24 24" fill="none" xmlns="http://www.w3.org/2000/svg">
<mask id="mask0" mask-type="alpha" maskUnits="userSpaceOnUse" x="4" y="4" width="16" height="16">
<path d="M4 12C4 12.2652 4.10536 12.5196 4.29289 12.7071C4.48043 12.8946 4.73478 13 5 13H10.8333C10.8775 13 10.9199 13.0176 10.9512 13.0488C10.9824 13.0801 11 13.1225 11 13.1667V19C11 19.2652 11.1054 19.5196 11.2929 19.7071C11.4804 19.8946 11.7348 20 12 20C12.2652 20 12.5196 19.8946 12.7071 19.7071C12.8946 19.5196 13 19.2652 13 19V13.1667C13 13.1225 13.0176 13.0801 13.0488 13.0488C13.0801 13.0176 13.1225 13 13.1667 13H19C19.2652 13 19.5196 12.8946 19.7071 12.7071C19.8946 12.5196 20 12.2652 20 12C20 11.7348 19.8946 11.4804 19.7071 11.2929C19.5196 11.1054 19.2652 11 19 11H13.1667C13.1225 11 13.0801 10.9824 13.0488 10.9512C13.0176 10.9199 13 10.8775 13 10.8333V5C13 4.73478 12.8946 4.48043 12.7071 4.29289C12.5196 4.10536 12.2652 4 12 4C11.7348 4 11.4804 4.10536 11.2929 4.29289C11.1054 4.48043 11 4.73478 11 5V10.8333C11 10.8775 10.9824 10.9199 10.9512 10.9512C10.9199 10.9824 10.8775 11 10.8333 11H5C4.73478 11 4.48043 11.1054 4.29289 11.2929C4.10536 11.4804 4 11.7348 4 12V12Z" fill="#111111"/>
</mask>
<g mask="url(#mask0)">
<rect width="24" height="24" fill="#0E100E" fill-opacity="0.68"/>
</g>
</svg>
