<svg width="24" height="24" viewBox="0 0 24 24" fill="none" xmlns="http://www.w3.org/2000/svg">
<mask id="mask0" mask-type="alpha" maskUnits="userSpaceOnUse" x="3" y="7" width="18" height="10">
<path d="M4.49846 16C4.39976 15.9994 4.30343 15.9708 4.22153 15.9176C4.13964 15.8645 4.07583 15.7892 4.03809 15.7013C4.00036 15.6133 3.99038 15.5165 4.00941 15.4231C4.02843 15.3297 4.07562 15.2438 4.14506 15.1761L11.2932 8.28298C11.4819 8.10033 11.7326 8 11.9993 8C12.2667 8 12.5174 8.10033 12.7061 8.28169L19.8549 15.1761C19.9244 15.2438 19.9716 15.3297 19.9906 15.4231C20.0096 15.5165 19.9996 15.6133 19.9619 15.7013C19.9242 15.7892 19.8604 15.8645 19.7785 15.9176C19.6966 15.9708 19.6002 15.9994 19.5015 16C19.4358 16.0002 19.3708 15.9878 19.3101 15.9635C19.2494 15.9392 19.1944 15.9035 19.1481 15.8585L12 8.96471L4.85187 15.8585C4.80563 15.9035 4.75057 15.9392 4.6899 15.9635C4.62923 15.9878 4.56415 16.0002 4.49846 16Z" fill="black" stroke="black"/>
</mask>
<g mask="url(#mask0)">
<rect width="24" height="24" fill="#0E100E" fill-opacity="0.68"/>
</g>
</svg>
