<svg width="24" height="24" viewBox="0 0 24 24" fill="none" xmlns="http://www.w3.org/2000/svg">
<mask id="mask0" mask-type="alpha" maskUnits="userSpaceOnUse" x="3" y="7" width="18" height="10">
<path d="M12.0003 16C11.7336 16 11.483 15.8997 11.2943 15.7183L4.14667 8.82493C4.1 8.78022 4.063 8.72701 4.03782 8.66839C4.01265 8.60978 3.99979 8.54692 4 8.48347C4 8.35487 4.052 8.23333 4.14667 8.14266C4.19283 8.09748 4.24783 8.0616 4.30849 8.0371C4.36916 8.01261 4.43426 8 4.50002 8C4.56578 8 4.63089 8.01261 4.69155 8.0371C4.75221 8.0616 4.80722 8.09748 4.85337 8.14266L12.0003 15.0354L19.1473 8.14266C19.1934 8.09748 19.2484 8.0616 19.3091 8.0371C19.3697 8.01261 19.4348 8 19.5006 8C19.5664 8 19.6315 8.01261 19.6921 8.0371C19.7528 8.0616 19.8078 8.09748 19.854 8.14266C19.9008 8.18718 19.938 8.24023 19.9634 8.29874C19.9888 8.35725 20.0019 8.42005 20.0019 8.48347C20.0019 8.5469 19.9888 8.6097 19.9634 8.66821C19.938 8.72672 19.9008 8.77977 19.854 8.82429L12.707 15.7177C12.6145 15.8075 12.5043 15.8788 12.383 15.9272C12.2617 15.9757 12.1316 16.0004 12.0003 16Z" fill="black" stroke="black"/>
</mask>
<g mask="url(#mask0)">
<rect width="24" height="24" fill="#161C2D" fill-opacity="0.68"/>
</g>
</svg>
