<svg width="16" height="16" viewBox="0 0 16 16" fill="none" xmlns="http://www.w3.org/2000/svg">
<mask id="mask0" mask-type="alpha" maskUnits="userSpaceOnUse" x="2" y="2" width="12" height="12">
<path d="M7.99935 2.66663C6.94452 2.66663 5.91337 2.97942 5.03631 3.56545C4.15925 4.15149 3.47566 4.98444 3.07199 5.95898C2.66833 6.93352 2.56271 8.00588 2.7685 9.04044C2.97428 10.075 3.48224 11.0253 4.22812 11.7712C4.974 12.5171 5.9243 13.025 6.95887 13.2308C7.99343 13.4366 9.06579 13.331 10.0403 12.9273C11.0149 12.5236 11.8478 11.8401 12.4339 10.963C13.0199 10.0859 13.3327 9.05479 13.3327 7.99996C13.3312 6.58594 12.7688 5.23027 11.7689 4.23041C10.769 3.23055 9.41337 2.66816 7.99935 2.66663V2.66663ZM10.3105 10.3204C10.2299 10.4057 10.1193 10.4563 10.002 10.4614C9.88482 10.4665 9.77021 10.4259 9.68246 10.348L7.47846 8.32751C7.43275 8.28603 7.39618 8.23548 7.37108 8.17909C7.34598 8.12269 7.3329 8.06169 7.33268 7.99996V5.55551C7.33268 5.43764 7.37951 5.32459 7.46286 5.24125C7.54621 5.1579 7.65926 5.11107 7.77713 5.11107C7.895 5.11107 8.00805 5.1579 8.0914 5.24125C8.17475 5.32459 8.22157 5.43764 8.22157 5.55551V7.8044L10.2811 9.6924C10.3244 9.73171 10.3594 9.77916 10.3843 9.83203C10.4092 9.88491 10.4234 9.94217 10.4261 10.0005C10.4288 10.0589 10.42 10.1172 10.4002 10.1722C10.3803 10.2272 10.3499 10.2777 10.3105 10.3208V10.3204Z" fill="#111111"/>
</mask>
<g mask="url(#mask0)">
<rect width="16" height="16" fill="#0E100E" fill-opacity="0.4"/>
</g>
</svg>
