<svg width="24" height="24" viewBox="0 0 24 24" fill="none" xmlns="http://www.w3.org/2000/svg">
<mask id="mask0" mask-type="alpha" maskUnits="userSpaceOnUse" x="4" y="4" width="17" height="16">
<path d="M13.604 14.1586C13.8331 14.09 14.0442 13.9716 14.2221 13.8117C14.3999 13.6518 14.5402 13.4545 14.6327 13.2339C14.6518 13.1653 14.6927 13.1048 14.7492 13.0615C14.8057 13.0182 14.8748 12.9945 14.946 12.9939H19.6667C19.7209 12.9931 19.7745 13.0061 19.8224 13.0318C19.8702 13.0574 19.9107 13.0949 19.94 13.1406C19.9729 13.1851 19.9934 13.2377 19.9992 13.2927C20.0051 13.3478 19.9961 13.4035 19.9733 13.4539C19.6958 14.1084 19.2317 14.6667 18.6389 15.0591C18.0461 15.4515 17.3509 15.6607 16.64 15.6606H13.83C13.7868 15.6606 13.7452 15.6438 13.7142 15.6136C13.6832 15.5835 13.6652 15.5425 13.664 15.4993C13.6519 15.1135 13.5971 14.7303 13.5007 14.3566C13.4903 14.3167 13.4952 14.2743 13.5143 14.2377C13.5333 14.2012 13.5653 14.173 13.604 14.1586Z" fill="#111111"/>
<path d="M17.6663 12C17.4895 12 17.32 11.9298 17.1949 11.8047C17.0699 11.6797 16.9997 11.5101 16.9997 11.3333V6C16.9997 5.82319 16.9294 5.65362 16.8044 5.5286C16.6794 5.40357 16.5098 5.33333 16.333 5.33333H8.33301C8.1562 5.33333 7.98663 5.40357 7.8616 5.5286C7.73658 5.65362 7.66634 5.82319 7.66634 6V10.2293C7.66649 10.2691 7.65237 10.3075 7.62656 10.3378C7.60075 10.368 7.56495 10.3879 7.52567 10.394C7.19539 10.4452 6.87078 10.528 6.55634 10.6413C6.53112 10.6503 6.50412 10.6531 6.47761 10.6494C6.4511 10.6458 6.42585 10.6359 6.40397 10.6204C6.38209 10.605 6.36423 10.5846 6.35188 10.5609C6.33954 10.5371 6.33306 10.5108 6.33301 10.484V6C6.33459 5.47005 6.54581 4.96227 6.92054 4.58753C7.29527 4.2128 7.80306 4.00158 8.33301 4H16.333C16.863 4.00158 17.3707 4.2128 17.7455 4.58753C18.1202 4.96227 18.3314 5.47005 18.333 6V11.3333C18.333 11.5101 18.2628 11.6797 18.1377 11.8047C18.0127 11.9298 17.8432 12 17.6663 12Z" fill="#111111"/>
<path d="M8.33366 11.3333C9.19071 11.3333 10.0285 11.5874 10.7411 12.0636C11.4537 12.5397 12.0092 13.2165 12.3371 14.0083C12.6651 14.8001 12.7509 15.6714 12.5837 16.512C12.4165 17.3526 12.0038 18.1247 11.3978 18.7307C10.7918 19.3367 10.0196 19.7495 9.17905 19.9167C8.33846 20.0839 7.46718 19.998 6.67536 19.6701C5.88355 19.3421 5.20678 18.7867 4.73062 18.0741C4.25447 17.3614 4.00032 16.5236 4.00032 15.6666C4.00174 14.5177 4.45874 13.4164 5.27109 12.604C6.08344 11.7917 7.18482 11.3347 8.33366 11.3333ZM6.70032 15.6439C6.72743 15.7005 6.76997 15.7483 6.82304 15.7818C6.87612 15.8153 6.93757 15.8331 7.00032 15.8333H7.50032C7.54453 15.8333 7.58692 15.8508 7.61818 15.8821C7.64943 15.9133 7.66699 15.9557 7.66699 15.9999V17.8333C7.66699 18.0101 7.73723 18.1796 7.86225 18.3047C7.98728 18.4297 8.15685 18.4999 8.33366 18.4999C8.51047 18.4999 8.68004 18.4297 8.80506 18.3047C8.93009 18.1796 9.00032 18.0101 9.00032 17.8333V15.9999C9.00032 15.9557 9.01788 15.9133 9.04914 15.8821C9.0804 15.8508 9.12279 15.8333 9.16699 15.8333H9.66699C9.72989 15.8334 9.79154 15.8157 9.84483 15.7823C9.89811 15.7489 9.94085 15.7011 9.96812 15.6444C9.99538 15.5877 10.006 15.5245 9.99888 15.462C9.99172 15.3995 9.96703 15.3403 9.92766 15.2913L8.59432 13.6246C8.56185 13.5875 8.52182 13.5578 8.47692 13.5374C8.43202 13.517 8.38329 13.5065 8.33399 13.5065C8.28469 13.5065 8.23596 13.517 8.19106 13.5374C8.14616 13.5578 8.10613 13.5875 8.07366 13.6246L6.74032 15.2913C6.70088 15.3403 6.67613 15.3995 6.66893 15.462C6.66173 15.5246 6.67239 15.5879 6.69966 15.6446L6.70032 15.6439Z" fill="#111111"/>
</mask>
<g mask="url(#mask0)">
<rect width="24" height="24" fill="#39743C"/>
</g>
</svg>
