<svg width="32" height="32" viewBox="0 0 32 32" fill="none" xmlns="http://www.w3.org/2000/svg">
<mask id="mask0" mask-type="alpha" maskUnits="userSpaceOnUse" x="5" y="5" width="22" height="22">
<path d="M13.8294 16.4931L13.8294 16.4946C13.8295 16.5415 13.811 16.5866 13.7778 16.62C13.7448 16.6531 13.7001 16.6719 13.6533 16.6722H6.25896C6.23593 16.6721 6.21314 16.6675 6.19189 16.6586L5.90408 17.3491L6.19189 16.6586C6.17047 16.6497 6.15103 16.6367 6.13468 16.6202C6.11833 16.6038 6.10539 16.5843 6.09658 16.5629C6.08777 16.5415 6.08328 16.5185 6.08336 16.4954V16.4931V6.26256H6.08336L6.08335 6.26102C6.08331 6.23776 6.08784 6.21471 6.0967 6.19319C6.10557 6.17168 6.11859 6.1521 6.13502 6.1356C6.15146 6.1191 6.171 6.10599 6.19252 6.09702C6.21378 6.08817 6.23656 6.08353 6.25959 6.08338L13.6527 6.09569C13.6529 6.09569 13.6531 6.0957 13.6533 6.0957C13.7001 6.09603 13.7449 6.11486 13.7779 6.14805L14.3098 5.6193L13.7779 6.14805C13.811 6.18137 13.8295 6.22643 13.8294 6.27334V6.27488L13.8294 16.4931Z" stroke="#111111" stroke-width="1.5" stroke-linecap="round" stroke-linejoin="round"/>
<path d="M17.4206 6.25784C17.4221 6.01459 17.5201 5.78188 17.6932 5.61085C17.8662 5.43982 18.1 5.34446 18.3433 5.34572L25.7402 5.3334L17.4206 6.25784ZM17.4206 6.25784L18.1706 6.26248C18.1706 6.26202 18.1706 6.26155 18.1706 6.26109V6.25784H17.4206ZM18.1706 10.818C18.1706 10.8176 18.1706 10.8171 18.1706 10.8166L17.4206 10.8213H18.1706V10.818ZM25.9167 10.8159C25.9167 10.8164 25.9167 10.8169 25.9167 10.8175V10.8213H26.6667L25.9167 10.8159ZM25.9167 6.24552V6.24981C25.9167 6.25043 25.9167 6.25106 25.9167 6.25168L26.6667 6.24552H25.9167Z" stroke="#111111" stroke-width="1.5" stroke-linecap="round" stroke-linejoin="round"/>
<path d="M13.6576 25.9167L13.6542 25.9167L6.25731 25.9044V25.9044L6.25296 25.9044C6.20814 25.9046 6.16512 25.887 6.13332 25.8555C6.10181 25.8243 6.08388 25.7819 6.08335 25.7377V21.1835C6.08361 21.1617 6.08809 21.1402 6.09653 21.1201C6.10512 21.0997 6.11767 21.0811 6.13345 21.0655C6.14923 21.0499 6.16794 21.0376 6.1885 21.0292C6.20906 21.0208 6.23108 21.0166 6.25331 21.0167L6.25331 21.0167H6.25796L13.6548 21.0168L13.6587 21.0167C13.7038 21.0165 13.7471 21.0342 13.7791 21.0658C13.8107 21.0971 13.8288 21.1396 13.8294 21.184V25.7485C13.8291 25.7705 13.8246 25.7921 13.8161 25.8123C13.8074 25.833 13.7947 25.8517 13.7787 25.8675C13.7628 25.8832 13.7439 25.8957 13.7231 25.9041L14.0057 26.5988L13.7231 25.9041C13.7023 25.9126 13.68 25.9169 13.6576 25.9167Z" stroke="#111111" stroke-width="1.5" stroke-linecap="round" stroke-linejoin="round"/>
<path d="M18.2222 25.8645L17.6933 26.3908L18.2222 25.8645C18.2058 25.8479 18.1928 25.8283 18.1839 25.8068C18.1751 25.7853 18.1706 25.7622 18.1706 25.7389V25.7366V15.508H18.1706L18.1706 15.5057C18.1706 15.4824 18.1751 15.4594 18.1839 15.4379C18.1927 15.4163 18.2057 15.3968 18.2222 15.3802C18.2386 15.3637 18.2581 15.3506 18.2796 15.3416C18.3009 15.3327 18.3238 15.328 18.3468 15.3279H25.7405C25.7636 15.328 25.7864 15.3327 25.8077 15.3416C25.8292 15.3506 25.8487 15.3637 25.8652 15.3802C25.8816 15.3968 25.8946 15.4163 25.9034 15.4379C25.9123 15.4594 25.9168 15.4824 25.9167 15.5057V15.508L25.9167 25.7243L25.9167 25.7258C25.9168 25.773 25.8982 25.8182 25.865 25.8517L26.3971 26.3802L25.865 25.8517C25.8319 25.885 25.787 25.904 25.74 25.9044C25.7397 25.9044 25.7395 25.9044 25.7392 25.9044L18.3477 25.9168C18.3474 25.9168 18.3471 25.9168 18.3468 25.9167C18.3238 25.9166 18.301 25.9119 18.2797 25.9031C18.2582 25.8941 18.2387 25.881 18.2222 25.8645Z" stroke="#111111" stroke-width="1.5" stroke-linecap="round" stroke-linejoin="round"/>
</mask>
<g mask="url(#mask0)">
<rect opacity="0.68" width="32" height="32" fill="white"/>
</g>
</svg>
