<svg width="32" height="32" viewBox="0 0 32 32" fill="none" xmlns="http://www.w3.org/2000/svg">
<mask id="mask0" mask-type="alpha" maskUnits="userSpaceOnUse" x="5" y="5" width="22" height="22">
<path d="M13.8293 16.493L13.8293 16.4946C13.8294 16.5415 13.8109 16.5866 13.7777 16.6199C13.7447 16.6531 13.7 16.6719 13.6532 16.6722H6.25886C6.23583 16.6721 6.21304 16.6675 6.19179 16.6586L5.90398 17.3491L6.19179 16.6586C6.17037 16.6497 6.15093 16.6366 6.13458 16.6202C6.11823 16.6038 6.10529 16.5843 6.09648 16.5629C6.08768 16.5414 6.08318 16.5185 6.08326 16.4953V16.493V6.26254H6.08326L6.08325 6.26101C6.08321 6.23774 6.08774 6.2147 6.09661 6.19318C6.10547 6.17166 6.11849 6.15209 6.13493 6.13559C6.15136 6.11908 6.1709 6.10597 6.19242 6.09701C6.21368 6.08815 6.23646 6.08352 6.2595 6.08336L13.6526 6.09568C13.6528 6.09568 13.653 6.09568 13.6532 6.09568C13.7 6.09602 13.7448 6.11485 13.7778 6.14804L14.3097 5.61929L13.7778 6.14804C13.8109 6.18135 13.8294 6.22641 13.8293 6.27333V6.27487L13.8293 16.493Z" stroke="#111111" stroke-width="1.5" stroke-linecap="round" stroke-linejoin="round"/>
<path d="M17.4204 6.2578C17.4219 6.01454 17.5199 5.78184 17.693 5.61081C17.866 5.43978 18.0998 5.34442 18.3431 5.34568L25.74 5.33335L17.4204 6.2578ZM17.4204 6.2578L18.1704 6.26243C18.1704 6.26197 18.1704 6.26151 18.1704 6.26104V6.2578H17.4204ZM18.1704 10.818C18.1704 10.8175 18.1704 10.8171 18.1704 10.8166L17.4204 10.8212H18.1704V10.818ZM25.9165 10.8158C25.9165 10.8164 25.9165 10.8169 25.9165 10.8174V10.8212H26.6665L25.9165 10.8158ZM25.9165 6.24547V6.24976C25.9165 6.25039 25.9165 6.25101 25.9165 6.25164L26.6665 6.24547H25.9165Z" stroke="#111111" stroke-width="1.5" stroke-linecap="round" stroke-linejoin="round"/>
<path d="M13.6575 25.9166L13.6541 25.9166L6.25721 25.9043V25.9043L6.25286 25.9043C6.20804 25.9045 6.16502 25.8869 6.13322 25.8554C6.10171 25.8242 6.08378 25.7819 6.08325 25.7376V21.1834C6.08351 21.1616 6.08799 21.1401 6.09643 21.12C6.10502 21.0996 6.11757 21.081 6.13335 21.0654C6.14913 21.0498 6.16784 21.0375 6.1884 21.0291C6.20896 21.0207 6.23099 21.0165 6.25321 21.0166L6.25321 21.0166H6.25786L13.6547 21.0167L13.6586 21.0166C13.7037 21.0164 13.747 21.0341 13.779 21.0657C13.8106 21.097 13.8287 21.1395 13.8293 21.1839V25.7485C13.829 25.7704 13.8245 25.792 13.816 25.8122C13.8073 25.8329 13.7946 25.8516 13.7786 25.8674C13.7627 25.8831 13.7438 25.8956 13.723 25.904L14.0056 26.5987L13.723 25.904C13.7022 25.9125 13.6799 25.9168 13.6575 25.9166Z" stroke="#111111" stroke-width="1.5" stroke-linecap="round" stroke-linejoin="round"/>
<path d="M18.222 25.8644L17.6931 26.3907L18.222 25.8644C18.2056 25.8478 18.1926 25.8282 18.1837 25.8067C18.1749 25.7852 18.1703 25.7621 18.1704 25.7388V25.7365V15.5079H18.1704L18.1704 15.5056C18.1703 15.4823 18.1749 15.4593 18.1837 15.4378C18.1925 15.4162 18.2055 15.3966 18.222 15.3801C18.2384 15.3636 18.2579 15.3505 18.2794 15.3415C18.3007 15.3326 18.3235 15.3279 18.3466 15.3278H25.7403C25.7634 15.3279 25.7862 15.3326 25.8075 15.3415C25.829 15.3505 25.8485 15.3636 25.865 15.3801C25.8814 15.3966 25.8944 15.4162 25.9032 15.4378C25.9121 15.4593 25.9166 15.4823 25.9165 15.5056V15.5079L25.9165 25.7242L25.9165 25.7257C25.9166 25.7729 25.898 25.8181 25.8647 25.8516L26.3969 26.3801L25.8647 25.8516C25.8317 25.8849 25.7868 25.9039 25.7398 25.9043C25.7395 25.9043 25.7393 25.9043 25.739 25.9043L18.3475 25.9166C18.3472 25.9166 18.3469 25.9166 18.3466 25.9166C18.3236 25.9165 18.3008 25.9118 18.2795 25.903C18.258 25.894 18.2385 25.8809 18.222 25.8644Z" stroke="#111111" stroke-width="1.5" stroke-linecap="round" stroke-linejoin="round"/>
</mask>
<g mask="url(#mask0)">
<rect width="32" height="32" fill="#4DC252"/>
</g>
</svg>
