<svg width="24" height="24" viewBox="0 0 24 24" fill="none" xmlns="http://www.w3.org/2000/svg">
<mask id="mask0" mask-type="alpha" maskUnits="userSpaceOnUse" x="4" y="6" width="16" height="12">
<path d="M8.1335 10.806C8.15534 10.7754 8.16461 10.7376 8.1594 10.7004C8.15419 10.6632 8.1349 10.6294 8.1055 10.606C8.09886 10.6013 8.09095 10.5987 8.08283 10.5987H6.08883C6.04774 10.5987 6.00811 10.6139 5.9775 10.6413C5.47276 11.0665 5.06489 11.5947 4.78132 12.1906C4.49776 12.7865 4.34506 13.4362 4.3335 14.096C4.3335 14.8032 4.61445 15.4815 5.11454 15.9816C5.61464 16.4817 6.29292 16.7627 7.00016 16.7627C7.2075 16.7627 7.40016 16.754 7.5795 16.738C7.60785 16.7355 7.63506 16.7256 7.65844 16.7093C7.68181 16.6931 7.70056 16.671 7.71283 16.6453C7.72551 16.6196 7.73132 16.5911 7.72968 16.5624C7.72805 16.5338 7.71902 16.5061 7.7035 16.482C7.24475 15.7707 7.00057 14.9424 7.00016 14.096C7.00877 12.905 7.4068 11.7496 8.1335 10.806Z" fill="#111111"/>
<path d="M8.15835 8.652C8.20257 8.5743 8.22354 8.48553 8.21878 8.39626C8.21401 8.30699 8.1837 8.22096 8.13145 8.14842C8.0792 8.07587 8.00721 8.01986 7.92405 7.98705C7.84089 7.95424 7.75005 7.946 7.66235 7.96333C7.22533 8.05067 6.77536 8.05067 6.33835 7.96333C6.25064 7.946 6.1598 7.95424 6.07664 7.98705C5.99348 8.01986 5.92149 8.07587 5.86924 8.14842C5.81699 8.22096 5.78668 8.30699 5.78191 8.39626C5.77715 8.48553 5.79812 8.5743 5.84235 8.652L6.33368 9.51199C6.3483 9.53746 6.36937 9.55863 6.39476 9.57337C6.42016 9.58811 6.44898 9.59592 6.47835 9.596H7.52301C7.55226 9.5958 7.58095 9.58794 7.60622 9.5732C7.63148 9.55847 7.65245 9.53736 7.66701 9.51199L8.15835 8.652Z" fill="#111111"/>
<path d="M18.0227 10.6387C17.9921 10.6112 17.9525 10.5961 17.9114 10.596H15.9621C15.9248 10.5958 15.8886 10.6082 15.8594 10.6313L15.8454 10.642C15.8284 10.6555 15.8174 10.6751 15.8146 10.6967C15.8119 10.7182 15.8177 10.74 15.8307 10.7573C16.5793 11.7101 16.9906 12.8843 17.0001 14.096C16.9993 14.9425 16.7546 15.7709 16.2954 16.482C16.2799 16.5061 16.2709 16.5338 16.2693 16.5624C16.2676 16.591 16.2734 16.6195 16.286 16.6453C16.2986 16.671 16.3176 16.6931 16.3412 16.7093C16.3648 16.7255 16.3922 16.7354 16.4207 16.738C16.6001 16.754 16.7927 16.7627 17.0001 16.7627C17.7073 16.7627 18.3856 16.4817 18.8857 15.9816C19.3858 15.4815 19.6667 14.8032 19.6667 14.096C19.6555 13.4357 19.503 12.7855 19.2195 12.1891C18.9359 11.5928 18.5278 11.0641 18.0227 10.6387Z" fill="#111111"/>
<path d="M18.1583 8.652C18.2026 8.5743 18.2235 8.48553 18.2188 8.39626C18.214 8.30699 18.1837 8.22096 18.1314 8.14842C18.0792 8.07587 18.0072 8.01986 17.9241 7.98705C17.8409 7.95424 17.7501 7.946 17.6623 7.96333C17.2253 8.05067 16.7754 8.05067 16.3383 7.96333C16.2506 7.946 16.1598 7.95424 16.0766 7.98705C15.9935 8.01986 15.9215 8.07587 15.8692 8.14842C15.817 8.22096 15.7867 8.30699 15.7819 8.39626C15.7771 8.48553 15.7981 8.5743 15.8423 8.652L16.333 9.51199C16.3476 9.53746 16.3687 9.55863 16.3941 9.57337C16.4195 9.58811 16.4483 9.59592 16.4777 9.596H17.523C17.5524 9.59592 17.5812 9.58811 17.6066 9.57337C17.632 9.55863 17.6531 9.53746 17.6677 9.51199L18.1583 8.652Z" fill="#111111"/>
<path d="M10.204 8.83733C10.2179 8.86498 10.2393 8.88822 10.2656 8.90446C10.292 8.92071 10.3224 8.92931 10.3533 8.92933H13.6467C13.6776 8.92931 13.708 8.92071 13.7343 8.90446C13.7607 8.88822 13.782 8.86498 13.796 8.83733L14.3487 7.73333C14.4129 7.60531 14.4341 7.46002 14.4093 7.31896C14.3845 7.17791 14.3149 7.0486 14.2109 6.95017C14.1069 6.85174 13.9739 6.78943 13.8317 6.77247C13.6895 6.75551 13.5456 6.7848 13.4213 6.856C13.3386 6.90373 13.2448 6.92879 13.1493 6.92866C13.0638 6.92887 12.9794 6.90909 12.9029 6.87089C12.8264 6.83269 12.7599 6.77714 12.7087 6.70866L12.57 6.524C12.5037 6.43542 12.4176 6.36351 12.3187 6.31398C12.2198 6.26445 12.1106 6.23866 12 6.23866C11.8893 6.23866 11.7802 6.26445 11.6813 6.31398C11.5823 6.36351 11.4963 6.43542 11.43 6.524L11.2913 6.70866C11.2401 6.77714 11.1736 6.83269 11.0971 6.87089C11.0205 6.90909 10.9362 6.92887 10.8507 6.92866C10.7552 6.92879 10.6613 6.90373 10.5787 6.856C10.4544 6.7848 10.3105 6.75551 10.1683 6.77247C10.0261 6.78943 9.8931 6.85174 9.78907 6.95017C9.68503 7.0486 9.61545 7.17791 9.59065 7.31896C9.56584 7.46002 9.58711 7.60531 9.65132 7.73333L10.204 8.83733Z" fill="#111111"/>
<path d="M16.0002 14.096C16.0002 12.2293 14.8402 10.8847 13.6002 9.96267C13.5712 9.94144 13.5362 9.93 13.5002 9.93H10.4976C10.4616 9.93 10.4266 9.94144 10.3976 9.96267C9.16023 10.8853 7.99756 12.2293 7.99756 14.096C8.04377 15.1119 8.49063 16.0682 9.24032 16.7554C9.99 17.4426 10.9814 17.8048 11.9976 17.7627C13.0141 17.8055 14.0063 17.4437 14.7565 16.7564C15.5068 16.0691 15.954 15.1124 16.0002 14.096ZM12.6256 16.3507C12.5896 16.3599 12.5578 16.3808 12.5351 16.4101C12.5124 16.4395 12.5001 16.4756 12.5002 16.5127V16.618C12.5002 16.7506 12.4475 16.8778 12.3538 16.9716C12.26 17.0653 12.1328 17.118 12.0002 17.118C11.8676 17.118 11.7404 17.0653 11.6467 16.9716C11.5529 16.8778 11.5002 16.7506 11.5002 16.618V16.5627C11.5002 16.5185 11.4827 16.4761 11.4514 16.4448C11.4202 16.4136 11.3778 16.396 11.3336 16.396H11.1336C11.001 16.396 10.8738 16.3433 10.78 16.2496C10.6862 16.1558 10.6336 16.0286 10.6336 15.896C10.6336 15.7634 10.6862 15.6362 10.78 15.5424C10.8738 15.4487 11.001 15.396 11.1336 15.396H12.3082C12.3812 15.3958 12.4511 15.3668 12.5027 15.3152C12.5543 15.2636 12.5834 15.1936 12.5836 15.1207C12.5838 15.0656 12.5673 15.0118 12.5364 14.9662C12.5054 14.9206 12.4615 14.8855 12.4102 14.8653L11.2182 14.388C10.9688 14.2885 10.7573 14.1127 10.6139 13.8857C10.4706 13.6586 10.4027 13.3921 10.4201 13.1241C10.4375 12.8562 10.5392 12.6006 10.7107 12.394C10.8822 12.1874 11.1147 12.0404 11.3749 11.974C11.4108 11.9649 11.4426 11.9441 11.4653 11.9149C11.488 11.8857 11.5003 11.8497 11.5002 11.8127V11.7067C11.5002 11.5741 11.5529 11.4469 11.6467 11.3531C11.7404 11.2593 11.8676 11.2067 12.0002 11.2067C12.1328 11.2067 12.26 11.2593 12.3538 11.3531C12.4475 11.4469 12.5002 11.5741 12.5002 11.7067V11.7627C12.5002 11.8069 12.5178 11.8493 12.549 11.8805C12.5803 11.9118 12.6227 11.9293 12.6669 11.9293H12.8669C12.9995 11.9293 13.1267 11.982 13.2204 12.0758C13.3142 12.1695 13.3669 12.2967 13.3669 12.4293C13.3669 12.5619 13.3142 12.6891 13.2204 12.7829C13.1267 12.8767 12.9995 12.9293 12.8669 12.9293H11.6922C11.6271 12.9277 11.5635 12.9493 11.5128 12.9902C11.462 13.031 11.4274 13.0886 11.4151 13.1525C11.4028 13.2165 11.4136 13.2828 11.4455 13.3396C11.4774 13.3964 11.5285 13.44 11.5896 13.4627L12.7822 13.9393C13.0316 14.0388 13.2432 14.2146 13.3865 14.4417C13.5299 14.6687 13.5977 14.9353 13.5803 15.2032C13.563 15.4712 13.4612 15.7267 13.2897 15.9333C13.1182 16.1399 12.8857 16.2869 12.6256 16.3533V16.3507Z" fill="#111111"/>
</mask>
<g mask="url(#mask0)">
<rect opacity="0.6" width="24" height="24" fill="white"/>
</g>
</svg>
