<svg width="32" height="32" viewBox="0 0 32 32" fill="none" xmlns="http://www.w3.org/2000/svg">
<mask id="mask0" mask-type="alpha" maskUnits="userSpaceOnUse" x="7" y="5" width="18" height="22">
<path d="M16.0001 12.8889C15.8822 12.8889 15.7692 12.9357 15.6858 13.0191C15.6025 13.1024 15.5557 13.2155 15.5557 13.3334V18.2222C15.5557 18.3401 15.6025 18.4532 15.6858 18.5365C15.7692 18.6199 15.8822 18.6667 16.0001 18.6667H20.889C21.0069 18.6667 21.1199 18.6199 21.2033 18.5365C21.2866 18.4532 21.3334 18.3401 21.3334 18.2222C21.332 16.8082 20.7697 15.4525 19.7698 14.4526C18.7699 13.4527 17.4142 12.8903 16.0001 12.8889Z" fill="#111111"/>
<path d="M22.672 13.0568C22.6388 13.014 22.6225 12.9606 22.6259 12.9066C22.6293 12.8526 22.6524 12.8017 22.6907 12.7635L24.1582 11.2959C24.2431 11.2139 24.3108 11.1158 24.3574 11.0074C24.404 10.8989 24.4285 10.7823 24.4295 10.6643C24.4306 10.5462 24.4081 10.4292 24.3634 10.32C24.3187 10.2107 24.2527 10.1115 24.1692 10.028C24.0858 9.94455 23.9865 9.87855 23.8773 9.83385C23.768 9.78916 23.651 9.76667 23.533 9.7677C23.4149 9.76872 23.2983 9.79324 23.1898 9.83983C23.0814 9.88641 22.9833 9.95413 22.9013 10.039L21.4293 11.511C21.3911 11.5491 21.3404 11.572 21.2866 11.5754C21.2328 11.5788 21.1796 11.5626 21.1369 11.5297C19.9584 10.6199 18.5592 10.0398 17.0827 9.84881C17.0291 9.84189 16.9799 9.8157 16.9442 9.77513C16.9085 9.73456 16.8889 9.68238 16.8889 9.62836V7.33414C16.8888 7.30488 16.8944 7.27589 16.9055 7.24883C16.9166 7.22176 16.933 7.19716 16.9536 7.17643C16.9743 7.1557 16.9988 7.13925 17.0258 7.12803C17.0529 7.11681 17.0818 7.11103 17.1111 7.11103H18.6667C18.9024 7.11103 19.1285 7.01738 19.2952 6.85068C19.4619 6.68398 19.5555 6.45789 19.5555 6.22214C19.5555 5.98639 19.4619 5.7603 19.2952 5.5936C19.1285 5.4269 18.9024 5.33325 18.6667 5.33325H13.3333C13.0976 5.33325 12.8715 5.4269 12.7048 5.5936C12.5381 5.7603 12.4444 5.98639 12.4444 6.22214C12.4444 6.45789 12.5381 6.68398 12.7048 6.85068C12.8715 7.01738 13.0976 7.11103 13.3333 7.11103H14.8889C14.9478 7.11103 15.0043 7.13444 15.046 7.17612C15.0877 7.21779 15.1111 7.27431 15.1111 7.33325V9.62836C15.1113 9.68244 15.0917 9.73471 15.056 9.77532C15.0203 9.81594 14.971 9.84208 14.9173 9.84881C13.0677 10.085 11.348 10.9258 10.0258 12.2406C8.70364 13.5553 7.85308 15.2702 7.6065 17.1185C7.35992 18.9667 7.73115 20.8446 8.66242 22.46C9.59369 24.0754 11.0328 25.3377 12.7558 26.0505C14.4788 26.7633 16.3891 26.8866 18.1894 26.4012C19.9897 25.9158 21.5791 24.849 22.7104 23.3667C23.8416 21.8845 24.4511 20.0698 24.4442 18.2052C24.4372 16.3406 23.8142 14.5306 22.672 13.0568ZM16 24.8888C14.6814 24.8888 13.3925 24.4978 12.2962 23.7653C11.1999 23.0327 10.3454 21.9915 9.84079 20.7734C9.3362 19.5552 9.20418 18.2147 9.46142 16.9215C9.71865 15.6283 10.3536 14.4404 11.2859 13.5081C12.2183 12.5757 13.4062 11.9408 14.6994 11.6836C15.9926 11.4263 17.333 11.5584 18.5512 12.0629C19.7694 12.5675 20.8106 13.422 21.5431 14.5183C22.2757 15.6147 22.6667 16.9036 22.6667 18.2221C22.6648 19.9897 21.9618 21.6843 20.712 22.9341C19.4621 24.1839 17.7675 24.8869 16 24.8888Z" fill="#111111"/>
</mask>
<g mask="url(#mask0)">
<rect width="32" height="32" fill="#39743C"/>
</g>
</svg>
