<svg width="24" height="24" viewBox="0 0 24 24" fill="none" xmlns="http://www.w3.org/2000/svg">
<mask id="mask0" mask-type="alpha" maskUnits="userSpaceOnUse" x="4" y="4" width="17" height="16">
<path d="M12 7.16667V7.33333C12 7.51014 12.0702 7.67971 12.1953 7.80474C12.3203 7.92976 12.4899 8 12.6667 8C12.8435 8 13.013 7.92976 13.1381 7.80474C13.2631 7.67971 13.3333 7.51014 13.3333 7.33333V7.16667C13.3333 7.12246 13.3509 7.08007 13.3821 7.04882C13.4134 7.01756 13.4558 7 13.5 7H14.1667C14.2109 7 14.2533 7.01756 14.2845 7.04882C14.3158 7.08007 14.3333 7.12246 14.3333 7.16667V10.3C14.3334 10.3245 14.339 10.3487 14.3497 10.3708C14.3604 10.3928 14.3759 10.4122 14.3952 10.4275C14.4144 10.4427 14.4368 10.4534 14.4607 10.4588C14.4846 10.4642 14.5094 10.4642 14.5333 10.4587C14.8532 10.3866 15.179 10.3447 15.5067 10.3333C15.5492 10.3326 15.5898 10.3153 15.6197 10.285C15.6496 10.2547 15.6665 10.2139 15.6667 10.1713V7C15.6667 6.64638 15.5262 6.30724 15.2761 6.05719C15.0261 5.80714 14.687 5.66667 14.3333 5.66667H13.5C13.4558 5.66667 13.4134 5.64911 13.3821 5.61785C13.3509 5.5866 13.3333 5.5442 13.3333 5.5V4.66667C13.3333 4.48986 13.2631 4.32029 13.1381 4.19526C13.013 4.07024 12.8435 4 12.6667 4C12.4899 4 12.3203 4.07024 12.1953 4.19526C12.0702 4.32029 12 4.48986 12 4.66667V5.5C12 5.5442 11.9824 5.5866 11.9512 5.61785C11.9199 5.64911 11.8775 5.66667 11.8333 5.66667H10.8333C10.7891 5.66667 10.7467 5.64911 10.7155 5.61785C10.6842 5.5866 10.6667 5.5442 10.6667 5.5V4.66667C10.6667 4.48986 10.5964 4.32029 10.4714 4.19526C10.3464 4.07024 10.1768 4 10 4C9.82319 4 9.65362 4.07024 9.5286 4.19526C9.40357 4.32029 9.33333 4.48986 9.33333 4.66667V5.5C9.33333 5.5442 9.31577 5.5866 9.28452 5.61785C9.25326 5.64911 9.21087 5.66667 9.16667 5.66667H8.16667C8.12246 5.66667 8.08007 5.64911 8.04882 5.61785C8.01756 5.5866 8 5.5442 8 5.5V4.66667C8 4.48986 7.92976 4.32029 7.80474 4.19526C7.67971 4.07024 7.51014 4 7.33333 4C7.15652 4 6.98695 4.07024 6.86193 4.19526C6.7369 4.32029 6.66667 4.48986 6.66667 4.66667V5.5C6.66667 5.5442 6.64911 5.5866 6.61785 5.61785C6.5866 5.64911 6.5442 5.66667 6.5 5.66667H5.33333C4.97971 5.66667 4.64057 5.80714 4.39052 6.05719C4.14048 6.30724 4 6.64638 4 7V15.6667C4 16.0203 4.14048 16.3594 4.39052 16.6095C4.64057 16.8595 4.97971 17 5.33333 17H10.302C10.3266 17.0001 10.3508 16.9945 10.373 16.9839C10.3951 16.9732 10.4145 16.9577 10.4298 16.9384C10.445 16.9192 10.4558 16.8967 10.4611 16.8728C10.4665 16.8488 10.4663 16.8239 10.4607 16.8C10.3879 16.4802 10.3453 16.1544 10.3333 15.8267C10.3326 15.7841 10.3153 15.7435 10.285 15.7136C10.2547 15.6837 10.2139 15.6668 10.1713 15.6667H5.5C5.4558 15.6667 5.41341 15.6491 5.38215 15.6179C5.35089 15.5866 5.33333 15.5442 5.33333 15.5V7.16667C5.33333 7.12246 5.35089 7.08007 5.38215 7.04882C5.41341 7.01756 5.4558 7 5.5 7H6.5C6.5442 7 6.5866 7.01756 6.61785 7.04882C6.64911 7.08007 6.66667 7.12246 6.66667 7.16667V7.33333C6.66667 7.51014 6.7369 7.67971 6.86193 7.80474C6.98695 7.92976 7.15652 8 7.33333 8C7.51014 8 7.67971 7.92976 7.80474 7.80474C7.92976 7.67971 8 7.51014 8 7.33333V7.16667C8 7.12246 8.01756 7.08007 8.04882 7.04882C8.08007 7.01756 8.12246 7 8.16667 7H9.16667C9.21087 7 9.25326 7.01756 9.28452 7.04882C9.31577 7.08007 9.33333 7.12246 9.33333 7.16667V7.33333C9.33333 7.51014 9.40357 7.67971 9.5286 7.80474C9.65362 7.92976 9.82319 8 10 8C10.1768 8 10.3464 7.92976 10.4714 7.80474C10.5964 7.67971 10.6667 7.51014 10.6667 7.33333V7.16667C10.6667 7.12246 10.6842 7.08007 10.7155 7.04882C10.7467 7.01756 10.7891 7 10.8333 7H11.8333C11.8775 7 11.9199 7.01756 11.9512 7.04882C11.9824 7.08007 12 7.12246 12 7.16667Z" fill="#111111"/>
<path d="M15.6668 11.3333C14.8098 11.3333 13.972 11.5875 13.2594 12.0636C12.5467 12.5398 11.9913 13.2166 11.6634 14.0084C11.3354 14.8002 11.2496 15.6715 11.4168 16.5121C11.584 17.3526 11.9967 18.1248 12.6027 18.7308C13.2087 19.3368 13.9809 19.7495 14.8214 19.9167C15.662 20.0839 16.5333 19.9981 17.3251 19.6701C18.1169 19.3422 18.7937 18.7867 19.2699 18.0741C19.746 17.3615 20.0002 16.5237 20.0002 15.6667C19.9988 14.5178 19.5418 13.4164 18.7294 12.6041C17.917 11.7917 16.8157 11.3347 15.6668 11.3333ZM16.3588 18.118C16.2968 18.134 16.1668 18.1907 16.1668 18.314V18.5C16.1668 18.6326 16.1142 18.7598 16.0204 18.8535C15.9266 18.9473 15.7994 19 15.6668 19C15.5342 19 15.407 18.9473 15.3133 18.8535C15.2195 18.7598 15.1668 18.6326 15.1668 18.5V18.3333C15.1668 18.2895 15.1494 18.2474 15.1184 18.2164C15.0874 18.1854 15.0453 18.168 15.0015 18.168H14.6668C14.5342 18.168 14.407 18.1153 14.3133 18.0215C14.2195 17.9278 14.1668 17.8006 14.1668 17.668C14.1668 17.5354 14.2195 17.4082 14.3133 17.3144C14.407 17.2207 14.5342 17.168 14.6668 17.168H16.0222C16.1137 17.1678 16.2023 17.1357 16.2728 17.0774C16.3433 17.019 16.3914 16.9379 16.4087 16.8481C16.426 16.7582 16.4116 16.6651 16.3678 16.5847C16.3241 16.5043 16.2537 16.4416 16.1688 16.4073L14.7935 15.8573C14.516 15.7469 14.2814 15.55 14.1246 15.2958C13.9678 15.0416 13.897 14.7437 13.9227 14.4461C13.9484 14.1485 14.0693 13.8672 14.2675 13.6437C14.4656 13.4202 14.7305 13.2665 15.0228 13.2053C15.0669 13.1889 15.1046 13.1588 15.1305 13.1195C15.1564 13.0802 15.1691 13.0337 15.1668 12.9867V12.8333C15.1668 12.7007 15.2195 12.5735 15.3133 12.4798C15.407 12.386 15.5342 12.3333 15.6668 12.3333C15.7994 12.3333 15.9266 12.386 16.0204 12.4798C16.1142 12.5735 16.1668 12.7007 16.1668 12.8333V13C16.1668 13.0442 16.1844 13.0866 16.2156 13.1178C16.2469 13.1491 16.2893 13.1667 16.3335 13.1667H16.6668C16.7994 13.1667 16.9266 13.2193 17.0204 13.3131C17.1142 13.4069 17.1668 13.5341 17.1668 13.6667C17.1668 13.7993 17.1142 13.9264 17.0204 14.0202C16.9266 14.114 16.7994 14.1667 16.6668 14.1667H15.3115C15.22 14.1669 15.1314 14.1989 15.0608 14.2573C14.9903 14.3157 14.9423 14.3967 14.925 14.4866C14.9076 14.5765 14.9221 14.6696 14.9658 14.75C15.0096 14.8304 15.0799 14.8931 15.1648 14.9273L16.5402 15.4773C16.814 15.586 17.0461 15.7789 17.2032 16.0281C17.3602 16.2773 17.434 16.57 17.4138 16.8639C17.3936 17.1578 17.2805 17.4376 17.0909 17.663C16.9013 17.8885 16.6449 18.0478 16.3588 18.118Z" fill="#111111"/>
</mask>
<g mask="url(#mask0)">
<rect opacity="0.6" width="24" height="24" fill="white"/>
</g>
</svg>
