<svg width="496" height="520" viewBox="0 0 496 520" fill="none" xmlns="http://www.w3.org/2000/svg">
<path opacity="0.1" d="M247.5 436C378.115 436 484 422.738 484 406.378C484 390.018 378.115 376.756 247.5 376.756C116.885 376.756 11 390.018 11 406.378C11 422.738 116.885 436 247.5 436Z" fill="#4D83C2"/>
<path d="M415.667 420.898C415.667 420.898 428.002 404.724 427.004 388.677C426.544 381.949 428.214 375.249 431.764 369.583C433.47 366.906 435.41 364.396 437.56 362.085" stroke="#535461" stroke-width="2" stroke-miterlimit="10"/>
<path d="M436.99 351.968C436.12 354.214 437.545 362.35 437.545 362.35C437.545 362.35 444.014 357.46 444.883 355.213C445.3 354.135 445.284 352.93 444.839 351.864C444.394 350.798 443.556 349.957 442.51 349.527C441.464 349.097 440.295 349.112 439.26 349.57C438.224 350.028 437.408 350.89 436.99 351.968Z" fill="#6C63FF"/>
<path d="M425.649 361.728C426.103 364.1 431.591 370.132 431.591 370.132C431.591 370.132 434.441 362.403 433.986 360.031C433.878 359.467 433.663 358.93 433.354 358.452C433.045 357.973 432.647 357.562 432.183 357.242C431.72 356.922 431.2 356.699 430.652 356.586C430.105 356.473 429.542 356.472 428.994 356.584C428.447 356.695 427.926 356.916 427.462 357.235C426.997 357.554 426.598 357.964 426.288 358.441C425.977 358.919 425.761 359.455 425.651 360.019C425.542 360.583 425.541 361.163 425.649 361.728Z" fill="#6C63FF"/>
<path d="M417.701 383.106C419.256 384.917 426.947 387.27 426.947 387.27C426.947 387.27 425.622 379.116 424.067 377.304C423.698 376.873 423.249 376.522 422.748 376.269C422.246 376.017 421.701 375.869 421.144 375.834C420.587 375.798 420.029 375.876 419.501 376.064C418.973 376.251 418.487 376.543 418.069 376.924C417.65 377.305 417.309 377.767 417.065 378.284C416.82 378.801 416.676 379.362 416.642 379.936C416.608 380.51 416.684 381.086 416.866 381.63C417.047 382.173 417.331 382.675 417.701 383.106Z" fill="#6C63FF"/>
<path d="M415.223 400.676C416.458 402.732 423.653 406.39 423.653 406.39C423.653 406.39 423.684 398.123 422.449 396.066C422.155 395.577 421.771 395.152 421.318 394.816C420.865 394.48 420.352 394.239 419.809 394.107C419.266 393.975 418.703 393.955 418.152 394.047C417.601 394.14 417.073 394.343 416.598 394.646C416.123 394.949 415.711 395.345 415.385 395.812C415.059 396.279 414.826 396.807 414.698 397.367C414.57 397.927 414.551 398.508 414.641 399.076C414.731 399.643 414.929 400.187 415.223 400.676Z" fill="#6C63FF"/>
<path d="M439.709 373.974C437.54 374.896 429.628 373.523 429.628 373.523C429.628 373.523 434.299 366.801 436.468 365.878C437.51 365.435 438.68 365.437 439.72 365.883C440.761 366.329 441.587 367.183 442.017 368.256C442.446 369.33 442.445 370.535 442.012 371.608C441.579 372.68 440.751 373.531 439.709 373.974Z" fill="#6C63FF"/>
<path d="M436.558 394.485C434.22 394.696 427.069 390.946 427.069 390.946C427.069 390.946 433.478 385.972 435.816 385.761C436.372 385.71 436.932 385.773 437.465 385.945C437.998 386.118 438.492 386.397 438.92 386.766C439.348 387.136 439.701 387.589 439.959 388.099C440.217 388.609 440.375 389.167 440.424 389.74C440.473 390.313 440.411 390.891 440.243 391.44C440.075 391.988 439.804 392.498 439.445 392.938C439.086 393.379 438.646 393.742 438.151 394.008C437.655 394.273 437.114 394.435 436.558 394.485Z" fill="#6C63FF"/>
<path d="M430.84 413.987C428.571 414.602 420.908 412.152 420.908 412.152C420.908 412.152 426.409 406.133 428.678 405.518C429.768 405.222 430.928 405.385 431.901 405.971C432.874 406.556 433.582 407.516 433.869 408.639C434.156 409.762 433.998 410.956 433.43 411.959C432.862 412.962 431.93 413.692 430.84 413.987Z" fill="#6C63FF"/>
<path d="M436.99 351.968C436.12 354.214 437.545 362.35 437.545 362.35C437.545 362.35 444.014 357.46 444.883 355.213C445.3 354.135 445.284 352.93 444.839 351.864C444.394 350.798 443.556 349.957 442.51 349.527C441.464 349.097 440.295 349.112 439.26 349.57C438.224 350.028 437.408 350.89 436.99 351.968Z" fill="#39743C"/>
<path d="M425.649 361.728C426.103 364.1 431.591 370.132 431.591 370.132C431.591 370.132 434.441 362.403 433.986 360.031C433.878 359.467 433.663 358.93 433.354 358.452C433.045 357.973 432.647 357.562 432.183 357.242C431.72 356.922 431.2 356.699 430.652 356.586C430.105 356.473 429.542 356.472 428.994 356.584C428.447 356.695 427.926 356.916 427.462 357.235C426.997 357.554 426.598 357.964 426.288 358.441C425.977 358.919 425.761 359.455 425.651 360.019C425.542 360.583 425.541 361.163 425.649 361.728Z" fill="#39743C"/>
<path d="M417.701 383.106C419.256 384.917 426.947 387.27 426.947 387.27C426.947 387.27 425.622 379.116 424.067 377.304C423.698 376.873 423.249 376.522 422.748 376.269C422.246 376.017 421.701 375.869 421.144 375.834C420.587 375.798 420.029 375.876 419.501 376.064C418.973 376.251 418.487 376.543 418.069 376.924C417.65 377.305 417.309 377.767 417.065 378.284C416.82 378.801 416.676 379.362 416.642 379.936C416.608 380.51 416.684 381.086 416.866 381.63C417.047 382.173 417.331 382.675 417.701 383.106Z" fill="#39743C"/>
<path d="M415.223 400.676C416.458 402.732 423.653 406.39 423.653 406.39C423.653 406.39 423.684 398.123 422.449 396.066C422.155 395.577 421.771 395.152 421.318 394.816C420.865 394.48 420.352 394.239 419.809 394.107C419.266 393.975 418.703 393.955 418.152 394.047C417.601 394.14 417.073 394.343 416.598 394.646C416.123 394.949 415.711 395.345 415.385 395.812C415.059 396.279 414.826 396.807 414.698 397.367C414.57 397.927 414.551 398.508 414.641 399.076C414.731 399.643 414.929 400.187 415.223 400.676Z" fill="#39743C"/>
<path d="M439.709 373.974C437.54 374.896 429.628 373.523 429.628 373.523C429.628 373.523 434.299 366.801 436.468 365.878C437.51 365.435 438.68 365.437 439.72 365.883C440.761 366.329 441.587 367.183 442.017 368.256C442.446 369.33 442.445 370.535 442.012 371.608C441.579 372.68 440.751 373.531 439.709 373.974Z" fill="#39743C"/>
<path d="M436.558 394.485C434.22 394.696 427.069 390.946 427.069 390.946C427.069 390.946 433.478 385.972 435.816 385.761C436.372 385.71 436.932 385.773 437.465 385.945C437.998 386.118 438.492 386.397 438.92 386.766C439.348 387.136 439.701 387.589 439.959 388.099C440.217 388.609 440.375 389.167 440.424 389.74C440.473 390.313 440.411 390.891 440.243 391.44C440.075 391.988 439.804 392.498 439.445 392.938C439.086 393.379 438.646 393.742 438.151 394.008C437.655 394.273 437.114 394.435 436.558 394.485Z" fill="#39743C"/>
<path d="M430.84 413.987C428.571 414.602 420.908 412.152 420.908 412.152C420.908 412.152 426.409 406.133 428.678 405.518C429.768 405.222 430.928 405.385 431.901 405.971C432.874 406.556 433.582 407.516 433.869 408.639C434.156 409.762 433.998 410.956 433.43 411.959C432.862 412.962 431.93 413.692 430.84 413.987Z" fill="#39743C"/>
<path d="M415.771 420.224C415.771 420.224 433.408 410.589 438.807 395.502C441.032 389.159 445.193 383.731 450.667 380.033C453.279 378.298 456.039 376.814 458.914 375.598" stroke="#535461" stroke-width="2" stroke-miterlimit="10"/>
<path d="M462.371 366.111C460.693 367.802 458.796 375.835 458.796 375.835C458.796 375.835 466.633 374.065 468.311 372.374C469.117 371.563 469.577 370.454 469.59 369.293C469.603 368.132 469.168 367.013 468.38 366.182C467.592 365.352 466.517 364.878 465.39 364.864C464.263 364.851 463.177 365.3 462.371 366.111Z" fill="#4DC252"/>
<path d="M448.165 370.298C447.648 372.657 450.292 380.462 450.292 380.462C450.292 380.462 455.937 374.587 456.455 372.228C456.578 371.667 456.592 371.087 456.498 370.52C456.403 369.954 456.201 369.412 455.903 368.926C455.605 368.439 455.217 368.018 454.761 367.687C454.306 367.355 453.791 367.119 453.247 366.992C452.702 366.865 452.139 366.85 451.589 366.948C451.039 367.045 450.513 367.254 450.042 367.561C449.57 367.868 449.161 368.267 448.839 368.737C448.517 369.207 448.288 369.737 448.165 370.298Z" fill="#4DC252"/>
<path d="M432.493 386.524C433.202 388.829 439.309 394.191 439.309 394.191C439.309 394.191 441.303 386.183 440.594 383.878C440.426 383.33 440.154 382.821 439.795 382.381C439.435 381.941 438.996 381.579 438.5 381.314C438.005 381.049 437.464 380.887 436.908 380.838C436.352 380.789 435.792 380.853 435.26 381.027C434.728 381.2 434.235 381.48 433.808 381.851C433.381 382.221 433.029 382.674 432.772 383.185C432.515 383.695 432.358 384.253 432.31 384.826C432.262 385.398 432.324 385.975 432.493 386.524Z" fill="#4DC252"/>
<path d="M423.318 401.552C423.638 403.948 428.778 410.296 428.778 410.296C428.778 410.296 432.057 402.751 431.737 400.355C431.66 399.786 431.476 399.237 431.194 398.741C430.912 398.245 430.538 397.81 430.093 397.463C429.648 397.116 429.141 396.862 428.602 396.717C428.062 396.572 427.499 396.537 426.946 396.616C426.394 396.694 425.861 396.885 425.38 397.175C424.898 397.466 424.477 397.851 424.14 398.31C423.803 398.768 423.557 399.29 423.416 399.846C423.275 400.403 423.241 400.982 423.318 401.552Z" fill="#4DC252"/>
<path d="M456.204 387.365C453.858 387.302 447.165 382.743 447.165 382.743C447.165 382.743 454.078 378.548 456.424 378.61C457.551 378.641 458.62 379.131 459.396 379.973C460.172 380.815 460.591 381.94 460.562 383.101C460.533 384.262 460.057 385.363 459.24 386.163C458.423 386.963 457.33 387.395 456.204 387.365H456.204Z" fill="#4DC252"/>
<path d="M445.257 404.8C443.037 404.017 437.974 397.603 437.974 397.603C437.974 397.603 445.789 395.732 448.009 396.515C449.076 396.891 449.953 397.688 450.449 398.731C450.945 399.774 451.018 400.977 450.653 402.076C450.288 403.174 449.515 404.079 448.503 404.59C447.491 405.101 446.323 405.176 445.257 404.8V404.8Z" fill="#4DC252"/>
<path d="M432.36 420.242C430.043 419.857 424.002 414.417 424.002 414.417C424.002 414.417 431.398 411.211 433.714 411.597C434.827 411.782 435.823 412.415 436.482 413.356C437.142 414.298 437.412 415.471 437.232 416.617C437.053 417.763 436.439 418.789 435.525 419.469C434.611 420.149 433.473 420.427 432.36 420.242Z" fill="#4DC252"/>
<path opacity="0.1" d="M280.558 127.45C257.189 126.614 234.931 118.84 213.677 110.335C192.423 101.829 171.371 92.4057 148.561 87.8987C133.89 85 117.112 84.5898 105.291 92.6953C93.916 100.495 90.2403 113.959 88.2642 126.453C86.7774 135.852 85.9032 145.744 89.9771 154.544C92.8054 160.653 97.8274 165.788 101.3 171.64C113.384 192.001 104.843 217.109 91.7476 236.99C85.6047 246.316 78.4795 255.213 73.7393 265.14C68.9991 275.068 66.8062 286.443 70.9535 296.57C75.0642 306.608 84.8604 314.147 95.472 319.45C117.024 330.221 142.422 333.303 167.188 335.049C222.01 338.914 277.124 337.24 332.092 335.565C352.434 334.945 372.866 334.316 392.877 331.075C403.99 329.275 415.463 326.418 423.531 319.521C433.773 310.766 436.312 295.94 429.449 284.962C417.937 266.547 386.109 261.973 378.063 242.211C373.634 231.333 378.182 219.216 384.618 209.128C398.425 187.486 421.568 168.499 422.787 143.762C423.624 126.772 412.499 109.757 395.297 101.718C377.266 93.2918 352.263 94.3518 338.961 108.3C325.263 122.662 301.192 128.189 280.558 127.45Z" fill="#4D83C2"/>
<path d="M240.546 393.092C249.321 393.092 256.435 385.311 256.435 375.712C256.435 366.114 249.321 358.332 240.546 358.332C231.77 358.332 224.656 366.114 224.656 375.712C224.656 385.311 231.77 393.092 240.546 393.092Z" fill="#FBD56F"/>
<path opacity="0.1" d="M240.546 393.092C249.321 393.092 256.435 385.311 256.435 375.712C256.435 366.114 249.321 358.332 240.546 358.332C231.77 358.332 224.656 366.114 224.656 375.712C224.656 385.311 231.77 393.092 240.546 393.092Z" fill="black"/>
<path d="M243.288 393.092C252.064 393.092 259.178 385.484 259.178 376.099C259.178 366.715 252.064 359.107 243.288 359.107C234.513 359.107 227.399 366.715 227.399 376.099C227.399 385.484 234.513 393.092 243.288 393.092Z" fill="#FBD56F"/>
<path d="M249.724 391.499L248.071 390.55C248.071 390.55 247.298 393.875 247.551 396.244C247.576 396.484 247.672 396.711 247.825 396.893C247.979 397.075 248.184 397.205 248.411 397.263C252.214 398.236 270.335 402.382 282.797 396.543C282.978 396.458 283.134 396.326 283.25 396.16C283.366 395.994 283.438 395.799 283.459 395.596C283.612 394.14 283.071 391.136 282.855 390.55C282.39 389.291 249.724 391.499 249.724 391.499Z" fill="#FBD56F"/>
<path opacity="0.1" d="M249.724 391.499L248.071 390.55C248.071 390.55 247.298 393.875 247.551 396.244C247.576 396.484 247.672 396.711 247.825 396.893C247.979 397.075 248.184 397.205 248.411 397.263C252.214 398.236 270.335 402.382 282.797 396.543C282.978 396.458 283.134 396.326 283.25 396.16C283.366 395.994 283.438 395.799 283.459 395.596C283.612 394.14 283.071 391.136 282.855 390.55C282.39 389.291 249.724 391.499 249.724 391.499Z" fill="black"/>
<path d="M265.463 394.59C275.069 394.59 282.855 392.781 282.855 390.55C282.855 388.319 275.069 386.511 265.463 386.511C255.858 386.511 248.071 388.319 248.071 390.55C248.071 392.781 255.858 394.59 265.463 394.59Z" fill="#FBD56F"/>
<path d="M256.368 385.538L254.716 384.59C254.716 384.59 253.943 387.914 254.195 390.283C254.22 390.524 254.316 390.75 254.47 390.933C254.624 391.115 254.828 391.244 255.056 391.303C258.858 392.276 276.98 396.421 289.442 390.582C289.622 390.498 289.778 390.366 289.895 390.199C290.011 390.033 290.083 389.839 290.104 389.636C290.257 388.18 289.716 385.175 289.5 384.59C289.035 383.33 256.368 385.538 256.368 385.538Z" fill="#FBD56F"/>
<path opacity="0.1" d="M256.368 385.538L254.716 384.59C254.716 384.59 253.943 387.914 254.195 390.283C254.22 390.524 254.316 390.75 254.47 390.933C254.624 391.115 254.828 391.244 255.056 391.303C258.858 392.276 276.98 396.421 289.442 390.582C289.622 390.498 289.778 390.366 289.895 390.199C290.011 390.033 290.083 389.839 290.104 389.636C290.257 388.18 289.716 385.175 289.5 384.59C289.035 383.33 256.368 385.538 256.368 385.538Z" fill="black"/>
<path d="M272.108 388.63C281.713 388.63 289.5 386.821 289.5 384.59C289.5 382.359 281.713 380.55 272.108 380.55C262.503 380.55 254.716 382.359 254.716 384.59C254.716 386.821 262.503 388.63 272.108 388.63Z" fill="#FBD56F"/>
<path d="M262.242 377.705L260.59 376.756C260.59 376.756 259.817 380.081 260.069 382.45C260.094 382.69 260.19 382.916 260.344 383.099C260.498 383.281 260.702 383.41 260.93 383.469C264.732 384.442 282.854 388.587 295.316 382.749C295.496 382.664 295.652 382.532 295.769 382.366C295.885 382.2 295.957 382.005 295.978 381.802C296.131 380.346 295.59 377.342 295.374 376.756C294.909 375.496 262.242 377.705 262.242 377.705Z" fill="#FBD56F"/>
<path opacity="0.1" d="M262.242 377.705L260.59 376.756C260.59 376.756 259.817 380.081 260.069 382.45C260.094 382.69 260.19 382.916 260.344 383.099C260.498 383.281 260.702 383.41 260.93 383.469C264.732 384.442 282.854 388.587 295.316 382.749C295.496 382.664 295.652 382.532 295.769 382.366C295.885 382.2 295.957 382.005 295.978 381.802C296.131 380.346 295.59 377.342 295.374 376.756C294.909 375.496 262.242 377.705 262.242 377.705Z" fill="black"/>
<path d="M277.982 380.796C287.587 380.796 295.374 378.987 295.374 376.756C295.374 374.525 287.587 372.716 277.982 372.716C268.377 372.716 260.59 374.525 260.59 376.756C260.59 378.987 268.377 380.796 277.982 380.796Z" fill="#FBD56F"/>
<path d="M255.738 369.55L254.085 368.601C254.085 368.601 253.312 371.926 253.564 374.295C253.589 374.535 253.685 374.762 253.839 374.944C253.993 375.126 254.198 375.256 254.425 375.314C258.227 376.287 276.349 380.433 288.811 374.594C288.991 374.509 289.148 374.377 289.264 374.211C289.38 374.045 289.452 373.851 289.473 373.647C289.626 372.191 289.085 369.187 288.869 368.601C288.404 367.342 255.738 369.55 255.738 369.55Z" fill="#FBD56F"/>
<path opacity="0.1" d="M255.738 369.55L254.085 368.601C254.085 368.601 253.312 371.926 253.564 374.295C253.589 374.535 253.685 374.762 253.839 374.944C253.993 375.126 254.198 375.256 254.425 375.314C258.227 376.287 276.349 380.433 288.811 374.594C288.991 374.509 289.148 374.377 289.264 374.211C289.38 374.045 289.452 373.851 289.473 373.647C289.626 372.191 289.085 369.187 288.869 368.601C288.404 367.342 255.738 369.55 255.738 369.55Z" fill="black"/>
<path d="M271.476 372.641C281.082 372.641 288.869 370.833 288.869 368.601C288.869 366.37 281.082 364.562 271.476 364.562C261.871 364.562 254.084 366.37 254.084 368.601C254.084 370.833 261.871 372.641 271.476 372.641Z" fill="#FBD56F"/>
<path d="M270.372 363.005L268.72 362.057C268.72 362.057 267.946 365.381 268.199 367.75C268.224 367.991 268.32 368.217 268.474 368.4C268.628 368.582 268.832 368.711 269.06 368.77C272.862 369.743 290.984 373.888 303.446 368.05C303.626 367.965 303.782 367.833 303.898 367.666C304.015 367.5 304.087 367.306 304.108 367.103C304.261 365.647 303.72 362.642 303.504 362.057C303.039 360.797 270.372 363.005 270.372 363.005Z" fill="#FBD56F"/>
<path opacity="0.1" d="M270.372 363.005L268.72 362.057C268.72 362.057 267.946 365.381 268.199 367.75C268.224 367.991 268.32 368.217 268.474 368.4C268.628 368.582 268.832 368.711 269.06 368.77C272.862 369.743 290.984 373.888 303.446 368.05C303.626 367.965 303.782 367.833 303.898 367.666C304.015 367.5 304.087 367.306 304.108 367.103C304.261 365.647 303.72 362.642 303.504 362.057C303.039 360.797 270.372 363.005 270.372 363.005Z" fill="black"/>
<path d="M286.111 366.097C295.717 366.097 303.503 364.288 303.503 362.057C303.503 359.826 295.717 358.017 286.111 358.017C276.506 358.017 268.719 359.826 268.719 362.057C268.719 364.288 276.506 366.097 286.111 366.097Z" fill="#FBD56F"/>
<path d="M260.485 358.607L258.832 357.658C258.832 357.658 258.059 360.983 258.311 363.352C258.336 363.592 258.432 363.819 258.586 364.001C258.74 364.183 258.945 364.313 259.172 364.371C262.974 365.344 281.096 369.49 293.558 363.651C293.739 363.566 293.895 363.434 294.011 363.268C294.127 363.102 294.199 362.907 294.22 362.704C294.373 361.248 293.832 358.244 293.616 357.658C293.151 356.399 260.485 358.607 260.485 358.607Z" fill="#FBD56F"/>
<path opacity="0.1" d="M260.485 358.607L258.832 357.658C258.832 357.658 258.059 360.983 258.311 363.352C258.336 363.592 258.432 363.819 258.586 364.001C258.74 364.183 258.945 364.313 259.172 364.371C262.974 365.344 281.096 369.49 293.558 363.651C293.739 363.566 293.895 363.434 294.011 363.268C294.127 363.102 294.199 362.907 294.22 362.704C294.373 361.248 293.832 358.244 293.616 357.658C293.151 356.399 260.485 358.607 260.485 358.607Z" fill="black"/>
<path d="M276.224 361.698C285.829 361.698 293.616 359.89 293.616 357.658C293.616 355.427 285.829 353.619 276.224 353.619C266.618 353.619 258.832 355.427 258.832 357.658C258.832 359.89 266.618 361.698 276.224 361.698Z" fill="#FBD56F"/>
<path d="M267.086 350.115L265.433 349.167C265.433 349.167 264.66 352.491 264.913 354.86C264.938 355.1 265.034 355.327 265.188 355.509C265.342 355.692 265.546 355.821 265.774 355.88C269.576 356.853 287.698 360.998 300.159 355.159C300.34 355.074 300.496 354.942 300.612 354.776C300.728 354.61 300.801 354.416 300.822 354.212C300.975 352.756 300.433 349.752 300.217 349.167C299.753 347.907 267.086 350.115 267.086 350.115Z" fill="#FBD56F"/>
<path opacity="0.1" d="M267.086 350.115L265.433 349.167C265.433 349.167 264.66 352.491 264.913 354.86C264.938 355.1 265.034 355.327 265.188 355.509C265.342 355.692 265.546 355.821 265.774 355.88C269.576 356.853 287.698 360.998 300.159 355.159C300.34 355.074 300.496 354.942 300.612 354.776C300.728 354.61 300.801 354.416 300.822 354.212C300.975 352.756 300.433 349.752 300.217 349.167C299.753 347.907 267.086 350.115 267.086 350.115Z" fill="black"/>
<path d="M282.825 353.207C292.43 353.207 300.217 351.398 300.217 349.167C300.217 346.936 292.43 345.127 282.825 345.127C273.22 345.127 265.433 346.936 265.433 349.167C265.433 351.398 273.22 353.207 282.825 353.207Z" fill="#FBD56F"/>
<path d="M270.342 340.036L268.689 339.087C268.689 339.087 267.916 342.412 268.169 344.781C268.194 345.021 268.29 345.247 268.444 345.43C268.598 345.612 268.802 345.741 269.03 345.8C272.832 346.773 290.954 350.918 303.415 345.08C303.596 344.995 303.752 344.863 303.868 344.697C303.984 344.531 304.056 344.336 304.077 344.133C304.23 342.677 303.689 339.673 303.473 339.087C303.008 337.827 270.342 340.036 270.342 340.036Z" fill="#FBD56F"/>
<path opacity="0.1" d="M270.342 340.036L268.689 339.087C268.689 339.087 267.916 342.412 268.169 344.781C268.194 345.021 268.29 345.247 268.444 345.43C268.598 345.612 268.802 345.741 269.03 345.8C272.832 346.773 290.954 350.918 303.415 345.08C303.596 344.995 303.752 344.863 303.868 344.697C303.984 344.531 304.056 344.336 304.077 344.133C304.23 342.677 303.689 339.673 303.473 339.087C303.008 337.827 270.342 340.036 270.342 340.036Z" fill="black"/>
<path d="M286.081 343.127C295.687 343.127 303.473 341.318 303.473 339.087C303.473 336.856 295.687 335.047 286.081 335.047C276.476 335.047 268.689 336.856 268.689 339.087C268.689 341.318 276.476 343.127 286.081 343.127Z" fill="#FBD56F"/>
<path d="M299.701 393.836L298.049 392.888C298.049 392.888 297.276 396.212 297.528 398.581C297.553 398.822 297.649 399.048 297.803 399.231C297.957 399.413 298.161 399.542 298.389 399.601C302.191 400.574 320.313 404.719 332.775 398.881C332.955 398.796 333.111 398.664 333.228 398.498C333.344 398.332 333.416 398.137 333.437 397.934C333.59 396.478 333.049 393.473 332.833 392.888C332.368 391.628 299.701 393.836 299.701 393.836Z" fill="#FBD56F"/>
<path opacity="0.1" d="M299.701 393.836L298.049 392.888C298.049 392.888 297.276 396.212 297.528 398.581C297.553 398.822 297.649 399.048 297.803 399.231C297.957 399.413 298.161 399.542 298.389 399.601C302.191 400.574 320.313 404.719 332.775 398.881C332.955 398.796 333.111 398.664 333.228 398.498C333.344 398.332 333.416 398.137 333.437 397.934C333.59 396.478 333.049 393.473 332.833 392.888C332.368 391.628 299.701 393.836 299.701 393.836Z" fill="black"/>
<path d="M315.441 396.928C325.046 396.928 332.833 395.119 332.833 392.888C332.833 390.657 325.046 388.848 315.441 388.848C305.835 388.848 298.049 390.657 298.049 392.888C298.049 395.119 305.835 396.928 315.441 396.928Z" fill="#FBD56F"/>
<path d="M305.576 386.003L303.923 385.054C303.923 385.054 303.15 388.379 303.403 390.748C303.428 390.988 303.524 391.215 303.678 391.397C303.831 391.579 304.036 391.708 304.263 391.767C308.066 392.74 326.188 396.886 338.649 391.047C338.83 390.962 338.986 390.83 339.102 390.664C339.218 390.498 339.29 390.303 339.312 390.1C339.464 388.644 338.923 385.64 338.707 385.054C338.242 383.795 305.576 386.003 305.576 386.003Z" fill="#FBD56F"/>
<path opacity="0.1" d="M305.576 386.003L303.923 385.054C303.923 385.054 303.15 388.379 303.403 390.748C303.428 390.988 303.524 391.215 303.678 391.397C303.831 391.579 304.036 391.708 304.263 391.767C308.066 392.74 326.188 396.886 338.649 391.047C338.83 390.962 338.986 390.83 339.102 390.664C339.218 390.498 339.29 390.303 339.312 390.1C339.464 388.644 338.923 385.64 338.707 385.054C338.242 383.795 305.576 386.003 305.576 386.003Z" fill="black"/>
<path d="M321.315 389.094C330.921 389.094 338.707 387.285 338.707 385.054C338.707 382.823 330.921 381.015 321.315 381.015C311.71 381.015 303.923 382.823 303.923 385.054C303.923 387.285 311.71 389.094 321.315 389.094Z" fill="#FBD56F"/>
<path d="M299.071 377.848L297.418 376.899C297.418 376.899 296.645 380.224 296.897 382.593C296.922 382.833 297.018 383.06 297.172 383.242C297.326 383.424 297.531 383.554 297.758 383.612C301.56 384.585 319.682 388.731 332.144 382.892C332.324 382.807 332.48 382.675 332.597 382.509C332.713 382.343 332.785 382.149 332.806 381.945C332.959 380.489 332.418 377.485 332.202 376.899C331.737 375.64 299.071 377.848 299.071 377.848Z" fill="#FBD56F"/>
<path opacity="0.1" d="M299.071 377.848L297.418 376.899C297.418 376.899 296.645 380.224 296.897 382.593C296.922 382.833 297.018 383.06 297.172 383.242C297.326 383.424 297.531 383.554 297.758 383.612C301.56 384.585 319.682 388.731 332.144 382.892C332.324 382.807 332.48 382.675 332.597 382.509C332.713 382.343 332.785 382.149 332.806 381.945C332.959 380.489 332.418 377.485 332.202 376.899C331.737 375.64 299.071 377.848 299.071 377.848Z" fill="black"/>
<path d="M314.81 380.939C324.415 380.939 332.202 379.131 332.202 376.9C332.202 374.668 324.415 372.86 314.81 372.86C305.205 372.86 297.418 374.668 297.418 376.9C297.418 379.131 305.205 380.939 314.81 380.939Z" fill="#FBD56F"/>
<path d="M313.705 371.303L312.053 370.355C312.053 370.355 311.28 373.679 311.532 376.048C311.557 376.289 311.653 376.515 311.807 376.698C311.961 376.88 312.165 377.009 312.393 377.068C316.195 378.041 334.317 382.186 346.779 376.348C346.959 376.263 347.115 376.131 347.231 375.965C347.348 375.799 347.42 375.604 347.441 375.401C347.594 373.945 347.053 370.94 346.837 370.355C346.372 369.095 313.705 371.303 313.705 371.303Z" fill="#FBD56F"/>
<path opacity="0.1" d="M313.705 371.303L312.053 370.355C312.053 370.355 311.28 373.679 311.532 376.048C311.557 376.289 311.653 376.515 311.807 376.698C311.961 376.88 312.165 377.009 312.393 377.068C316.195 378.041 334.317 382.186 346.779 376.348C346.959 376.263 347.115 376.131 347.231 375.965C347.348 375.799 347.42 375.604 347.441 375.401C347.594 373.945 347.053 370.94 346.837 370.355C346.372 369.095 313.705 371.303 313.705 371.303Z" fill="black"/>
<path d="M329.444 374.395C339.05 374.395 346.836 372.586 346.836 370.355C346.836 368.124 339.05 366.315 329.444 366.315C319.839 366.315 312.052 368.124 312.052 370.355C312.052 372.586 319.839 374.395 329.444 374.395Z" fill="#FBD56F"/>
<path d="M303.817 366.905L302.164 365.956C302.164 365.956 301.391 369.281 301.644 371.65C301.669 371.89 301.765 372.117 301.919 372.299C302.073 372.481 302.277 372.611 302.505 372.669C306.307 373.642 324.429 377.788 336.89 371.949C337.071 371.864 337.227 371.732 337.343 371.566C337.46 371.4 337.532 371.206 337.553 371.002C337.706 369.546 337.164 366.542 336.949 365.956C336.484 364.697 303.817 366.905 303.817 366.905Z" fill="#FBD56F"/>
<path opacity="0.1" d="M303.817 366.905L302.164 365.956C302.164 365.956 301.391 369.281 301.644 371.65C301.669 371.89 301.765 372.117 301.919 372.299C302.073 372.481 302.277 372.611 302.505 372.669C306.307 373.642 324.429 377.788 336.89 371.949C337.071 371.864 337.227 371.732 337.343 371.566C337.46 371.4 337.532 371.206 337.553 371.002C337.706 369.546 337.164 366.542 336.949 365.956C336.484 364.697 303.817 366.905 303.817 366.905Z" fill="black"/>
<path d="M319.557 369.996C329.162 369.996 336.949 368.188 336.949 365.956C336.949 363.725 329.162 361.917 319.557 361.917C309.951 361.917 302.165 363.725 302.165 365.956C302.165 368.188 309.951 369.996 319.557 369.996Z" fill="#FBD56F"/>
<path d="M310.419 358.413L308.766 357.465C308.766 357.465 307.993 360.789 308.246 363.158C308.27 363.398 308.366 363.625 308.52 363.807C308.674 363.99 308.879 364.119 309.106 364.178C312.908 365.151 331.03 369.296 343.492 363.457C343.673 363.372 343.829 363.24 343.945 363.074C344.061 362.908 344.133 362.714 344.154 362.51C344.307 361.054 343.766 358.05 343.55 357.465C343.085 356.205 310.419 358.413 310.419 358.413Z" fill="#FBD56F"/>
<path opacity="0.1" d="M310.419 358.413L308.766 357.465C308.766 357.465 307.993 360.789 308.246 363.158C308.27 363.398 308.366 363.625 308.52 363.807C308.674 363.99 308.879 364.119 309.106 364.178C312.908 365.151 331.03 369.296 343.492 363.457C343.673 363.372 343.829 363.24 343.945 363.074C344.061 362.908 344.133 362.714 344.154 362.51C344.307 361.054 343.766 358.05 343.55 357.465C343.085 356.205 310.419 358.413 310.419 358.413Z" fill="black"/>
<path d="M326.159 361.504C335.764 361.504 343.551 359.696 343.551 357.465C343.551 355.234 335.764 353.425 326.159 353.425C316.553 353.425 308.767 355.234 308.767 357.465C308.767 359.696 316.553 361.504 326.159 361.504Z" fill="#FBD56F"/>
<path d="M313.675 348.334L312.022 347.385C312.022 347.385 311.249 350.71 311.502 353.079C311.527 353.319 311.623 353.546 311.777 353.728C311.931 353.91 312.135 354.039 312.363 354.098C316.165 355.071 334.287 359.217 346.748 353.378C346.929 353.293 347.085 353.161 347.201 352.995C347.317 352.829 347.389 352.634 347.411 352.431C347.563 350.975 347.022 347.971 346.806 347.385C346.341 346.126 313.675 348.334 313.675 348.334Z" fill="#FBD56F"/>
<path opacity="0.1" d="M313.675 348.334L312.022 347.385C312.022 347.385 311.249 350.71 311.502 353.079C311.527 353.319 311.623 353.546 311.777 353.728C311.931 353.91 312.135 354.039 312.363 354.098C316.165 355.071 334.287 359.217 346.748 353.378C346.929 353.293 347.085 353.161 347.201 352.995C347.317 352.829 347.389 352.634 347.411 352.431C347.563 350.975 347.022 347.971 346.806 347.385C346.341 346.126 313.675 348.334 313.675 348.334Z" fill="black"/>
<path d="M329.414 351.425C339.02 351.425 346.806 349.616 346.806 347.385C346.806 345.154 339.02 343.345 329.414 343.345C319.809 343.345 312.022 345.154 312.022 347.385C312.022 349.616 319.809 351.425 329.414 351.425Z" fill="#FBD56F"/>
<path d="M418.504 417.613C416.083 417.525 415.997 416.558 412.884 414.888C411.127 413.945 408.459 411.207 406.47 409.004C406.311 408.828 406.157 408.655 406.007 408.487C406.533 408.475 406.832 408.47 406.832 408.47C406.832 408.47 406.053 401.436 406.745 399.766C407.437 398.095 406.918 388.161 406.918 388.161C406.918 388.161 407.35 380.6 406.572 378.842C405.794 377.083 406.832 365.83 406.832 365.83C406.832 365.83 407.523 359.148 407.696 345.521C407.869 331.894 400.088 331.454 400.088 331.454C400.088 331.454 399.05 331.372 397.475 331.217C397.324 331.202 397.163 331.186 397.003 331.17C398.023 328.97 398.618 327.322 398.618 327.322C398.618 327.322 397.321 314.574 396.975 312.377C396.629 310.179 394.554 301.123 394.554 301.123C394.554 301.123 393.084 297.255 392.22 294.529C391.355 291.804 388.761 288.639 388.761 288.639C388.761 288.639 384.092 279.144 382.795 277.737C382.194 277.085 381.35 276.262 380.618 275.568C380.486 275.442 380.36 275.323 380.238 275.208C380.433 274.217 380.537 273.21 380.547 272.199C380.547 272.199 375.705 267.275 375.36 266.044C375.014 264.814 370.431 260.242 370.431 260.242C370.431 260.242 367.837 255.319 364.898 255.231C363.509 255.149 362.116 255.193 360.734 255.361C361.338 253.058 362.052 250.646 362.693 248.575C362.764 248.345 362.834 248.12 362.904 247.898C365.253 246.261 367.097 243.963 368.215 241.278C368.277 241.135 368.332 240.991 368.388 240.847C368.419 240.848 368.45 240.853 368.481 240.852C368.603 240.851 368.724 240.84 368.844 240.818C369.812 240.647 370.631 239.521 370.185 238.632C370.214 238.682 370.255 238.724 370.305 238.752C370.355 238.78 370.411 238.794 370.467 238.792C370.79 238.781 371.183 238.3 371.259 237.877C371.272 237.804 371.279 237.729 371.29 237.656C371.304 237.564 371.318 237.472 371.329 237.38C371.339 237.293 371.345 237.206 371.352 237.12C371.36 237.03 371.367 236.94 371.371 236.85C371.375 236.766 371.378 236.682 371.379 236.598C371.381 236.501 371.38 236.404 371.378 236.307C371.377 236.23 371.376 236.152 371.373 236.075C371.367 235.957 371.358 235.84 371.347 235.722C371.343 235.674 371.342 235.625 371.337 235.577L371.336 235.584C371.285 235.104 371.192 234.629 371.057 234.166C370.579 232.532 369.577 230.911 369.963 229.252C369.968 229.235 369.975 229.218 369.98 229.201L369.98 229.204C370.302 227.916 371.383 226.981 372.045 225.831C372.108 225.721 372.163 225.608 372.218 225.494C372.228 225.474 372.24 225.454 372.25 225.433C372.289 225.347 372.323 225.259 372.358 225.172C372.381 225.116 372.405 225.06 372.426 225.004C372.454 224.927 372.477 224.849 372.501 224.771C372.523 224.7 372.547 224.63 372.566 224.558C372.585 224.489 372.6 224.42 372.616 224.35C372.635 224.266 372.654 224.182 372.67 224.097C372.681 224.037 372.69 223.976 372.699 223.914C372.714 223.818 372.727 223.722 372.737 223.626C372.742 223.573 372.746 223.521 372.75 223.468C372.758 223.36 372.764 223.252 372.767 223.144C372.768 223.1 372.768 223.057 372.768 223.014C372.769 222.895 372.766 222.777 372.76 222.658C372.758 222.622 372.756 222.587 372.753 222.551C372.745 222.425 372.732 222.299 372.716 222.174C372.714 222.155 372.713 222.137 372.711 222.119L372.71 222.124C372.563 221.019 372.136 219.974 371.471 219.094C370.714 218.165 369.758 217.431 368.677 216.95C367.597 216.468 366.423 216.253 365.248 216.32C364.598 216.396 363.943 216.408 363.291 216.357C362.205 216.193 361.288 215.483 360.422 214.796C358.008 212.88 355.594 210.964 353.18 209.048C352.373 208.324 351.445 207.756 350.443 207.371C349.419 207.048 348.192 207.159 347.435 207.93C346.079 209.309 346.941 211.681 346.396 213.551C345.925 215.171 344.407 216.268 342.836 216.815C341.264 217.362 339.583 217.482 337.968 217.878C337.488 217.958 337.038 218.171 336.666 218.495C336.248 219.018 336.045 219.689 336.1 220.364C336.09 222.02 336.476 223.653 337.224 225.118C337.529 225.715 337.899 226.318 338.224 226.93C338.251 226.981 338.277 227.031 338.303 227.082C338.339 227.152 338.376 227.222 338.41 227.293C338.467 227.407 338.52 227.522 338.571 227.637C338.593 227.686 338.613 227.736 338.634 227.786C338.668 227.867 338.7 227.949 338.73 228.031C338.75 228.083 338.769 228.135 338.786 228.187C338.819 228.283 338.848 228.38 338.875 228.476C339.047 229.045 339.064 229.652 338.922 230.23C338.673 231.175 337.957 231.903 337.325 232.641C336.81 233.218 336.443 233.918 336.258 234.679L336.255 234.696C336.22 234.872 336.214 235.054 336.236 235.233C336.239 235.255 336.241 235.278 336.246 235.299C336.254 235.339 336.265 235.379 336.278 235.417C336.288 235.445 336.299 235.472 336.312 235.499C336.325 235.53 336.34 235.561 336.357 235.59C336.388 235.639 336.425 235.684 336.466 235.724C336.486 235.74 336.506 235.756 336.527 235.77C336.562 235.797 336.599 235.82 336.638 235.84C336.662 235.852 336.686 235.864 336.712 235.874C336.769 235.896 336.829 235.913 336.889 235.924C336.906 235.927 336.92 235.932 336.938 235.935C337.03 235.947 337.123 235.951 337.216 235.947C337.243 235.946 337.272 235.943 337.3 235.941C337.389 235.934 337.478 235.922 337.566 235.906C337.598 235.9 337.63 235.895 337.663 235.888C337.791 235.861 337.925 235.827 338.072 235.78C338.557 235.629 339.03 235.437 339.484 235.205C339.484 235.258 339.48 235.311 339.48 235.365C339.48 235.457 339.48 235.554 339.489 235.646C339.513 237.37 339.829 239.077 340.423 240.689C341.35 243.201 342.905 245.416 344.932 247.109C344.907 247.261 344.879 247.413 344.849 247.566C344.432 249.674 343.561 251.79 343.023 251.626C342.497 251.505 341.959 251.444 341.42 251.445C341.257 251.44 341.099 251.438 340.948 251.437L340.948 251.436C340.46 251.378 339.966 251.378 339.478 251.436C339.26 251.452 339.041 251.42 338.835 251.345C337.438 250.891 335.953 250.805 334.515 251.095C331.525 251.726 326.978 252.882 325.731 254.264C323.829 256.374 321.062 258.396 317.949 267.187C317.949 267.187 316.393 272.55 315.182 273.254C315.449 273.111 315.723 272.984 316.004 272.873C315.843 273.164 315.621 273.414 315.355 273.605C315.794 273.374 316.249 273.179 316.717 273.02C315.772 278.748 317.171 295.133 317.171 295.133C317.171 295.133 316.047 297.958 317.517 299.629C318.39 300.621 318.865 302.169 319.108 303.265C319.04 303.375 318.969 303.488 318.895 303.606V303.608C318.117 304.851 317.076 306.472 316.393 307.365C315.182 308.948 315.528 313.959 315.528 313.959C315.528 313.959 315.269 316.333 314.404 317.212C313.54 318.091 313.713 321.344 313.713 321.344L311.465 329.872C311.465 329.872 309.389 331.806 309.389 332.685C309.389 333.565 307.747 336.026 307.747 336.026C307.747 336.026 305.239 340.246 307.747 339.631C308.661 339.355 309.518 338.911 310.278 338.319L310.277 338.382C310.273 338.537 310.27 338.694 310.268 338.854C310.197 343.45 310.683 349.917 313.972 349.917C319.073 349.917 332.215 356.159 332.215 356.159C334.896 358.269 338.527 357.566 338.527 357.566C338.527 357.566 332.129 364.16 332.302 366.885C332.475 369.61 328.67 374.094 328.67 374.094L316.912 397.744C316.977 399.392 317.261 401.022 317.754 402.591C317.699 402.641 317.641 402.689 317.586 402.741C313.068 406.994 312.675 415.415 312.675 415.415L311.637 419.723L327.373 426.844C327.373 426.844 347.778 427.284 351.323 426.317C354.868 425.35 354.09 421.305 349.421 420.514C344.752 419.723 343.628 417.613 342.072 416.646C341.022 415.993 337.294 411.777 334.98 409.104C334.945 409.063 334.913 409.026 334.878 408.986L335.414 405.92C336.452 405.392 338.008 400.117 338.008 400.117C338.008 400.117 338.008 398.007 339.046 397.392C340.083 396.777 342.245 390.447 342.245 390.447C342.245 390.447 346.914 382.446 346.654 381.391C346.395 380.336 350.026 374.973 350.026 374.973C350.026 374.973 356.165 368.819 355.906 367.72C355.646 366.621 360.834 360.995 360.834 360.995C362.709 359.52 364.271 357.666 365.425 355.547C365.892 355.47 366.394 355.387 366.923 355.296C373.712 354.149 384.993 352.076 386.254 351.499C387.983 350.708 387.637 354.225 386.945 357.214C386.254 360.203 385.735 374.534 386.513 376.38C387.291 378.226 386.945 381.215 386.945 381.215L385.908 397.304L386.6 400.733C386.6 400.733 384.265 402.667 385.216 403.81C386.167 404.953 385.303 409.876 385.303 409.876C385.384 409.845 385.481 409.815 385.59 409.785C385.507 409.978 385.427 410.176 385.356 410.384C384.016 414.321 384.784 420.778 384.784 420.778V425.877C384.784 425.877 408.734 426.317 414.008 426.317C419.282 426.317 426.545 423.679 426.977 421.569C427.409 419.459 420.925 417.701 418.504 417.613ZM350.386 326.088L348.817 326.224C349.337 326.146 349.861 326.1 350.386 326.088ZM359.951 258.605C360.17 257.588 360.437 256.495 360.731 255.373L359.951 258.605ZM362.909 328.553C361.413 329.163 359.748 329.165 358.251 328.559L358.24 328.553C358.24 328.553 358.327 322.399 359.018 319.849C359.71 317.3 360.661 312.64 360.661 312.64C360.661 312.64 361.439 306.222 362.217 303.321C362.996 300.42 366.022 284.243 367.578 283.188C369.134 282.133 369.999 283.979 369.999 283.979C369.999 283.979 370.232 283.975 370.621 283.93C370.694 284.099 370.777 284.278 370.869 284.468C372.714 288.31 378.126 296.2 378.126 296.2C379.732 297.22 381.092 298.603 382.104 300.244C383.573 302.794 384.006 308.772 384.006 308.772C384.006 308.772 387.291 322.047 388.848 323.894C389.626 324.817 389.28 325.367 388.74 325.685C387.638 326.307 386.701 327.199 386.012 328.282C385.79 328.645 385.556 329.042 385.318 329.466C384.723 329.324 384.19 329.177 383.746 329.023C379.51 327.556 365.244 327.498 362.909 328.553Z" fill="url(#paint0_linear)"/>
<path d="M384.217 420.83V425.886C384.217 425.886 407.652 426.322 412.813 426.322C417.974 426.322 425.081 423.706 425.504 421.614C425.927 419.522 419.582 417.778 417.213 417.691C414.844 417.604 414.759 416.645 411.713 414.988C409.994 414.054 407.383 411.339 405.437 409.154C403.937 407.468 402.83 406.096 402.83 406.096C402.83 406.096 390.224 405.834 386.586 407.927C385.748 408.41 385.17 409.355 384.777 410.523C383.466 414.427 384.217 420.83 384.217 420.83Z" fill="#424652"/>
<path opacity="0.1" d="M384.777 410.523C387.42 409.576 402.894 409.208 405.437 409.154C403.936 407.468 402.83 406.096 402.83 406.096C402.83 406.096 390.224 405.834 386.586 407.927C385.748 408.41 385.169 409.355 384.777 410.523Z" fill="black"/>
<path d="M316.787 329.9C316.787 329.9 317.276 330.205 318.154 330.751C318.313 330.848 318.484 330.956 318.667 331.07C319.224 331.417 319.892 331.83 320.655 332.304C331.288 338.907 360.294 356.807 361.881 356.664C362.297 356.628 363.548 356.434 365.274 356.145C365.731 356.068 366.221 355.986 366.739 355.895C373.382 354.758 384.421 352.703 385.655 352.131C387.347 351.346 387.008 354.833 386.332 357.798C385.655 360.762 385.147 374.972 385.909 376.803C386.67 378.634 386.332 381.598 386.332 381.598L385.316 397.552L385.993 400.952C385.993 400.952 383.709 402.87 384.64 404.004C385.57 405.137 384.724 410.019 384.724 410.019C387.431 408.973 405.791 408.624 405.791 408.624C405.791 408.624 405.029 401.65 405.706 399.993C406.383 398.337 405.875 388.485 405.875 388.485C405.875 388.485 406.298 380.988 405.537 379.244C404.775 377.501 405.791 366.341 405.791 366.341C405.791 366.341 406.467 359.716 406.637 346.203C406.806 332.689 399.191 332.254 399.191 332.254C399.191 332.254 398.176 332.172 396.635 332.018C393.619 331.72 388.594 331.15 385.237 330.398C384.549 330.252 383.869 330.066 383.201 329.842C379.056 328.388 365.096 328.33 362.812 329.377C361.349 329.982 359.717 329.983 358.253 329.382L358.243 329.377L356.466 326.412L339.497 327.903L337.698 328.062L320.992 329.53L319.843 329.631L316.787 329.9Z" fill="#E7E7EC"/>
<path opacity="0.1" d="M384.809 343.273C389.738 345.749 394.442 336.972 396.635 332.018C393.62 331.72 388.594 331.15 385.237 330.398C383.029 334.217 380.083 340.9 384.809 343.273Z" fill="black"/>
<path d="M370.003 283.955C370.106 284.555 370.308 285.132 370.6 285.661C372.406 289.47 377.702 297.294 377.702 297.294C379.277 298.31 380.608 299.681 381.594 301.304C383.032 303.833 383.455 309.761 383.455 309.761C383.455 309.761 386.67 322.925 388.193 324.756C388.954 325.671 388.616 326.217 388.088 326.533C387.006 327.152 386.089 328.037 385.418 329.108C383.2 332.784 379.658 340.074 384.64 342.576C391.408 345.976 397.753 328.156 397.753 328.156C397.753 328.156 396.484 315.515 396.146 313.335C395.807 311.156 393.777 302.176 393.777 302.176C393.777 302.176 392.339 298.34 391.493 295.638C390.646 292.935 388.108 289.797 388.108 289.797C388.108 289.797 383.54 280.381 382.271 278.986C381.682 278.339 380.856 277.523 380.14 276.834C379.313 276.038 378.633 275.412 378.633 275.412C378.633 275.412 369.918 281.863 370.003 283.955Z" fill="#EEC5BB"/>
<path d="M312.642 419.783L328.04 426.845C328.04 426.845 348.007 427.281 351.475 426.322C354.944 425.363 354.183 421.353 349.614 420.568C345.045 419.783 343.946 417.691 342.423 416.732C341.396 416.085 337.747 411.904 335.483 409.254C334.394 407.977 333.624 407.055 333.624 407.055C333.624 407.055 330.663 398.947 322.456 400.778C320.958 401.111 319.578 401.86 318.463 402.943C314.041 407.161 313.657 415.511 313.657 415.511L312.642 419.783Z" fill="#424652"/>
<path opacity="0.1" d="M318.667 331.07C319.224 331.417 319.892 331.83 320.655 332.304C331.288 338.907 360.294 356.807 361.881 356.664C362.297 356.628 363.548 356.434 365.274 356.145C365.731 356.068 366.221 355.986 366.739 355.895C366.759 355.862 366.778 355.829 366.797 355.796C367.649 354.263 368.3 352.62 368.734 350.91C370.511 343.936 361.712 338.618 361.712 338.618L359.851 337.127C357.735 333.457 342.507 329.987 342.507 329.987L340.544 328.629L339.496 327.903L339.221 327.713L336.838 326.064L324.909 326.936L321.366 329.282L320.992 329.53L319.677 330.402L318.667 331.07Z" fill="black"/>
<path opacity="0.1" d="M318.462 402.943C321.701 414.486 335.231 410.716 335.231 410.716L335.483 409.254C334.393 407.977 333.624 407.055 333.624 407.055C333.624 407.055 330.662 398.947 322.456 400.778C320.958 401.111 319.577 401.86 318.462 402.943Z" fill="black"/>
<path d="M314.926 350.562C319.918 350.562 332.777 356.751 332.777 356.751C335.4 358.844 338.954 358.146 338.954 358.146C338.954 358.146 332.693 364.685 332.862 367.388C333.031 370.09 329.309 374.536 329.309 374.536L317.803 397.988C318.649 414.64 335.231 410.019 335.231 410.019L335.908 406.096C336.923 405.573 338.446 400.342 338.446 400.342C338.446 400.342 338.446 398.25 339.461 397.639C340.476 397.029 342.591 390.752 342.591 390.752C342.591 390.752 347.16 382.819 346.906 381.772C346.652 380.726 350.206 375.408 350.206 375.408C350.206 375.408 356.213 369.306 355.959 368.216C355.705 367.126 360.781 361.546 360.781 361.546C362.62 360.08 364.149 358.242 365.274 356.145C366.126 354.611 366.777 352.968 367.211 351.259C368.643 345.643 363.215 341.099 361.047 339.545C360.523 339.169 360.189 338.967 360.189 338.967L358.328 337.476C357.367 335.805 353.692 334.179 349.971 332.9C347.287 331.978 344.578 331.237 342.847 330.792C341.701 330.5 340.984 330.336 340.984 330.336L339.021 328.977L338.331 328.5L337.698 328.062L335.316 326.412L330.008 326.8L323.386 327.284L319.843 329.631L318.155 330.751L311.542 335.131C311.542 335.131 311.368 336.808 311.312 339.059C311.308 339.233 311.305 339.409 311.302 339.591C311.232 344.149 311.708 350.562 314.926 350.562Z" fill="#E7E7EC"/>
<path d="M340.392 252.919L342.168 259.458C342.168 259.458 345.299 270.704 345.637 271.489C345.975 272.273 354.182 280.207 354.52 280.381C354.859 280.555 359.328 283.171 359.328 283.171C359.328 283.171 359.681 268.786 359.343 264.601C359.314 263.682 359.387 262.762 359.563 261.86C360.103 258.581 361.468 253.772 362.6 250.068C363.548 246.965 364.334 244.637 364.334 244.637C364.334 244.637 344.537 243.765 345.214 245.77C345.47 246.529 345.387 247.796 345.14 249.067C344.732 251.158 343.879 253.256 343.353 253.093C342.838 252.974 342.312 252.913 341.784 252.914C341.053 252.891 340.392 252.919 340.392 252.919Z" fill="#EEC5BB"/>
<path opacity="0.1" d="M345.14 249.067C347.558 251.148 350.563 252.368 353.709 252.549C356.855 252.729 359.973 251.859 362.6 250.068C363.548 246.965 364.335 244.637 364.335 244.637C364.335 244.637 344.537 243.765 345.214 245.77C345.47 246.529 345.387 247.796 345.14 249.067Z" fill="black"/>
<path d="M369.159 236.968C369.16 238.568 368.913 240.157 368.427 241.677C368.305 242.069 368.164 242.454 368.004 242.832C366.864 245.613 364.941 247.978 362.482 249.621C360.024 251.263 357.143 252.108 354.214 252.045C351.285 251.982 348.441 251.015 346.051 249.268C343.661 247.521 341.835 245.076 340.809 242.248C340.227 240.647 339.918 238.956 339.895 237.247C339.886 237.156 339.886 237.06 339.886 236.968C339.886 232.968 341.428 229.132 344.173 226.304C346.918 223.475 350.641 221.886 354.523 221.886C358.404 221.886 362.127 223.475 364.872 226.304C367.617 229.132 369.159 232.968 369.159 236.968H369.159Z" fill="#EEC5BB"/>
<path opacity="0.1" d="M340.392 252.919L342.168 259.458C342.168 259.458 345.299 270.704 345.637 271.489C345.975 272.273 354.182 280.207 354.52 280.381C354.859 280.555 359.328 283.171 359.328 283.171C359.328 283.171 359.681 268.786 359.343 264.601C359.314 263.682 359.387 262.762 359.563 261.86L358.412 266.694L358.497 276.371L359.174 276.894L357.651 279.248V277.504C357.651 277.504 352.236 272.099 351.39 269.832C350.544 267.565 347.498 263.461 347.498 263.461C347.498 263.461 344.03 257.452 343.945 256.406C343.879 255.59 342.422 253.704 341.784 252.914C341.053 252.891 340.392 252.919 340.392 252.919Z" fill="black"/>
<path opacity="0.1" d="M370.003 283.955C370.106 284.555 370.308 285.132 370.6 285.661C372.45 285.465 378.753 284.254 380.14 276.834C379.313 276.038 378.633 275.412 378.633 275.412C378.633 275.412 369.918 281.863 370.003 283.955Z" fill="black"/>
<path opacity="0.1" d="M311.301 339.591C313.009 338.346 314.633 336.648 315.603 336.177C317.041 335.479 319.241 333.213 319.241 333.213C319.241 333.213 319.799 332.822 320.655 332.304C322.225 331.356 324.799 329.982 326.77 329.813C328.537 329.661 334.405 329.274 339.021 328.977C342.361 328.761 345.045 328.592 345.045 328.592C345.045 328.592 350.544 326.587 352.913 327.895C354.61 328.77 356.398 329.443 358.243 329.9C358.243 329.9 358.245 329.71 358.253 329.382L358.243 329.377L356.466 326.412L337.698 328.062L335.315 326.412L323.386 327.284L319.843 329.631L316.787 329.9C316.787 329.9 317.276 330.205 318.154 330.751L311.542 335.131C311.542 335.131 311.338 337.078 311.301 339.591Z" fill="black"/>
<path d="M308.835 340.361C309.73 340.087 310.57 339.646 311.312 339.061V339.059C313.016 337.816 314.635 336.123 315.603 335.654C317.041 334.956 319.241 332.69 319.241 332.69C319.241 332.69 323.725 329.551 326.771 329.289C327.601 329.218 329.338 329.094 331.424 328.955C333.559 328.808 336.058 328.644 338.331 328.5C339.641 328.414 340.874 328.334 341.916 328.268C343.785 328.149 345.045 328.069 345.045 328.069C345.045 328.069 350.544 326.064 352.913 327.371C354.61 328.247 356.398 328.92 358.243 329.377C358.243 329.377 358.328 323.274 359.005 320.746C359.682 318.217 360.612 313.597 360.612 313.597C360.612 313.597 361.374 307.233 362.135 304.356C362.897 301.479 365.858 285.437 367.381 284.391C368.903 283.345 369.749 285.176 369.749 285.176C369.749 285.176 379.902 285.002 380.071 273.494C380.071 273.494 375.333 268.612 374.995 267.391C374.656 266.17 370.172 261.637 370.172 261.637C370.172 261.637 367.634 256.755 364.758 256.668C363.399 256.587 362.035 256.63 360.683 256.797L358.243 267.042L358.328 276.719L359.005 277.242L357.482 279.596V277.853C357.482 277.853 352.067 272.447 351.221 270.181C350.375 267.914 347.329 263.81 347.329 263.81C347.329 263.81 343.861 257.801 343.776 256.755C343.691 255.709 341.323 252.905 341.323 252.905C340.845 252.847 340.362 252.847 339.884 252.905C339.671 252.92 339.456 252.889 339.255 252.814C337.889 252.365 336.435 252.279 335.028 252.567C332.102 253.193 327.652 254.338 326.432 255.709C324.571 257.801 321.864 259.806 318.818 268.524L335.231 274.627L333.827 277.378L320.764 302.961C320.764 302.961 320.331 303.688 319.743 304.638V304.64C318.982 305.873 317.963 307.48 317.295 308.366C316.111 309.935 316.449 314.905 316.449 314.905C316.449 314.905 316.195 317.258 315.349 318.13C314.503 319.002 314.672 322.228 314.672 322.228L312.473 330.684C312.473 330.684 310.442 332.602 310.442 333.474C310.442 334.346 308.835 336.787 308.835 336.787C308.835 336.787 306.381 340.972 308.835 340.361Z" fill="#424652"/>
<path opacity="0.1" d="M395.469 346.638C395.469 346.638 390.139 348.469 388.701 351.085C387.263 353.7 395.469 346.638 395.469 346.638Z" fill="black"/>
<path opacity="0.1" d="M392.761 340.885C392.592 341.146 385.461 348.52 385.908 350.3C386.356 352.081 392.761 340.885 392.761 340.885Z" fill="black"/>
<path opacity="0.1" d="M353.59 346.115C353.59 346.115 345.637 349.98 344.96 351.666C344.284 353.351 353.59 346.115 353.59 346.115Z" fill="black"/>
<path opacity="0.1" d="M353.082 351.085C353.082 351.085 345.905 354.223 344.925 355.008C343.945 355.792 353.082 351.085 353.082 351.085Z" fill="black"/>
<path opacity="0.1" d="M349.783 357.798C349.783 357.798 346.604 360.239 344.852 358.321C343.099 356.403 349.783 357.798 349.783 357.798Z" fill="black"/>
<path opacity="0.1" d="M361.713 294.156C361.543 294.417 350.967 314.033 348.175 315.515C345.383 316.997 361.713 294.156 361.713 294.156Z" fill="black"/>
<path opacity="0.1" d="M361.204 301.566C361.204 302.002 350.883 324.756 349.191 325.018C347.499 325.279 361.204 301.566 361.204 301.566Z" fill="black"/>
<path opacity="0.1" d="M321.948 316.212C321.948 316.212 316.963 327.182 315.01 327.807C313.058 328.433 321.948 316.212 321.948 316.212Z" fill="black"/>
<path opacity="0.1" d="M321.102 311.33C321.102 311.33 319.383 315.166 318.339 315.166C317.295 315.166 321.102 311.33 321.102 311.33Z" fill="black"/>
<path opacity="0.1" d="M369.159 236.968C369.16 238.568 368.913 240.157 368.427 241.677C368.305 242.069 368.164 242.454 368.004 242.832C367.252 242.715 366.544 242.394 365.952 241.903C365.324 241.465 364.799 240.887 364.416 240.212C364.128 239.493 363.878 238.758 363.667 238.01C363.33 237.167 362.78 236.431 362.074 235.88C361.368 235.329 360.532 234.982 359.652 234.876C360.139 235.73 359.365 236.903 358.413 237.055C357.461 237.204 356.534 236.619 355.879 235.891C355.223 235.163 354.749 234.278 354.097 233.55C353.442 232.822 352.515 232.238 351.563 232.386C350.721 232.517 350.07 233.18 349.363 233.672C348.661 234.165 347.675 234.496 346.994 233.969C346.613 233.677 346.427 233.18 346.063 232.861C345.128 232.055 343.673 232.888 342.983 233.93C341.921 235.543 341.274 236.519 339.895 237.247C339.886 237.156 339.886 237.06 339.886 236.968C339.886 232.968 341.428 229.132 344.173 226.304C346.918 223.475 350.641 221.886 354.523 221.886C358.404 221.886 362.127 223.475 364.872 226.304C367.617 229.132 369.159 232.968 369.159 236.968Z" fill="black"/>
<path d="M342.985 233.493C343.673 232.451 345.127 231.617 346.065 232.428C346.429 232.742 346.615 233.24 346.994 233.534C347.674 234.062 348.661 233.731 349.364 233.236C350.068 232.742 350.721 232.082 351.563 231.95C352.515 231.801 353.443 232.386 354.097 233.115C354.75 233.843 355.224 234.727 355.878 235.456C356.532 236.184 357.461 236.768 358.413 236.618C359.365 236.468 360.141 235.294 359.651 234.44C360.531 234.546 361.366 234.893 362.072 235.444C362.778 235.995 363.328 236.731 363.665 237.574C363.876 238.321 364.126 239.056 364.415 239.775C364.798 240.45 365.324 241.028 365.953 241.465C366.729 242.052 367.67 242.546 368.618 242.376C369.566 242.206 370.369 241.086 369.928 240.204C370.231 240.679 370.882 240.018 370.98 239.459C371.195 238.234 371.128 236.974 370.785 235.78C370.317 234.159 369.337 232.552 369.715 230.907C370.014 229.605 371.094 228.669 371.75 227.514C372.912 225.466 372.604 222.706 371.19 220.833C370.455 219.915 369.521 219.188 368.463 218.71C367.405 218.232 366.253 218.018 365.1 218.083C364.465 218.158 363.823 218.17 363.185 218.12C362.123 217.957 361.225 217.252 360.379 216.572L353.292 210.871C352.504 210.155 351.596 209.592 350.613 209.208C349.612 208.888 348.411 208.999 347.67 209.763C346.343 211.13 347.187 213.483 346.654 215.337C346.193 216.943 344.707 218.031 343.17 218.574C341.632 219.116 339.987 219.235 338.407 219.628C337.936 219.708 337.495 219.919 337.132 220.239C336.723 220.76 336.524 221.425 336.579 222.093C336.569 223.733 336.946 225.351 337.679 226.807C338.499 228.434 339.8 230.105 339.34 231.876C339.096 232.813 338.395 233.535 337.778 234.267C336.439 235.854 335.987 238.199 338.506 237.38C340.934 236.591 341.615 235.568 342.985 233.493Z" fill="#424652"/>
<g opacity="0.1">
<path opacity="0.1" d="M370.982 237.741C370.883 238.299 370.233 238.96 369.93 238.486C370.371 239.368 369.568 240.487 368.619 240.657C367.671 240.827 366.73 240.333 365.954 239.746C365.325 239.309 364.8 238.731 364.416 238.056C364.127 237.337 363.877 236.603 363.667 235.855C363.329 235.012 362.779 234.277 362.073 233.726C361.368 233.174 360.532 232.828 359.653 232.721C360.142 233.576 359.366 234.749 358.414 234.9C357.462 235.05 356.534 234.465 355.88 233.737C355.226 233.008 354.752 232.124 354.098 231.396C353.444 230.667 352.516 230.082 351.564 230.232C350.722 230.364 350.069 231.023 349.366 231.518C348.662 232.012 347.675 232.343 346.995 231.815C346.616 231.521 346.43 231.023 346.066 230.709C345.129 229.898 343.674 230.732 342.986 231.775C341.616 233.85 340.935 234.872 338.508 235.661C337.711 235.92 337.213 235.862 336.944 235.612C336.412 236.873 336.654 237.983 338.508 237.38C340.935 236.591 341.616 235.568 342.986 233.493C343.674 232.451 345.129 231.617 346.066 232.428C346.43 232.742 346.616 233.24 346.995 233.534C347.675 234.062 348.662 233.731 349.366 233.237C350.069 232.742 350.722 232.082 351.564 231.95C352.516 231.801 353.444 232.386 354.098 233.115C354.752 233.843 355.226 234.727 355.88 235.456C356.534 236.184 357.462 236.769 358.414 236.618C359.366 236.468 360.142 235.294 359.653 234.44C360.532 234.546 361.368 234.893 362.073 235.444C362.779 235.995 363.329 236.731 363.667 237.574C363.877 238.321 364.127 239.056 364.416 239.775C364.8 240.45 365.325 241.028 365.954 241.465C366.73 242.052 367.671 242.546 368.619 242.376C369.568 242.206 370.371 241.086 369.93 240.204C370.233 240.679 370.883 240.018 370.982 239.459C371.113 238.707 371.139 237.939 371.058 237.179C371.039 237.367 371.015 237.554 370.982 237.741Z" fill="black"/>
<path opacity="0.1" d="M339.319 230.223C339.326 230.201 339.335 230.18 339.341 230.157C339.801 228.387 338.501 226.715 337.68 225.089C337.104 223.942 336.747 222.692 336.628 221.406C336.597 221.634 336.58 221.863 336.58 222.093C336.57 223.733 336.947 225.351 337.68 226.807C338.241 227.919 339.026 229.052 339.319 230.223Z" fill="black"/>
<path opacity="0.1" d="M371.751 225.795C371.095 226.951 370.015 227.886 369.716 229.188C369.6 229.739 369.605 230.31 369.731 230.859C370.045 229.582 371.103 228.655 371.751 227.514C372.361 226.397 372.591 225.101 372.402 223.833C372.31 224.525 372.089 225.191 371.751 225.795Z" fill="black"/>
</g>
<path opacity="0.1" d="M319.743 304.638V304.64C319.856 305.121 319.942 305.608 320.002 306.099C320.002 306.099 326.686 322.228 327.532 323.187C327.792 323.482 328.774 324.932 330.007 326.8C330.454 327.474 330.933 328.205 331.424 328.955C333.982 332.867 336.838 337.31 336.838 337.31L343.099 342.977C343.099 342.977 356.718 344.1 361.047 339.545C360.522 339.169 360.189 338.967 360.189 338.967L358.328 337.476C357.367 335.805 353.691 334.179 349.97 332.901C346.542 332.927 343.739 333.213 343.739 333.213L342.847 330.792L341.916 328.268L337.183 315.428C337.183 315.428 334.131 299.212 333.116 298.427C332.1 297.643 332.354 295.202 332.354 295.202C332.354 295.202 334.215 288.314 333.539 287.355C332.862 286.396 334.639 279.335 334.639 279.335C334.462 278.645 334.188 277.986 333.826 277.378L320.763 302.961C320.763 302.961 320.33 303.688 319.743 304.638Z" fill="black"/>
<path d="M334.808 278.812C334.808 278.812 333.032 285.873 333.708 286.832C334.385 287.791 332.524 294.679 332.524 294.679C332.524 294.679 332.27 297.12 333.285 297.904C334.301 298.689 337.353 314.905 337.353 314.905L343.908 332.69C343.908 332.69 364.42 330.597 362.304 337.223C360.189 343.849 343.269 342.454 343.269 342.454L337.008 336.787C337.008 336.787 328.548 323.623 327.701 322.664C326.855 321.705 320.172 305.576 320.172 305.576C320.172 305.576 319.833 302.351 318.395 300.694C316.957 299.038 318.057 296.236 318.057 296.236C318.057 296.236 316.28 275.15 318.141 272.622C320.003 270.094 332.862 271.227 334.808 278.812Z" fill="#EEC5BB"/>
<path opacity="0.1" d="M324.317 265.56L318.987 268.873C318.987 268.873 317.464 274.191 316.28 274.889C316.28 274.889 326.94 268.786 334.977 282.822C334.977 282.822 334.723 280.991 335.823 280.119C336.923 279.248 336.669 275.499 336.669 275.499C336.962 274.907 337.216 274.295 337.431 273.668C338.192 271.75 334.216 260.765 324.317 265.56Z" fill="black"/>
<path d="M324.148 265.212L318.818 268.524C318.818 268.524 317.295 273.842 316.111 274.54C316.111 274.54 326.771 268.437 334.808 282.473C334.808 282.473 334.554 280.643 335.654 279.771C336.754 278.899 336.5 275.15 336.5 275.15C336.793 274.558 337.047 273.946 337.262 273.319C338.023 271.401 334.047 260.417 324.148 265.212Z" fill="#424652"/>
<path d="M276.641 417.889C285.416 417.889 292.53 410.107 292.53 400.509C292.53 390.91 285.416 383.129 276.641 383.129C267.865 383.129 260.751 390.91 260.751 400.509C260.751 410.107 267.865 417.889 276.641 417.889Z" fill="#FBD56F"/>
<path opacity="0.1" d="M276.641 417.889C285.416 417.889 292.53 410.107 292.53 400.509C292.53 390.91 285.416 383.129 276.641 383.129C267.865 383.129 260.751 390.91 260.751 400.509C260.751 410.107 267.865 417.889 276.641 417.889Z" fill="black"/>
<path d="M279.383 417.888C288.159 417.888 295.273 410.281 295.273 400.896C295.273 391.511 288.159 383.903 279.383 383.903C270.608 383.903 263.494 391.511 263.494 400.896C263.494 410.281 270.608 417.888 279.383 417.888Z" fill="#FBD56F"/>
<path d="M49.1374 410.06C59.9758 410.06 68.7621 408.529 68.7621 406.641C68.7621 404.753 59.9758 403.222 49.1374 403.222C38.299 403.222 29.5127 404.753 29.5127 406.641C29.5127 408.529 38.299 410.06 49.1374 410.06Z" fill="#39743C"/>
<path d="M57.2525 401.048C58.0929 400.244 58.8813 399.294 59.1235 398.139C59.3657 396.983 58.8877 395.597 57.8161 395.175C56.6153 394.702 55.3322 395.56 54.3594 396.426C53.3866 397.292 52.2717 398.28 50.9985 398.097C51.6534 397.485 52.1434 396.709 52.4207 395.844C52.698 394.98 52.7532 394.055 52.5809 393.162C52.525 392.793 52.3729 392.447 52.1408 392.16C51.4743 391.426 50.2659 391.741 49.4678 392.32C46.9297 394.159 46.2215 397.712 46.2077 400.909C45.9517 399.756 46.1673 398.554 46.161 397.371C46.1547 396.188 45.84 394.876 44.8714 394.241C44.2681 393.906 43.5895 393.742 42.9046 393.764C41.7637 393.721 40.493 393.839 39.7139 394.699C38.7457 395.767 38.9968 397.56 39.8391 398.736C40.6813 399.912 41.9624 400.649 43.1416 401.462C44.0875 402.042 44.8942 402.835 45.5017 403.782C45.5731 403.913 45.6317 404.052 45.6767 404.196H52.8292C54.4348 403.357 55.9228 402.298 57.2525 401.048Z" fill="#39743C"/>
<path d="M226.609 384.349C227.483 385.582 228.198 386.928 228.736 388.351C228.878 388.719 229.017 389.106 229.149 389.512C231.263 396.023 227.913 403.831 226.955 402.989C225.998 402.146 223.013 400.584 222.436 402.78C221.859 404.976 219.727 407.22 219.727 407.22C215.843 411.246 212.328 406.896 210.02 402.403C209.266 400.92 208.596 399.394 208.012 397.831C207.5 396.451 207.206 395.497 207.206 395.497L223.383 381.294C223.383 381.294 224.947 382.034 226.609 384.349Z" fill="#6C63FF"/>
<path d="M201.112 393.431C201.987 394.665 202.702 396.01 203.24 397.433C203.382 397.801 203.521 398.188 203.652 398.594C205.767 405.105 202.417 412.913 201.459 412.071C200.501 411.229 197.516 409.666 196.939 411.862C196.362 414.058 194.23 416.302 194.23 416.302C190.347 420.328 186.831 415.978 184.523 411.485C183.769 410.002 183.099 408.476 182.516 406.913C182.003 405.533 181.709 404.58 181.709 404.58L197.886 390.376C197.886 390.376 199.45 391.116 201.112 393.431Z" fill="#6C63FF"/>
<path d="M149.919 405.978C149.828 407.502 149.546 409.008 149.078 410.458C148.959 410.835 148.827 411.224 148.677 411.623C146.272 418.026 138.857 421.834 138.642 420.556C138.426 419.278 137.096 416.112 135.292 417.423C133.487 418.734 130.456 419.06 130.456 419.06C124.973 419.605 124.96 413.945 125.967 408.967C126.304 407.33 126.733 405.714 127.252 404.128C127.712 402.728 128.076 401.8 128.076 401.8L149.327 401.504C149.327 401.504 150.073 403.102 149.919 405.978Z" fill="#6C63FF"/>
<path d="M122.462 398.842C122.371 400.367 122.088 401.873 121.62 403.322C121.502 403.699 121.37 404.088 121.22 404.487C118.815 410.89 111.4 414.698 111.184 413.42C110.968 412.142 109.639 408.976 107.834 410.287C106.03 411.598 102.999 411.924 102.999 411.924C97.5154 412.469 97.5025 406.809 98.509 401.832C98.8468 400.194 99.276 398.578 99.7944 396.992C100.255 395.593 100.619 394.665 100.619 394.665L121.87 394.369C121.87 394.369 122.615 395.967 122.462 398.842Z" fill="#6C63FF"/>
<path d="M226.609 384.349C227.483 385.582 228.198 386.928 228.736 388.351C228.878 388.719 229.017 389.106 229.149 389.512C231.263 396.023 227.913 403.831 226.955 402.989C225.998 402.146 223.013 400.584 222.436 402.78C221.859 404.976 219.727 407.22 219.727 407.22C215.843 411.246 212.328 406.896 210.02 402.403C209.266 400.92 208.596 399.394 208.012 397.831C207.5 396.451 207.206 395.497 207.206 395.497L223.383 381.294C223.383 381.294 224.947 382.034 226.609 384.349Z" fill="#39743C"/>
<path d="M201.112 393.431C201.987 394.665 202.702 396.01 203.24 397.433C203.382 397.801 203.521 398.188 203.652 398.594C205.767 405.105 202.417 412.913 201.459 412.071C200.501 411.229 197.516 409.666 196.939 411.862C196.362 414.058 194.23 416.302 194.23 416.302C190.347 420.328 186.831 415.978 184.523 411.485C183.769 410.002 183.099 408.476 182.516 406.913C182.003 405.533 181.709 404.58 181.709 404.58L197.886 390.376C197.886 390.376 199.45 391.116 201.112 393.431Z" fill="#39743C"/>
<path d="M149.919 405.978C149.828 407.502 149.546 409.008 149.078 410.458C148.959 410.835 148.827 411.224 148.677 411.623C146.272 418.026 138.857 421.834 138.642 420.556C138.426 419.278 137.096 416.112 135.292 417.423C133.487 418.734 130.456 419.06 130.456 419.06C124.973 419.605 124.96 413.945 125.967 408.967C126.304 407.33 126.733 405.714 127.252 404.128C127.712 402.728 128.076 401.8 128.076 401.8L149.327 401.504C149.327 401.504 150.073 403.102 149.919 405.978Z" fill="#39743C"/>
<path d="M122.462 398.842C122.371 400.367 122.088 401.873 121.62 403.322C121.502 403.699 121.37 404.088 121.22 404.487C118.815 410.89 111.4 414.698 111.184 413.42C110.968 412.142 109.639 408.976 107.834 410.287C106.03 411.598 102.999 411.924 102.999 411.924C97.5154 412.469 97.5025 406.809 98.509 401.832C98.8468 400.194 99.276 398.578 99.7944 396.992C100.255 395.593 100.619 394.665 100.619 394.665L121.87 394.369C121.87 394.369 122.615 395.967 122.462 398.842Z" fill="#39743C"/>
<path d="M269.761 302.872C269.761 361.36 250.56 408.774 161.952 408.774C102.411 408.774 56.3469 393.529 54.1435 302.872C52.7224 244.402 102.411 196.969 161.952 196.969C221.493 196.969 269.761 244.383 269.761 302.872Z" fill="#4DC252"/>
<path opacity="0.2" d="M141.729 198.818H141.742C141.739 198.82 141.736 198.821 141.732 198.821L141.729 198.818Z" fill="black"/>
<path opacity="0.2" d="M141.939 198.782C142.213 198.737 142.754 198.659 143.541 198.597L141.788 198.812C141.813 198.805 141.845 198.799 141.883 198.792C141.901 198.789 141.917 198.786 141.939 198.782Z" fill="black"/>
<path d="M221.601 242.055L213.732 244.974C209.72 239.43 205.404 234.128 200.804 229.093C195.783 223.575 190.306 218.519 184.433 213.982C164.284 198.594 148.7 198.202 143.554 198.597L155.383 197.164C166.563 199.146 177.314 203.151 187.14 208.993C194.014 213.076 200.416 217.95 206.224 223.521C216.524 233.372 221.601 242.055 221.601 242.055Z" fill="#39743C"/>
<path d="M150.463 247.569C150.463 247.569 140.076 211.89 148.889 202.159C148.889 202.159 162.739 197.294 173.126 224.864L150.463 247.569Z" fill="#39743C"/>
<path d="M203.061 214.244C203.061 214.244 230.607 190.123 242.794 194.537C242.794 194.537 252.676 205.657 232.337 226.524L203.061 214.244Z" fill="#6C63FF"/>
<path d="M203.061 214.244C203.061 214.244 230.607 190.123 242.794 194.537C242.794 194.537 252.676 205.657 232.337 226.524L203.061 214.244Z" fill="#39743C"/>
<path d="M288.961 329.793C288.961 361.232 267.068 386.069 246.467 386.069C225.867 386.069 214.361 361.232 214.361 329.793C214.361 298.355 231.095 274.097 251.661 272.869C284.24 270.923 288.961 298.355 288.961 329.793Z" fill="#6C63FF"/>
<path d="M288.961 329.793C288.961 361.232 267.068 386.069 246.467 386.069C225.867 386.069 214.361 361.232 214.361 329.793C214.361 298.355 231.095 274.097 251.661 272.869C284.24 270.923 288.961 298.355 288.961 329.793Z" fill="#39743C"/>
<path d="M245.209 343.578C249.033 343.578 252.134 339.512 252.134 334.496C252.134 329.481 249.033 325.414 245.209 325.414C241.384 325.414 238.284 329.481 238.284 334.496C238.284 339.512 241.384 343.578 245.209 343.578Z" fill="#4DC252"/>
<path d="M269.761 335.794C273.585 335.794 276.686 331.728 276.686 326.712C276.686 321.696 273.585 317.63 269.761 317.63C265.936 317.63 262.836 321.696 262.836 326.712C262.836 331.728 265.936 335.794 269.761 335.794Z" fill="#4DC252"/>
<path d="M207.569 217.663C207.573 219.697 207.113 221.704 206.225 223.521C205.052 225.935 203.15 227.891 200.804 229.093C195.784 223.576 190.306 218.519 184.433 213.982C184.956 212.129 185.882 210.423 187.14 208.993C188.225 207.747 189.551 206.749 191.034 206.065C192.516 205.381 194.121 205.024 195.746 205.02C202.274 205.02 207.569 210.68 207.569 217.663Z" fill="#FAD46F"/>
<defs>
<linearGradient id="paint0_linear" x1="366.815" y1="426.944" x2="366.815" y2="207.201" gradientUnits="userSpaceOnUse">
<stop stop-color="#808080" stop-opacity="0.25"/>
<stop offset="0.53514" stop-color="#808080" stop-opacity="0.12"/>
<stop offset="1" stop-color="#808080" stop-opacity="0.1"/>
</linearGradient>
</defs>
</svg>
