<svg width="24" height="24" viewBox="0 0 24 24" fill="none" xmlns="http://www.w3.org/2000/svg">
<mask id="mask0" mask-type="alpha" maskUnits="userSpaceOnUse" x="4" y="4" width="16" height="16">
<path d="M11.9997 9.66658H16.6663C16.8432 9.66658 17.0127 9.59635 17.1377 9.47132C17.2628 9.3463 17.333 9.17673 17.333 8.99992C17.333 8.82311 17.2628 8.65354 17.1377 8.52851C17.0127 8.40349 16.8432 8.33325 16.6663 8.33325H11.9997C11.8229 8.33325 11.6533 8.40349 11.5283 8.52851C11.4032 8.65354 11.333 8.82311 11.333 8.99992C11.333 9.17673 11.4032 9.3463 11.5283 9.47132C11.6533 9.59635 11.8229 9.66658 11.9997 9.66658Z" fill="#111111"/>
<path d="M20 6.94333C20.0001 6.76814 19.9656 6.59465 19.8985 6.43279C19.8315 6.27093 19.7332 6.12386 19.6093 6L18 4.39C17.7499 4.14018 17.4108 3.9999 17.0573 4H9.33334C8.97972 4 8.64058 4.14048 8.39053 4.39052C8.14048 4.64057 8.00001 4.97971 8.00001 5.33333V10.1833C7.99964 10.2267 8.01636 10.2685 8.04654 10.2997C8.07672 10.3309 8.11796 10.349 8.16134 10.35C8.49193 10.3556 8.82218 10.3741 9.15134 10.4053C9.17445 10.4079 9.19784 10.4055 9.21996 10.3983C9.24208 10.3911 9.26242 10.3794 9.27963 10.3637C9.29684 10.3481 9.31053 10.329 9.31979 10.3076C9.32905 10.2863 9.33367 10.2633 9.33334 10.24V5.66667C9.33334 5.57826 9.36846 5.49348 9.43097 5.43096C9.49348 5.36845 9.57827 5.33333 9.66667 5.33333H16.9193C17.0076 5.33335 17.0922 5.36835 17.1547 5.43067L18.5693 6.84533C18.6317 6.9078 18.6667 6.99243 18.6667 7.08067V16C18.6667 16.0884 18.6316 16.1732 18.569 16.2357C18.5065 16.2982 18.4217 16.3333 18.3333 16.3333H13.7613C13.7222 16.3336 13.6845 16.3478 13.655 16.3735C13.6255 16.3992 13.6063 16.4346 13.6007 16.4733C13.5506 16.8043 13.4694 17.1297 13.358 17.4453C13.3486 17.47 13.3453 17.4965 13.3485 17.5227C13.3516 17.5489 13.3611 17.5739 13.376 17.5956C13.391 17.6173 13.411 17.6351 13.4343 17.6473C13.4577 17.6596 13.4836 17.666 13.51 17.666H18.6667C19.0203 17.666 19.3594 17.5255 19.6095 17.2755C19.8595 17.0254 20 16.6863 20 16.3327V6.94333Z" fill="#111111"/>
<path d="M15.6665 11.9999C15.6665 11.8231 15.5963 11.6535 15.4713 11.5285C15.3462 11.4035 15.1767 11.3333 14.9999 11.3333H12.3332C12.2488 11.3336 12.1653 11.3508 12.0876 11.3838C12.0099 11.4168 11.9395 11.4648 11.8805 11.5253C11.8688 11.5363 11.8596 11.5497 11.8534 11.5646C11.8473 11.5795 11.8443 11.5955 11.8448 11.6116C11.8452 11.6277 11.849 11.6436 11.856 11.6581C11.863 11.6726 11.8729 11.6855 11.8852 11.6959C12.1872 11.9653 12.4578 12.2679 12.6919 12.5979C12.707 12.619 12.7271 12.6361 12.7503 12.6477C12.7735 12.6593 12.7992 12.6651 12.8252 12.6646H14.9999C15.1763 12.6646 15.3456 12.5946 15.4706 12.47C15.5955 12.3454 15.666 12.1764 15.6665 11.9999Z" fill="#111111"/>
<path d="M8.33333 11.3333C7.47628 11.3333 6.63848 11.5874 5.92586 12.0636C5.21325 12.5397 4.65784 13.2165 4.32986 14.0083C4.00188 14.8001 3.91606 15.6714 4.08327 16.512C4.25047 17.3526 4.66318 18.1247 5.26921 18.7307C5.87523 19.3367 6.64736 19.7494 7.48794 19.9167C8.32853 20.0839 9.19982 19.998 9.99163 19.6701C10.7834 19.3421 11.4602 18.7867 11.9364 18.0741C12.4125 17.3614 12.6667 16.5236 12.6667 15.6666C12.6653 14.5177 12.2083 13.4164 11.3959 12.604C10.5836 11.7917 9.48217 11.3347 8.33333 11.3333ZM9.92733 15.1253C9.96651 15.1743 9.99103 15.2334 9.99808 15.2958C10.0051 15.3582 9.99443 15.4213 9.96719 15.4779C9.93995 15.5344 9.89729 15.5822 9.84413 15.6155C9.79096 15.6489 9.72945 15.6666 9.66667 15.6666H9.16667C9.12247 15.6666 9.08007 15.6841 9.04882 15.7154C9.01756 15.7467 9 15.789 9 15.8333V17.6666C9 17.8434 8.92976 18.013 8.80474 18.138C8.67972 18.263 8.51015 18.3332 8.33333 18.3332C8.15652 18.3332 7.98695 18.263 7.86193 18.138C7.73691 18.013 7.66667 17.8434 7.66667 17.6666V15.8333C7.66667 15.789 7.64911 15.7467 7.61785 15.7154C7.5866 15.6841 7.5442 15.6666 7.5 15.6666H7C6.93722 15.6666 6.87571 15.6489 6.82254 15.6155C6.76938 15.5822 6.72672 15.5344 6.69948 15.4779C6.67224 15.4213 6.66153 15.3582 6.66859 15.2958C6.67564 15.2334 6.70016 15.1743 6.73934 15.1253L8.07267 13.4586C8.10502 13.4212 8.14505 13.3912 8.19003 13.3706C8.235 13.3501 8.28388 13.3394 8.33333 13.3394C8.38279 13.3394 8.43167 13.3501 8.47664 13.3706C8.52162 13.3912 8.56165 13.4212 8.594 13.4586L9.92733 15.1253Z" fill="#111111"/>
</mask>
<g mask="url(#mask0)">
<rect width="24" height="24" fill="#4D83C2"/>
</g>
</svg>
