<svg width="24" height="25" viewBox="0 0 24 25" fill="none" xmlns="http://www.w3.org/2000/svg">
<mask id="mask0" mask-type="alpha" maskUnits="userSpaceOnUse" x="4" y="4" width="16" height="17">
<path d="M11.9997 10.6267H16.6663C16.8432 10.6267 17.0127 10.5564 17.1377 10.4314C17.2628 10.3064 17.333 10.1368 17.333 9.96C17.333 9.78319 17.2628 9.61362 17.1377 9.4886C17.0127 9.36357 16.8432 9.29333 16.6663 9.29333H11.9997C11.8229 9.29333 11.6533 9.36357 11.5283 9.4886C11.4032 9.61362 11.333 9.78319 11.333 9.96C11.333 10.1368 11.4032 10.3064 11.5283 10.4314C11.6533 10.5564 11.8229 10.6267 11.9997 10.6267Z" fill="#111111"/>
<path d="M20 7.90329C20.0001 7.7281 19.9656 7.55461 19.8985 7.39275C19.8315 7.23089 19.7332 7.08382 19.6093 6.95996L18 5.34996C17.7499 5.10014 17.4108 4.95986 17.0573 4.95996H9.33334C8.97972 4.95996 8.64058 5.10044 8.39053 5.35049C8.14048 5.60053 8.00001 5.93967 8.00001 6.29329V11.1433C7.99964 11.1867 8.01636 11.2285 8.04654 11.2597C8.07672 11.2908 8.11796 11.3089 8.16134 11.31C8.49193 11.3156 8.82218 11.3341 9.15134 11.3653C9.17445 11.3678 9.19784 11.3655 9.21996 11.3583C9.24208 11.3511 9.26242 11.3393 9.27963 11.3237C9.29684 11.308 9.31053 11.2889 9.31979 11.2676C9.32905 11.2463 9.33367 11.2232 9.33334 11.2V6.62663C9.33334 6.53822 9.36846 6.45344 9.43097 6.39093C9.49348 6.32841 9.57827 6.29329 9.66667 6.29329H16.9193C17.0076 6.29331 17.0922 6.32831 17.1547 6.39063L18.5693 7.80529C18.6317 7.86776 18.6667 7.95239 18.6667 8.04063V16.96C18.6667 17.0484 18.6316 17.1332 18.569 17.1957C18.5065 17.2582 18.4217 17.2933 18.3333 17.2933H13.7613C13.7222 17.2935 13.6845 17.3078 13.655 17.3335C13.6255 17.3592 13.6063 17.3946 13.6007 17.4333C13.5506 17.7642 13.4694 18.0897 13.358 18.4053C13.3486 18.4299 13.3453 18.4565 13.3485 18.4827C13.3516 18.5088 13.3611 18.5339 13.376 18.5556C13.391 18.5773 13.411 18.595 13.4343 18.6073C13.4577 18.6196 13.4836 18.626 13.51 18.626H18.6667C19.0203 18.626 19.3594 18.4855 19.6095 18.2354C19.8595 17.9854 20 17.6463 20 17.2926V7.90329Z" fill="#111111"/>
<path d="M15.6665 12.96C15.6665 12.7832 15.5963 12.6136 15.4713 12.4886C15.3462 12.3636 15.1767 12.2933 14.9999 12.2933H12.3332C12.2488 12.2937 12.1653 12.3109 12.0876 12.3439C12.0099 12.3768 11.9395 12.4249 11.8805 12.4853C11.8688 12.4964 11.8596 12.5098 11.8534 12.5247C11.8473 12.5396 11.8443 12.5556 11.8448 12.5717C11.8452 12.5878 11.849 12.6036 11.856 12.6182C11.863 12.6327 11.8729 12.6456 11.8852 12.656C12.1872 12.9254 12.4578 13.2279 12.6919 13.558C12.707 13.5791 12.7271 13.5962 12.7503 13.6078C12.7735 13.6194 12.7992 13.6252 12.8252 13.6247H14.9999C15.1763 13.6247 15.3456 13.5547 15.4706 13.4301C15.5955 13.3055 15.666 13.1365 15.6665 12.96Z" fill="#111111"/>
<path d="M8.33333 12.2933C7.47628 12.2933 6.63848 12.5475 5.92586 13.0236C5.21325 13.4998 4.65784 14.1766 4.32986 14.9684C4.00188 15.7602 3.91606 16.6315 4.08327 17.4721C4.25047 18.3126 4.66318 19.0848 5.26921 19.6908C5.87523 20.2968 6.64736 20.7095 7.48794 20.8767C8.32853 21.0439 9.19982 20.9581 9.99163 20.6301C10.7834 20.3022 11.4602 19.7467 11.9364 19.0341C12.4125 18.3215 12.6667 17.4837 12.6667 16.6267C12.6653 15.4778 12.2083 14.3764 11.3959 13.5641C10.5836 12.7517 9.48217 12.2947 8.33333 12.2933ZM9.92733 16.0853C9.96651 16.1344 9.99103 16.1935 9.99808 16.2559C10.0051 16.3183 9.99443 16.3814 9.96719 16.438C9.93995 16.4945 9.89729 16.5422 9.84413 16.5756C9.79096 16.609 9.72945 16.6267 9.66667 16.6267H9.16667C9.12247 16.6267 9.08007 16.6442 9.04882 16.6755C9.01756 16.7067 9 16.7491 9 16.7933V18.6267C9 18.8035 8.92976 18.973 8.80474 19.0981C8.67972 19.2231 8.51015 19.2933 8.33333 19.2933C8.15652 19.2933 7.98695 19.2231 7.86193 19.0981C7.73691 18.973 7.66667 18.8035 7.66667 18.6267V16.7933C7.66667 16.7491 7.64911 16.7067 7.61785 16.6755C7.5866 16.6442 7.5442 16.6267 7.5 16.6267H7C6.93722 16.6267 6.87571 16.609 6.82254 16.5756C6.76938 16.5422 6.72672 16.4945 6.69948 16.438C6.67224 16.3814 6.66153 16.3183 6.66859 16.2559C6.67564 16.1935 6.70016 16.1344 6.73934 16.0853L8.07267 14.4187C8.10502 14.3813 8.14505 14.3513 8.19003 14.3307C8.235 14.3101 8.28388 14.2995 8.33333 14.2995C8.38279 14.2995 8.43167 14.3101 8.47664 14.3307C8.52162 14.3513 8.56165 14.3813 8.594 14.4187L9.92733 16.0853Z" fill="#111111"/>
</mask>
<g mask="url(#mask0)">
<rect y="0.959961" width="24" height="24" fill="#39743C"/>
</g>
</svg>
