<svg width="32" height="32" viewBox="0 0 32 32" fill="none" xmlns="http://www.w3.org/2000/svg">
<mask id="mask0" mask-type="alpha" maskUnits="userSpaceOnUse" x="9" y="11" width="15" height="10">
<path d="M21.9619 13.5173L22.8508 12.6284C22.9357 12.5464 23.0034 12.4483 23.05 12.3399C23.0965 12.2315 23.1211 12.1148 23.1221 11.9968C23.1231 11.8788 23.1006 11.7617 23.0559 11.6525C23.0112 11.5432 22.9452 11.444 22.8618 11.3605C22.7783 11.2771 22.6791 11.2111 22.5698 11.1664C22.4606 11.1217 22.3435 11.0992 22.2255 11.1002C22.1075 11.1012 21.9908 11.1258 21.8824 11.1723C21.774 11.2189 21.6759 11.2866 21.5939 11.3715L20.705 12.2604C20.6224 12.3431 20.5244 12.4086 20.4165 12.4534C20.3086 12.4981 20.1929 12.5211 20.0761 12.5211C19.9593 12.5211 19.8436 12.4981 19.7357 12.4534C19.6278 12.4086 19.5298 12.3431 19.4472 12.2604C18.9392 11.7756 18.2641 11.5051 17.5619 11.5051C16.8597 11.5051 16.1845 11.7756 15.6765 12.2604C15.5098 12.4271 15.2838 12.5207 15.0481 12.5207C14.8124 12.5207 14.5863 12.4271 14.4196 12.2604C13.9115 11.7756 13.2362 11.505 12.5339 11.505C11.8315 11.505 11.1562 11.7756 10.6481 12.2604L9.7592 13.1493C9.59253 13.3161 9.49894 13.5423 9.49902 13.7781C9.49911 14.0139 9.59286 14.24 9.75965 14.4067C9.92644 14.5733 10.1526 14.6669 10.3884 14.6668C10.6242 14.6667 10.8503 14.573 11.017 14.4062L11.9059 13.5173C12.0752 13.3557 12.3003 13.2656 12.5343 13.2656C12.7684 13.2656 12.9934 13.3557 13.1628 13.5173C13.6628 14.0172 14.341 14.2981 15.0481 14.2981C15.7552 14.2981 16.4334 14.0172 16.9334 13.5173C17.1027 13.3557 17.3278 13.2656 17.5619 13.2656C17.7959 13.2656 18.021 13.3557 18.1903 13.5173C18.4379 13.765 18.7319 13.9615 19.0555 14.0955C19.3791 14.2295 19.7259 14.2985 20.0761 14.2985C20.4263 14.2985 20.7731 14.2295 21.0967 14.0955C21.4202 13.9615 21.7142 13.765 21.9619 13.5173Z" fill="#111111"/>
<path d="M15.6765 17.5938C15.5098 17.7604 15.2838 17.854 15.0481 17.854C14.8124 17.854 14.5863 17.7604 14.4196 17.5938C13.9115 17.1089 13.2362 16.8384 12.5339 16.8384C11.8315 16.8384 11.1562 17.1089 10.6481 17.5938L9.7592 18.4827C9.59253 18.6494 9.49894 18.8756 9.49902 19.1114C9.49911 19.3472 9.59286 19.5733 9.75965 19.74C9.92644 19.9067 10.1526 20.0003 10.3884 20.0002C10.6242 20.0001 10.8503 19.9063 11.017 19.7395L11.9059 18.8507C12.0752 18.6891 12.3003 18.5989 12.5343 18.5989C12.7684 18.5989 12.9934 18.6891 13.1628 18.8507C13.6628 19.3506 14.341 19.6314 15.0481 19.6314C15.7552 19.6314 16.4334 19.3506 16.9334 18.8507C17.0953 18.683 17.1849 18.4585 17.1829 18.2254C17.1809 17.9923 17.0874 17.7694 16.9226 17.6046C16.7578 17.4398 16.5348 17.3463 16.3018 17.3443C16.0687 17.3423 15.8442 17.4318 15.6765 17.5938Z" fill="#111111"/>
</mask>
<g mask="url(#mask0)">
<rect width="32" height="32" fill="#0E100E" fill-opacity="0.4"/>
</g>
<mask id="mask1" mask-type="alpha" maskUnits="userSpaceOnUse" x="5" y="5" width="22" height="22">
<path d="M26.6663 7.11111C26.6663 6.63961 26.479 6.18743 26.1456 5.85403C25.8122 5.52063 25.3601 5.33333 24.8886 5.33333H7.11079C6.63929 5.33333 6.1871 5.52063 5.85371 5.85403C5.52031 6.18743 5.33301 6.63961 5.33301 7.11111V24.8889C5.33301 25.3604 5.52031 25.8126 5.85371 26.146C6.1871 26.4794 6.63929 26.6667 7.11079 26.6667H19.5552C19.791 26.6666 20.017 26.5729 20.1837 26.4062L26.4059 20.184C26.5726 20.0173 26.6663 19.7913 26.6663 19.5555V7.11111ZM7.11079 7.55555C7.11079 7.43768 7.15761 7.32463 7.24096 7.24128C7.32431 7.15793 7.43736 7.11111 7.55523 7.11111H24.4441C24.562 7.11111 24.675 7.15793 24.7584 7.24128C24.8417 7.32463 24.8886 7.43768 24.8886 7.55555V18.6667C24.8886 18.7845 24.8417 18.8976 24.7584 18.9809C24.675 19.0643 24.562 19.1111 24.4441 19.1111H20.8886C20.4171 19.1111 19.9649 19.2984 19.6315 19.6318C19.2981 19.9652 19.1108 20.4174 19.1108 20.8889V24.4444C19.1108 24.5623 19.064 24.6754 18.9806 24.7587C18.8973 24.8421 18.7842 24.8889 18.6663 24.8889H7.55523C7.43736 24.8889 7.32431 24.8421 7.24096 24.7587C7.15761 24.6754 7.11079 24.5623 7.11079 24.4444V7.55555Z" fill="#111111"/>
</mask>
<g mask="url(#mask1)">
<rect width="32" height="32" fill="#0E100E" fill-opacity="0.4"/>
</g>
</svg>
