<svg width="24" height="24" viewBox="0 0 24 24" fill="none" xmlns="http://www.w3.org/2000/svg">
<mask id="mask0" mask-type="alpha" maskUnits="userSpaceOnUse" x="4" y="5" width="16" height="13">
<path fill-rule="evenodd" clip-rule="evenodd" d="M18.6865 5.22206C18.9647 5.5098 18.9553 5.96699 18.6655 6.24322L6.54416 17.7988C6.25441 18.075 5.79401 18.0657 5.51585 17.7779C5.23768 17.4902 5.24707 17.033 5.53683 16.7568L9.84053 12.654C9.75826 12.686 9.66868 12.7037 9.57496 12.7037C9.17329 12.7038 8.84759 12.3805 8.84748 11.9817C8.84737 11.5706 8.92882 11.1636 9.08717 10.7838C9.24552 10.404 9.47767 10.059 9.77036 9.76831C10.0631 9.47766 10.4105 9.24712 10.793 9.08987C11.1754 8.93262 11.5853 8.85174 11.9992 8.85185C12.4009 8.85196 12.7264 9.17539 12.7263 9.57427C12.7262 9.97314 12.4005 10.2964 11.9988 10.2963C11.776 10.2962 11.5553 10.3398 11.3494 10.4244C11.1435 10.5091 10.9565 10.6332 10.7989 10.7897C10.6413 10.9462 10.5163 11.1319 10.4311 11.3364C10.3458 11.5409 10.302 11.76 10.302 11.9813C10.3021 12.0849 10.2801 12.1835 10.2405 12.2726L17.6582 5.20122C17.9479 4.92499 18.4083 4.93432 18.6865 5.22206ZM12.001 6.92586C12.5851 6.92021 13.1677 6.98824 13.7346 7.12833C14.1244 7.22465 14.3617 7.61652 14.2647 8.00359C14.1677 8.39065 13.7731 8.62635 13.3833 8.53003C12.9333 8.41883 12.4709 8.36516 12.0072 8.37032L11.9869 8.37027C9.68961 8.33235 7.18092 9.9616 5.5431 11.75C5.48609 11.8133 5.45456 11.8952 5.45456 11.9802C5.45456 12.0649 5.48594 12.1467 5.54269 12.21C6.02942 12.7388 6.56059 13.2256 7.13044 13.665C7.44769 13.9097 7.50517 14.3634 7.25882 14.6784C7.01247 14.9935 6.55558 15.0505 6.23833 14.8059C5.60237 14.3155 5.00965 13.7722 4.46659 13.1818L4.46316 13.1781L4.46318 13.1781C4.165 12.8494 4 12.4226 4 11.9802C4 11.5378 4.165 11.111 4.46318 10.7823L4.46542 10.7798L4.46542 10.7798C6.21441 8.86941 9.09056 6.88255 12.001 6.92586ZM16.4218 9.07123C16.6586 8.74906 17.1135 8.67852 17.438 8.91369C18.1979 9.46454 18.9001 10.0899 19.5339 10.7804L19.5368 10.7836L19.5368 10.7836C19.835 11.1123 20 11.5391 20 11.9815C20 12.4239 19.835 12.8506 19.5368 13.1794L19.5347 13.1817C17.824 15.0514 14.9539 17.0824 11.9956 17.0371C11.2584 17.0416 10.5248 16.9335 9.82064 16.7163C9.43704 16.598 9.22265 16.1933 9.34178 15.8124C9.46091 15.4314 9.86845 15.2185 10.252 15.3368C10.8158 15.5107 11.4033 15.597 11.9936 15.5926L12.0113 15.5927C14.3503 15.6318 16.8516 13.9656 18.4569 12.2118C18.5139 12.1484 18.5454 12.0665 18.5454 11.9815C18.5454 11.8966 18.514 11.8148 18.4571 11.7515C17.8895 11.1334 17.2608 10.5736 16.5804 10.0804C16.256 9.84522 16.1849 9.3934 16.4218 9.07123ZM14.4231 11.2586C14.8248 11.2585 15.1505 11.5818 15.1506 11.9806C15.1507 12.3917 15.0693 12.7988 14.9109 13.1786C14.7526 13.5584 14.5205 13.9035 14.2278 14.1942C13.9352 14.4849 13.5877 14.7155 13.2053 14.8728C12.8229 15.0301 12.413 15.1111 11.999 15.1111C11.5974 15.1111 11.2718 14.7878 11.2718 14.3889C11.2718 13.99 11.5974 13.6667 11.999 13.6667C12.2219 13.6667 12.4426 13.6231 12.6485 13.5383C12.8545 13.4536 13.0416 13.3295 13.1991 13.1729C13.3567 13.0164 13.4817 12.8306 13.567 12.6261C13.6522 12.4216 13.6961 12.2024 13.696 11.981C13.6959 11.5822 14.0214 11.2587 14.4231 11.2586Z" fill="#111111"/>
</mask>
<g mask="url(#mask0)">
<rect width="24" height="24" fill="#161C2D" fill-opacity="0.68"/>
</g>
</svg>
