<svg width="24" height="24" viewBox="0 0 24 24" fill="none" xmlns="http://www.w3.org/2000/svg">
<mask id="mask0" mask-type="alpha" maskUnits="userSpaceOnUse" x="4" y="7" width="16" height="10">
<path fill-rule="evenodd" clip-rule="evenodd" d="M11.999 7.00068C14.9087 6.95811 17.7839 8.92141 19.5345 10.8117L19.5368 10.8143L19.5368 10.8143C19.835 11.1394 20 11.5615 20 11.999C20 12.4366 19.835 12.8587 19.5368 13.1838L19.5347 13.1861C17.8246 15.0346 14.9561 17.0425 11.999 16.9993C9.04188 17.0425 6.17402 15.0345 4.4651 13.1859L4.46317 13.1838L4.46318 13.1838C4.165 12.8587 4 12.4366 4 11.999C4 11.5615 4.165 11.1394 4.46318 10.8143L4.46525 10.812L4.46525 10.812C6.21407 8.92139 9.08934 6.95811 11.999 7.00068ZM5.54317 11.7713C5.48612 11.8339 5.45456 11.915 5.45456 11.999C5.45456 12.0831 5.48613 12.1642 5.54321 12.2269C7.14709 13.9614 9.64778 15.6094 11.9868 15.5707C11.995 15.5706 12.0031 15.5706 12.0113 15.5707C14.3503 15.6094 16.8516 13.9614 18.4569 12.2268C18.5139 12.1641 18.5454 12.0831 18.5454 11.999C18.5454 11.9151 18.5139 11.834 18.457 11.7714C16.8172 10.0014 14.3086 8.39123 12.0113 8.42929C12.0031 8.42943 11.9949 8.42943 11.9868 8.42929C9.68939 8.39123 7.18073 10.0015 5.54317 11.7713ZM12.6487 10.4597C12.4428 10.376 12.2221 10.3329 11.9992 10.333H11.999C11.6634 10.333 11.3353 10.4307 11.0563 10.6138C10.7772 10.7969 10.5597 11.0572 10.4313 11.3617C10.3028 11.6663 10.2692 12.0014 10.3346 12.3247C10.4001 12.648 10.5616 12.945 10.7989 13.1781C11.0362 13.4112 11.3385 13.57 11.6677 13.6343C11.9968 13.6987 12.338 13.6657 12.6481 13.5397C12.9582 13.4136 13.2233 13.2 13.4098 12.926C13.5963 12.652 13.6959 12.3298 13.696 12.0001V11.9999C13.6961 11.781 13.6523 11.5642 13.5671 11.362C13.4819 11.1597 13.3569 10.9759 13.1993 10.8211C13.0418 10.6663 12.8547 10.5435 12.6487 10.4597ZM11.999 8.90433C12.413 8.90425 12.8229 8.98427 13.2053 9.13982C13.5878 9.2954 13.9353 9.52349 14.228 9.81104C14.5207 10.0986 14.7528 10.44 14.9111 10.8157C15.0694 11.1914 15.1508 11.594 15.1506 12.0005M11.9988 8.90433C11.3756 8.90437 10.7664 9.08588 10.2482 9.42593C9.72996 9.76602 9.32602 10.2494 9.08746 10.815C8.8489 11.3805 8.78644 12.0028 8.90798 12.6032C9.02951 13.2037 9.32958 13.7552 9.77025 14.1881C10.2109 14.6211 10.7724 14.9159 11.3837 15.0355C11.995 15.155 12.6286 15.0938 13.2045 14.8596C13.7804 14.6255 14.2726 14.2289 14.619 13.72C14.9654 13.2111 15.1504 12.6128 15.1506 12.0007" fill="#111111"/>
</mask>
<g mask="url(#mask0)">
<rect width="24" height="24" fill="#0E100E" fill-opacity="0.68"/>
</g>
</svg>
