<svg width="24" height="24" viewBox="0 0 24 24" fill="green" xmlns="http://www.w3.org/2000/svg">
<mask id="mask0" mask-type="alpha" maskUnits="userSpaceOnUse" x="5" y="4" width="14" height="16">
<path d="M11.364 5.62067C11.2708 5.55996 11.164 5.52352 11.0531 5.51467C10.9423 5.50582 10.831 5.52484 10.7293 5.57L8.13333 6.72333C8.08267 6.74544 8.02731 6.75461 7.97222 6.75C7.91714 6.7454 7.86406 6.72716 7.81778 6.69694C7.77149 6.66673 7.73345 6.62547 7.70707 6.5769C7.68069 6.52832 7.66681 6.47394 7.66667 6.41867V4.66667C7.66667 4.48986 7.59643 4.32029 7.4714 4.19526C7.34638 4.07024 7.17681 4 7 4C6.82319 4 6.65362 4.07024 6.5286 4.19526C6.40357 4.32029 6.33333 4.48986 6.33333 4.66667V7.308C6.33304 7.3726 6.31398 7.43573 6.27848 7.4897C6.24297 7.54367 6.19254 7.58616 6.13333 7.612L5.4 7.94067C5.28137 7.99244 5.18038 8.07763 5.10935 8.18583C5.03832 8.29403 5.00033 8.42057 5 8.55V19.3333C5 19.5101 5.07024 19.6797 5.19526 19.8047C5.32029 19.9298 5.48986 20 5.66667 20H7C7.08841 20 7.17319 19.9649 7.2357 19.9024C7.29821 19.8399 7.33333 19.7551 7.33333 19.6667V18C7.33333 17.9116 7.36845 17.8268 7.43096 17.7643C7.49348 17.7018 7.57826 17.6667 7.66667 17.6667H9C9.08841 17.6667 9.17319 17.7018 9.2357 17.7643C9.29821 17.8268 9.33333 17.9116 9.33333 18V19.6667C9.33333 19.7551 9.36845 19.8399 9.43096 19.9024C9.49348 19.9649 9.57826 20 9.66667 20H11C11.1768 20 11.3464 19.9298 11.4714 19.8047C11.5964 19.6797 11.6667 19.5101 11.6667 19.3333V14.6667C11.6667 14.5783 11.6315 14.4935 11.569 14.431C11.5065 14.3685 11.4217 14.3333 11.3333 14.3333H8C7.86739 14.3333 7.74021 14.2807 7.64645 14.1869C7.55268 14.0931 7.5 13.9659 7.5 13.8333C7.5 13.7007 7.55268 13.5735 7.64645 13.4798C7.74021 13.386 7.86739 13.3333 8 13.3333H11.3333C11.4217 13.3333 11.5065 13.2982 11.569 13.2357C11.6315 13.1732 11.6667 13.0884 11.6667 13V12C11.6667 11.9116 11.6315 11.8268 11.569 11.7643C11.5065 11.7018 11.4217 11.6667 11.3333 11.6667H9.33333C9.20073 11.6667 9.07355 11.614 8.97978 11.5202C8.88601 11.4265 8.83333 11.2993 8.83333 11.1667C8.83333 11.0341 8.88601 10.9069 8.97978 10.8131C9.07355 10.7193 9.20073 10.6667 9.33333 10.6667H11.3333C11.4217 10.6667 11.5065 10.6315 11.569 10.569C11.6315 10.5065 11.6667 10.4217 11.6667 10.3333V9.33333C11.6667 9.24493 11.6315 9.16014 11.569 9.09763C11.5065 9.03512 11.4217 9 11.3333 9H10C9.86739 9 9.74022 8.94732 9.64645 8.85355C9.55268 8.75979 9.5 8.63261 9.5 8.5C9.5 8.36739 9.55268 8.24021 9.64645 8.14645C9.74022 8.05268 9.86739 8 10 8H11.3333C11.4217 8 11.5065 7.96488 11.569 7.90237C11.6315 7.83986 11.6667 7.75507 11.6667 7.66667V6.18C11.6668 6.06894 11.6392 5.9596 11.5863 5.86192C11.5335 5.76424 11.457 5.68131 11.364 5.62067Z" fill="#111111"/>
<path d="M17.4901 10.4187C17.5407 10.4503 17.599 10.4678 17.6587 10.4692C17.7184 10.4707 17.7774 10.4561 17.8295 10.4269C17.8816 10.3977 17.925 10.3551 17.955 10.3035C17.985 10.2518 18.0006 10.1931 18.0001 10.1333V8.33333C18.0001 8.24493 17.965 8.16014 17.9024 8.09763C17.8399 8.03512 17.7551 8 17.6667 8H14.3334C14.289 8.00004 14.2458 8.0145 14.2104 8.04122C14.1749 8.06794 14.1491 8.10546 14.1369 8.14812C14.1246 8.19078 14.1265 8.23628 14.1424 8.27774C14.1582 8.31921 14.1871 8.3544 14.2247 8.378L17.4901 10.4187Z" fill="#111111"/>
<path d="M18.686 12.3513L14.0193 9.43533C13.9185 9.37246 13.8027 9.3377 13.6838 9.33463C13.565 9.33157 13.4476 9.36032 13.3436 9.41791C13.2397 9.4755 13.153 9.55983 13.0926 9.66218C13.0322 9.76452 13.0002 9.88115 13 10V11.6667C13 11.7551 13.0351 11.8399 13.0976 11.9024C13.1601 11.9649 13.2449 12 13.3333 12H14.6667C14.7993 12 14.9265 12.0527 15.0202 12.1464C15.114 12.2402 15.1667 12.3674 15.1667 12.5C15.1667 12.6326 15.114 12.7598 15.0202 12.8536C14.9265 12.9473 14.7993 13 14.6667 13H13.3333C13.2449 13 13.1601 13.0351 13.0976 13.0976C13.0351 13.1601 13 13.2449 13 13.3333V14.3333C13 14.4217 13.0351 14.5065 13.0976 14.569C13.1601 14.6315 13.2449 14.6667 13.3333 14.6667H16C16.1326 14.6667 16.2598 14.7193 16.3536 14.8131C16.4473 14.9069 16.5 15.0341 16.5 15.1667C16.5 15.2993 16.4473 15.4264 16.3536 15.5202C16.2598 15.614 16.1326 15.6667 16 15.6667H13.3333C13.2449 15.6667 13.1601 15.7018 13.0976 15.7643C13.0351 15.8268 13 15.9116 13 16V19.3333C13 19.5101 13.0702 19.6797 13.1953 19.8047C13.3203 19.9298 13.4899 20 13.6667 20H14.6667C14.7551 20 14.8399 19.9649 14.9024 19.9024C14.9649 19.8399 15 19.7551 15 19.6667V17.6667C15 17.5783 15.0351 17.4935 15.0976 17.431C15.1601 17.3684 15.2449 17.3333 15.3333 17.3333H16.6667C16.7551 17.3333 16.8399 17.3684 16.9024 17.431C16.9649 17.4935 17 17.5783 17 17.6667V19.6667C17 19.7551 17.0351 19.8399 17.0976 19.9024C17.1601 19.9649 17.2449 20 17.3333 20H18.3333C18.5101 20 18.6797 19.9298 18.8047 19.8047C18.9298 19.6797 19 19.5101 19 19.3333V12.9167C19.0004 12.8034 18.9717 12.692 18.9167 12.593C18.8618 12.4941 18.7823 12.4108 18.686 12.3513Z" fill="#111111"/>
</mask>
<g mask="url(#mask0)">
<rect opacity="0.6" width="24" height="24" fill="white"/>
</g>
</svg>
