<svg width="24" height="24" viewBox="0 0 24 24" fill="none" xmlns="http://www.w3.org/2000/svg">
<mask id="mask0" mask-type="alpha" maskUnits="userSpaceOnUse" x="4" y="4" width="16" height="16">
<path fill-rule="evenodd" clip-rule="evenodd" d="M5.33333 4H18.6667C19.0203 4 19.3594 4.14048 19.6095 4.39052C19.8595 4.64057 20 4.97971 20 5.33333V14.6667C20 14.8435 19.9297 15.013 19.8047 15.138L15.138 19.8047C15.013 19.9297 14.8435 20 14.6667 20H5.33333C4.97971 20 4.64057 19.8595 4.39052 19.6095C4.14048 19.3594 4 19.0203 4 18.6667V5.33333C4 4.97971 4.14048 4.64057 4.39052 4.39052C4.64057 4.14048 4.97971 4 5.33333 4ZM5.43096 5.43096C5.36845 5.49348 5.33333 5.57826 5.33333 5.66667V18.3333C5.33333 18.4217 5.36845 18.5065 5.43096 18.569C5.49348 18.6315 5.57826 18.6667 5.66667 18.6667H14C14.0884 18.6667 14.1732 18.6315 14.2357 18.569C14.2982 18.5065 14.3333 18.4217 14.3333 18.3333V15.6667C14.3333 15.313 14.4738 14.9739 14.7239 14.7239C14.9739 14.4738 15.313 14.3333 15.6667 14.3333H18.3333C18.4217 14.3333 18.5065 14.2982 18.569 14.2357C18.6315 14.1732 18.6667 14.0884 18.6667 14V5.66667C18.6667 5.57826 18.6315 5.49348 18.569 5.43096C18.5065 5.36845 18.4217 5.33333 18.3333 5.33333H5.66667C5.57826 5.33333 5.49348 5.36845 5.43096 5.43096ZM16.1902 8.85573C16.1544 8.98213 16.0941 9.10025 16.0127 9.20334L11.9353 14.3673C11.7879 14.5497 11.6041 14.6993 11.3955 14.8065C11.187 14.9137 10.9583 14.9762 10.7243 14.99C10.4902 15.0037 10.2558 14.9684 10.0361 14.8863C9.81647 14.8043 9.61637 14.6772 9.44866 14.5133L7.63465 12.6987C7.4525 12.5101 7.3517 12.2575 7.35398 11.9953C7.35626 11.7331 7.46143 11.4823 7.64684 11.2969C7.83224 11.1114 8.08306 11.0063 8.34525 11.004C8.60745 11.0017 8.86005 11.1025 9.04865 11.2847L10.4653 12.7013C10.4819 12.7181 10.5019 12.7311 10.5239 12.7395C10.5459 12.7479 10.5694 12.7516 10.593 12.7502C10.6165 12.7488 10.6394 12.7424 10.6603 12.7314C10.6812 12.7205 10.6995 12.7052 10.714 12.6867L14.4427 7.96334C14.5241 7.86025 14.625 7.77421 14.7397 7.71012C14.8543 7.64604 14.9805 7.60517 15.111 7.58985C15.2414 7.57453 15.3737 7.58505 15.5001 7.62083C15.6265 7.6566 15.7446 7.71692 15.8477 7.79834C15.9507 7.87976 16.0368 7.98068 16.1009 8.09535C16.165 8.21003 16.2058 8.3362 16.2211 8.46666C16.2365 8.59713 16.2259 8.72934 16.1902 8.85573Z" fill="#ffffff"/>
</mask>
<g mask="url(#mask0)">
<rect width="24" height="24" fill="white"/>
</g>
</svg>
