<svg width="24" height="24" viewBox="0 0 24 24" fill="none" xmlns="http://www.w3.org/2000/svg">
<mask id="mask0" mask-type="alpha" maskUnits="userSpaceOnUse" x="4" y="5" width="16" height="16">
<path d="M12 8.16667V8.33333C12 8.51014 12.0702 8.67971 12.1953 8.80474C12.3203 8.92976 12.4899 9 12.6667 9C12.8435 9 13.013 8.92976 13.1381 8.80474C13.2631 8.67971 13.3333 8.51014 13.3333 8.33333V8.16667C13.3333 8.12246 13.3509 8.08007 13.3821 8.04882C13.4134 8.01756 13.4558 8 13.5 8H14.1667C14.2109 8 14.2533 8.01756 14.2845 8.04882C14.3158 8.08007 14.3333 8.12246 14.3333 8.16667V11.3C14.3334 11.3245 14.339 11.3487 14.3497 11.3708C14.3604 11.3928 14.3759 11.4122 14.3952 11.4275C14.4144 11.4427 14.4368 11.4534 14.4607 11.4588C14.4846 11.4642 14.5094 11.4642 14.5333 11.4587C14.8532 11.3866 15.179 11.3447 15.5067 11.3333C15.5492 11.3326 15.5898 11.3153 15.6197 11.285C15.6496 11.2547 15.6665 11.2139 15.6667 11.1713V8C15.6667 7.64638 15.5262 7.30724 15.2761 7.05719C15.0261 6.80714 14.687 6.66667 14.3333 6.66667H13.5C13.4558 6.66667 13.4134 6.64911 13.3821 6.61785C13.3509 6.5866 13.3333 6.5442 13.3333 6.5V5.66667C13.3333 5.48986 13.2631 5.32029 13.1381 5.19526C13.013 5.07024 12.8435 5 12.6667 5C12.4899 5 12.3203 5.07024 12.1953 5.19526C12.0702 5.32029 12 5.48986 12 5.66667V6.5C12 6.5442 11.9824 6.5866 11.9512 6.61785C11.9199 6.64911 11.8775 6.66667 11.8333 6.66667H10.8333C10.7891 6.66667 10.7467 6.64911 10.7155 6.61785C10.6842 6.5866 10.6667 6.5442 10.6667 6.5V5.66667C10.6667 5.48986 10.5964 5.32029 10.4714 5.19526C10.3464 5.07024 10.1768 5 10 5C9.82319 5 9.65362 5.07024 9.5286 5.19526C9.40357 5.32029 9.33333 5.48986 9.33333 5.66667V6.5C9.33333 6.5442 9.31577 6.5866 9.28452 6.61785C9.25326 6.64911 9.21087 6.66667 9.16667 6.66667H8.16667C8.12246 6.66667 8.08007 6.64911 8.04882 6.61785C8.01756 6.5866 8 6.5442 8 6.5V5.66667C8 5.48986 7.92976 5.32029 7.80474 5.19526C7.67971 5.07024 7.51014 5 7.33333 5C7.15652 5 6.98695 5.07024 6.86193 5.19526C6.7369 5.32029 6.66667 5.48986 6.66667 5.66667V6.5C6.66667 6.5442 6.64911 6.5866 6.61785 6.61785C6.5866 6.64911 6.5442 6.66667 6.5 6.66667H5.33333C4.97971 6.66667 4.64057 6.80714 4.39052 7.05719C4.14048 7.30724 4 7.64638 4 8V16.6667C4 17.0203 4.14048 17.3594 4.39052 17.6095C4.64057 17.8595 4.97971 18 5.33333 18H10.302C10.3266 18.0001 10.3508 17.9945 10.373 17.9839C10.3951 17.9732 10.4145 17.9577 10.4298 17.9384C10.445 17.9192 10.4558 17.8967 10.4611 17.8728C10.4665 17.8488 10.4663 17.8239 10.4607 17.8C10.3879 17.4802 10.3453 17.1544 10.3333 16.8267C10.3326 16.7841 10.3153 16.7435 10.285 16.7136C10.2547 16.6837 10.2139 16.6668 10.1713 16.6667H5.5C5.4558 16.6667 5.41341 16.6491 5.38215 16.6179C5.35089 16.5866 5.33333 16.5442 5.33333 16.5V8.16667C5.33333 8.12246 5.35089 8.08007 5.38215 8.04882C5.41341 8.01756 5.4558 8 5.5 8H6.5C6.5442 8 6.5866 8.01756 6.61785 8.04882C6.64911 8.08007 6.66667 8.12246 6.66667 8.16667V8.33333C6.66667 8.51014 6.7369 8.67971 6.86193 8.80474C6.98695 8.92976 7.15652 9 7.33333 9C7.51014 9 7.67971 8.92976 7.80474 8.80474C7.92976 8.67971 8 8.51014 8 8.33333V8.16667C8 8.12246 8.01756 8.08007 8.04882 8.04882C8.08007 8.01756 8.12246 8 8.16667 8H9.16667C9.21087 8 9.25326 8.01756 9.28452 8.04882C9.31577 8.08007 9.33333 8.12246 9.33333 8.16667V8.33333C9.33333 8.51014 9.40357 8.67971 9.5286 8.80474C9.65362 8.92976 9.82319 9 10 9C10.1768 9 10.3464 8.92976 10.4714 8.80474C10.5964 8.67971 10.6667 8.51014 10.6667 8.33333V8.16667C10.6667 8.12246 10.6842 8.08007 10.7155 8.04882C10.7467 8.01756 10.7891 8 10.8333 8H11.8333C11.8775 8 11.9199 8.01756 11.9512 8.04882C11.9824 8.08007 12 8.12246 12 8.16667Z" fill="#111111"/>
<path d="M15.6663 12.3333C14.8093 12.3333 13.9715 12.5875 13.2589 13.0636C12.5463 13.5398 11.9908 14.2166 11.6629 15.0084C11.3349 15.8002 11.2491 16.6715 11.4163 17.5121C11.5835 18.3526 11.9962 19.1248 12.6022 19.7308C13.2082 20.3368 13.9804 20.7495 14.821 20.9167C15.6615 21.0839 16.5328 20.9981 17.3246 20.6701C18.1165 20.3422 18.7932 19.7867 19.2694 19.0741C19.7455 18.3615 19.9997 17.5237 19.9997 16.6667C19.9983 15.5178 19.5413 14.4164 18.7289 13.6041C17.9166 12.7917 16.8152 12.3347 15.6663 12.3333ZM17.2603 17.208L15.927 18.8747C15.8958 18.9138 15.8561 18.9455 15.811 18.9672C15.7659 18.9889 15.7164 19.0002 15.6663 19.0002C15.6163 19.0002 15.5668 18.9889 15.5217 18.9672C15.4765 18.9455 15.4369 18.9138 15.4057 18.8747L14.0723 17.208C14.0332 17.1589 14.0086 17.0998 14.0016 17.0374C13.9945 16.9751 14.0053 16.9119 14.0325 16.8554C14.0597 16.7988 14.1024 16.7511 14.1555 16.7177C14.2087 16.6843 14.2702 16.6666 14.333 16.6667H14.8317C14.8762 16.6667 14.919 16.649 14.9505 16.6175C14.982 16.586 14.9997 16.5432 14.9997 16.4987V14.6667C14.9997 14.4899 15.0699 14.3203 15.1949 14.1953C15.32 14.0702 15.4895 14 15.6663 14C15.8432 14 16.0127 14.0702 16.1377 14.1953C16.2628 14.3203 16.333 14.4899 16.333 14.6667V16.5C16.333 16.5442 16.3506 16.5866 16.3818 16.6178C16.4131 16.6491 16.4555 16.6667 16.4997 16.6667H16.9997C17.0625 16.6666 17.124 16.6843 17.1771 16.7177C17.2303 16.7511 17.273 16.7988 17.3002 16.8554C17.3274 16.9119 17.3381 16.9751 17.3311 17.0374C17.324 17.0998 17.2995 17.1589 17.2603 17.208Z" fill="#111111"/>
</mask>
<g mask="url(#mask0)">
<rect opacity="0.6" width="24" height="24" fill="white"/>
</g>
</svg>
