<svg width="32" height="32" viewBox="0 0 32 32" fill="none" xmlns="http://www.w3.org/2000/svg">
<mask id="mask0" mask-type="alpha" maskUnits="userSpaceOnUse" x="5" y="5" width="22" height="22">
<path d="M20.666 14.667C19.4793 14.667 18.3193 15.0189 17.3326 15.6782C16.3459 16.3375 15.5769 17.2745 15.1227 18.3709C14.6686 19.4672 14.5498 20.6736 14.7813 21.8375C15.0128 23.0014 15.5843 24.0705 16.4234 24.9096C17.2625 25.7487 18.3316 26.3202 19.4955 26.5517C20.6594 26.7832 21.8658 26.6644 22.9621 26.2103C24.0585 25.7561 24.9955 24.9871 25.6548 24.0004C26.3141 23.0137 26.666 21.8537 26.666 20.667C26.6641 19.0763 26.0314 17.5512 24.9066 16.4264C23.7818 15.3016 22.2567 14.6689 20.666 14.667ZM20.666 24.8892C19.8309 24.8892 19.0146 24.6416 18.3203 24.1776C17.6259 23.7137 17.0848 23.0543 16.7652 22.2828C16.4456 21.5113 16.362 20.6623 16.5249 19.8433C16.6878 19.0242 17.09 18.2719 17.6805 17.6814C18.2709 17.0909 19.0233 16.6888 19.8423 16.5259C20.6613 16.363 21.5103 16.4466 22.2818 16.7662C23.0533 17.0857 23.7127 17.6269 24.1767 18.3212C24.6406 19.0156 24.8882 19.8319 24.8882 20.667C24.8868 21.7864 24.4415 22.8595 23.65 23.651C22.8585 24.4425 21.7854 24.8878 20.666 24.8892Z" fill="#111111"/>
<path d="M23.3329 20.6668C23.3329 20.431 23.2392 20.2049 23.0726 20.0382C22.9059 19.8715 22.6798 19.7779 22.444 19.7779H21.7773C21.7184 19.7779 21.6619 19.7545 21.6202 19.7128C21.5785 19.6711 21.5551 19.6146 21.5551 19.5557V18.4446C21.5551 18.2088 21.4615 17.9827 21.2948 17.816C21.1281 17.6493 20.902 17.5557 20.6662 17.5557C20.4305 17.5557 20.2044 17.6493 20.0377 17.816C19.871 17.9827 19.7773 18.2088 19.7773 18.4446V20.6668C19.7773 20.9025 19.871 21.1286 20.0377 21.2953C20.2044 21.462 20.4305 21.5557 20.6662 21.5557H22.444C22.6798 21.5557 22.9059 21.462 23.0726 21.2953C23.2392 21.1286 23.3329 20.9025 23.3329 20.6668Z" fill="#111111"/>
<path d="M13.333 20.6668C13.3351 18.7226 14.1084 16.8585 15.4832 15.4837C16.858 14.1089 18.7221 13.3356 20.6663 13.3335C20.8112 13.3335 20.9552 13.3379 21.0975 13.3468C21.1278 13.3485 21.1582 13.3439 21.1867 13.3336C21.2153 13.3232 21.2415 13.3071 21.2637 13.2864C21.2856 13.2656 21.3031 13.2405 21.315 13.2127C21.327 13.1848 21.3331 13.1549 21.333 13.1246V9.96194C21.3329 9.60856 21.1926 9.26967 20.9428 9.01972L17.6468 5.72372C17.3968 5.47392 17.0579 5.33357 16.7046 5.3335H6.66634C6.31272 5.3335 5.97358 5.47397 5.72353 5.72402C5.47348 5.97407 5.33301 6.31321 5.33301 6.66683V23.5557C5.33301 23.9093 5.47348 24.2485 5.72353 24.4985C5.97358 24.7486 6.31272 24.8891 6.66634 24.8891H14.2592C14.2989 24.8888 14.3377 24.878 14.3718 24.8578C14.4058 24.8376 14.4339 24.8087 14.4531 24.774C14.4723 24.7393 14.4819 24.7002 14.481 24.6606C14.48 24.621 14.4685 24.5823 14.4477 24.5486C13.7179 23.3855 13.3315 22.0399 13.333 20.6668ZM10.6663 21.7779C10.4905 21.7779 10.3187 21.7258 10.1725 21.6281C10.0263 21.5305 9.91239 21.3916 9.84511 21.2292C9.77784 21.0668 9.76023 20.8881 9.79453 20.7156C9.82883 20.5432 9.91349 20.3848 10.0378 20.2605C10.1621 20.1362 10.3205 20.0515 10.4929 20.0172C10.6654 19.9829 10.8441 20.0005 11.0065 20.0678C11.1689 20.1351 11.3078 20.249 11.4054 20.3952C11.5031 20.5414 11.5552 20.7132 11.5552 20.8891C11.5552 21.1248 11.4616 21.3509 11.2949 21.5176C11.1282 21.6843 10.9021 21.7779 10.6663 21.7779ZM10.6663 18.6668C10.4905 18.6668 10.3187 18.6147 10.1725 18.517C10.0263 18.4194 9.91239 18.2805 9.84511 18.1181C9.77784 17.9557 9.76023 17.777 9.79453 17.6045C9.82883 17.4321 9.91349 17.2737 10.0378 17.1494C10.1621 17.0251 10.3205 16.9404 10.4929 16.9061C10.6654 16.8718 10.8441 16.8894 11.0065 16.9567C11.1689 17.024 11.3078 17.1379 11.4054 17.2841C11.5031 17.4303 11.5552 17.6021 11.5552 17.7779C11.5552 18.0129 11.4622 18.2383 11.2965 18.4049C11.1307 18.5715 10.9058 18.6657 10.6708 18.6668H10.6663ZM10.6663 15.5557C10.4905 15.5557 10.3187 15.5036 10.1725 15.4059C10.0263 15.3082 9.91239 15.1694 9.84511 15.007C9.77784 14.8446 9.76023 14.6658 9.79453 14.4934C9.82883 14.321 9.91349 14.1626 10.0378 14.0383C10.1621 13.914 10.3205 13.8293 10.4929 13.795C10.6654 13.7607 10.8441 13.7783 11.0065 13.8456C11.1689 13.9129 11.3078 14.0268 11.4054 14.173C11.5031 14.3192 11.5552 14.491 11.5552 14.6668C11.5552 14.9018 11.4622 15.1272 11.2965 15.2938C11.1307 15.4604 10.9058 15.5545 10.6708 15.5557H10.6663ZM11.9997 11.2002C11.8355 11.3872 11.6333 11.5371 11.4066 11.6398C11.1799 11.7425 10.9339 11.7957 10.685 11.7957C10.4326 11.8015 10.182 11.7528 9.9501 11.653C9.71825 11.5531 9.51066 11.4044 9.3415 11.217C9.17233 11.0296 9.04558 10.808 8.96986 10.5671C8.89415 10.3263 8.87127 10.072 8.90279 9.8215L9.33834 7.04194C9.35486 6.93736 9.40817 6.84211 9.48867 6.77334C9.56917 6.70458 9.67158 6.6668 9.77745 6.66683H11.5552C11.6612 6.66684 11.7638 6.70473 11.8443 6.77368C11.9248 6.84263 11.978 6.93809 11.9943 7.04283L12.4255 9.80816V9.8215C12.4566 10.0678 12.4354 10.3179 12.3633 10.5555C12.2911 10.7931 12.1696 11.0128 12.0068 11.2002H11.9997Z" fill="#111111"/>
</mask>
<g mask="url(#mask0)">
<rect x="0.5" y="0.5" width="31" height="31" fill="#A38900" stroke="black"/>
</g>
</svg>
