<svg width="24" height="24" viewBox="0 0 24 24" fill="none" xmlns="http://www.w3.org/2000/svg">
<mask id="mask0" mask-type="alpha" maskUnits="userSpaceOnUse" x="4" y="4" width="16" height="16">
<path d="M18.5455 5.70213H17.0909C17.0427 5.70213 16.9964 5.68419 16.9623 5.65227C16.9282 5.62035 16.9091 5.57706 16.9091 5.53191V4.68085C16.9091 4.50028 16.8325 4.3271 16.6961 4.19942C16.5597 4.07173 16.3747 4 16.1818 4C15.9889 4 15.8039 4.07173 15.6676 4.19942C15.5312 4.3271 15.4545 4.50028 15.4545 4.68085V7.51183C15.4545 7.6924 15.5312 7.86558 15.6676 7.99326C15.8039 8.12095 15.9889 8.19268 16.1818 8.19268C16.3747 8.19268 16.5597 8.12095 16.6961 7.99326C16.8325 7.86558 16.9091 7.6924 16.9091 7.51183V7.23404C16.9091 7.1889 16.9282 7.1456 16.9623 7.11368C16.9964 7.08176 17.0427 7.06383 17.0909 7.06383H18.1818C18.2783 7.06383 18.3708 7.0997 18.4389 7.16354C18.5071 7.22738 18.5455 7.31397 18.5455 7.40426V14.5532C18.5455 14.6435 18.5071 14.7301 18.4389 14.7939C18.3708 14.8578 18.2783 14.8936 18.1818 14.8936H16C15.6142 14.8936 15.2443 15.0371 14.9715 15.2925C14.6987 15.5478 14.5455 15.8942 14.5455 16.2553V18.2979C14.5455 18.3882 14.5071 18.4747 14.4389 18.5386C14.3708 18.6024 14.2783 18.6383 14.1818 18.6383H5.81818C5.72174 18.6383 5.62925 18.6024 5.56105 18.5386C5.49286 18.4747 5.45455 18.3882 5.45455 18.2979V7.40426C5.45455 7.31397 5.49286 7.22738 5.56105 7.16354C5.62925 7.0997 5.72174 7.06383 5.81818 7.06383H6.54545C6.59368 7.06383 6.63992 7.0459 6.67402 7.01398C6.70812 6.98205 6.72727 6.93876 6.72727 6.89362V5.87234C6.72727 5.8272 6.70812 5.7839 6.67402 5.75198C6.63992 5.72006 6.59368 5.70213 6.54545 5.70213H5.45455C5.06878 5.70213 4.69881 5.84559 4.42603 6.10096C4.15325 6.35633 4 6.70268 4 7.06383V18.6383C4 18.9994 4.15325 19.3458 4.42603 19.6012C4.69881 19.8565 5.06878 20 5.45455 20H15.2727C15.3735 20 15.4732 19.9804 15.5655 19.9424C15.6578 19.9045 15.7406 19.8489 15.8087 19.7794L19.8087 15.6943C19.9318 15.5687 20 15.4045 20 15.234V7.06383C20 6.70268 19.8468 6.35633 19.574 6.10096C19.3012 5.84559 18.9312 5.70213 18.5455 5.70213Z" fill="#111111"/>
<path d="M12.1818 8.19268C12.3747 8.19268 12.5597 8.12095 12.6961 7.99326C12.8325 7.86558 12.9091 7.6924 12.9091 7.51183V7.23404C12.9091 7.1889 12.9283 7.1456 12.9624 7.11368C12.9965 7.08176 13.0427 7.06383 13.0909 7.06383H14.5455C14.5937 7.06383 14.6399 7.0459 14.674 7.01398C14.7081 6.98205 14.7273 6.93876 14.7273 6.89362V5.87234C14.7273 5.8272 14.7081 5.7839 14.674 5.75198C14.6399 5.72006 14.5937 5.70213 14.5455 5.70213H13.0909C13.0427 5.70213 12.9965 5.68419 12.9624 5.65227C12.9283 5.62035 12.9091 5.57706 12.9091 5.53191V4.68085C12.9091 4.50028 12.8325 4.3271 12.6961 4.19942C12.5597 4.07173 12.3747 4 12.1818 4C11.9889 4 11.804 4.07173 11.6676 4.19942C11.5312 4.3271 11.4546 4.50028 11.4546 4.68085V7.51183C11.4546 7.6924 11.5312 7.86558 11.6676 7.99326C11.804 8.12095 11.9889 8.19268 12.1818 8.19268Z" fill="#111111"/>
<path d="M8.1818 8.19268C8.37469 8.19268 8.55967 8.12095 8.69606 7.99326C8.83245 7.86558 8.90907 7.6924 8.90907 7.51183V7.23404C8.90907 7.1889 8.92823 7.1456 8.96233 7.11368C8.99643 7.08176 9.04267 7.06383 9.09089 7.06383H10.5454C10.5937 7.06383 10.6399 7.0459 10.674 7.01398C10.7081 6.98205 10.7273 6.93876 10.7273 6.89362V5.87234C10.7273 5.8272 10.7081 5.7839 10.674 5.75198C10.6399 5.72006 10.5937 5.70213 10.5454 5.70213H9.09089C9.04267 5.70213 8.99643 5.68419 8.96233 5.65227C8.92823 5.62035 8.90907 5.57706 8.90907 5.53191V4.68085C8.90907 4.50028 8.83245 4.3271 8.69606 4.19942C8.55967 4.07173 8.37469 4 8.1818 4C7.98892 4 7.80393 4.07173 7.66754 4.19942C7.53115 4.3271 7.45453 4.50028 7.45453 4.68085V7.51183C7.45453 7.6924 7.53115 7.86558 7.66754 7.99326C7.80393 8.12095 7.98892 8.19268 8.1818 8.19268Z" fill="#111111"/>
<path d="M8.21309 12.3111C8.34948 12.4388 8.53443 12.5105 8.72728 12.5105C8.92012 12.5105 9.10507 12.4388 9.24146 12.3111L11.4233 10.2686C11.5558 10.1402 11.6291 9.9682 11.6274 9.78968C11.6257 9.61116 11.5493 9.4404 11.4144 9.31416C11.2796 9.18793 11.0972 9.11632 10.9065 9.11477C10.7158 9.11322 10.5321 9.18185 10.3949 9.30587L8.72728 10.8671L8.15055 10.3271C8.01338 10.2031 7.82967 10.1345 7.63898 10.136C7.44829 10.1376 7.26589 10.2092 7.13104 10.3354C6.9962 10.4617 6.91971 10.6324 6.91806 10.811C6.9164 10.9895 6.98971 11.1615 7.12218 11.2899L8.21309 12.3111Z" fill="#111111"/>
<path d="M8.21309 16.0558C8.34948 16.1835 8.53443 16.2552 8.72728 16.2552C8.92012 16.2552 9.10507 16.1835 9.24146 16.0558L11.4233 14.0133C11.5558 13.8849 11.6291 13.7129 11.6274 13.5344C11.6257 13.3558 11.5493 13.1851 11.4144 13.0588C11.2796 12.9326 11.0972 12.861 10.9065 12.8594C10.7158 12.8579 10.5321 12.9265 10.3949 13.0505L8.72728 14.6117L8.15055 14.0718C8.01338 13.9478 7.82967 13.8792 7.63898 13.8807C7.44829 13.8823 7.26589 13.9539 7.13104 14.0801C6.9962 14.2063 6.91971 14.3771 6.91806 14.5556C6.9164 14.7341 6.98971 14.9061 7.12218 15.0345L8.21309 16.0558Z" fill="#111111"/>
<path d="M12.7273 11.1489C12.7273 11.3295 12.8039 11.5027 12.9403 11.6304C13.0767 11.758 13.2617 11.8298 13.4545 11.8298H16.3636C16.5565 11.8298 16.7415 11.758 16.8779 11.6304C17.0143 11.5027 17.0909 11.3295 17.0909 11.1489C17.0909 10.9684 17.0143 10.7952 16.8779 10.6675C16.7415 10.5398 16.5565 10.4681 16.3636 10.4681H13.4545C13.2617 10.4681 13.0767 10.5398 12.9403 10.6675C12.8039 10.7952 12.7273 10.9684 12.7273 11.1489Z" fill="#111111"/>
</mask>
<g mask="url(#mask0)">
<rect opacity="0.6" width="24" height="24" fill="#0E100E" fill-opacity="0.68"/>
</g>
</svg>
