<svg width="24" height="24" viewBox="0 0 24 24" fill="none" xmlns="http://www.w3.org/2000/svg">
<mask id="mask0" mask-type="alpha" maskUnits="userSpaceOnUse" x="5" y="4" width="16" height="16">
<path d="M18.9998 5.83333H17.6665C17.6223 5.83333 17.5799 5.81577 17.5487 5.78452C17.5174 5.75326 17.4998 5.71087 17.4998 5.66666V4.83333C17.4998 4.65652 17.4296 4.48695 17.3046 4.36193C17.1796 4.2369 17.01 4.16666 16.8332 4.16666C16.6564 4.16666 16.4868 4.2369 16.3618 4.36193C16.2367 4.48695 16.1665 4.65652 16.1665 4.83333V7.60533C16.1665 7.78214 16.2367 7.95171 16.3618 8.07674C16.4868 8.20176 16.6564 8.272 16.8332 8.272C17.01 8.272 17.1796 8.20176 17.3046 8.07674C17.4296 7.95171 17.4998 7.78214 17.4998 7.60533V7.33333C17.4998 7.28913 17.5174 7.24674 17.5487 7.21548C17.5799 7.18422 17.6223 7.16666 17.6665 7.16666H18.6665C18.7549 7.16666 18.8397 7.20178 18.9022 7.2643C18.9647 7.32681 18.9998 7.41159 18.9998 7.5V14.5C18.9998 14.5884 18.9647 14.6732 18.9022 14.7357C18.8397 14.7982 18.7549 14.8333 18.6665 14.8333H16.6665C16.3129 14.8333 15.9737 14.9738 15.7237 15.2239C15.4736 15.4739 15.3332 15.813 15.3332 16.1667V18.1667C15.3332 18.2551 15.2981 18.3399 15.2355 18.4024C15.173 18.4649 15.0882 18.5 14.9998 18.5H7.33317C7.24476 18.5 7.15998 18.4649 7.09747 18.4024C7.03496 18.3399 6.99984 18.2551 6.99984 18.1667V7.5C6.99984 7.41159 7.03496 7.32681 7.09747 7.2643C7.15998 7.20178 7.24476 7.16666 7.33317 7.16666H7.99984C8.04404 7.16666 8.08643 7.1491 8.11769 7.11785C8.14894 7.08659 8.1665 7.0442 8.1665 7V6C8.1665 5.95579 8.14894 5.9134 8.11769 5.88215C8.08643 5.85089 8.04404 5.83333 7.99984 5.83333H6.99984C6.64622 5.83333 6.30708 5.97381 6.05703 6.22385C5.80698 6.4739 5.6665 6.81304 5.6665 7.16666V18.5C5.6665 18.8536 5.80698 19.1928 6.05703 19.4428C6.30708 19.6929 6.64622 19.8333 6.99984 19.8333H15.9998C16.0922 19.8333 16.1836 19.8141 16.2682 19.777C16.3528 19.7398 16.4287 19.6854 16.4912 19.6173L20.1578 15.6173C20.2706 15.4943 20.3332 15.3335 20.3332 15.1667V7.16666C20.3332 6.81304 20.1927 6.4739 19.9426 6.22385C19.6926 5.97381 19.3535 5.83333 18.9998 5.83333Z" fill="#111111"/>
<path d="M13.1667 8.272C13.3435 8.272 13.513 8.20176 13.6381 8.07674C13.7631 7.95171 13.8333 7.78214 13.8333 7.60533V7.33333C13.8333 7.28913 13.8509 7.24674 13.8821 7.21548C13.9134 7.18422 13.9558 7.16666 14 7.16666H15.3333C15.3775 7.16666 15.4199 7.1491 15.4512 7.11785C15.4824 7.08659 15.5 7.0442 15.5 7V6C15.5 5.95579 15.4824 5.9134 15.4512 5.88215C15.4199 5.85089 15.3775 5.83333 15.3333 5.83333H14C13.9558 5.83333 13.9134 5.81577 13.8821 5.78452C13.8509 5.75326 13.8333 5.71087 13.8333 5.66666V4.83333C13.8333 4.65652 13.7631 4.48695 13.6381 4.36193C13.513 4.2369 13.3435 4.16666 13.1667 4.16666C12.9899 4.16666 12.8203 4.2369 12.6953 4.36193C12.5702 4.48695 12.5 4.65652 12.5 4.83333V7.60533C12.5 7.78214 12.5702 7.95171 12.6953 8.07674C12.8203 8.20176 12.9899 8.272 13.1667 8.272Z" fill="#111111"/>
<path d="M9.49967 8.272C9.67649 8.272 9.84605 8.20176 9.97108 8.07674C10.0961 7.95171 10.1663 7.78214 10.1663 7.60533V7.33333C10.1663 7.28913 10.1839 7.24674 10.2152 7.21548C10.2464 7.18422 10.2888 7.16666 10.333 7.16666H11.6663C11.7105 7.16666 11.7529 7.1491 11.7842 7.11785C11.8154 7.08659 11.833 7.0442 11.833 7V6C11.833 5.95579 11.8154 5.9134 11.7842 5.88215C11.7529 5.85089 11.7105 5.83333 11.6663 5.83333H10.333C10.2888 5.83333 10.2464 5.81577 10.2152 5.78452C10.1839 5.75326 10.1663 5.71087 10.1663 5.66666V4.83333C10.1663 4.65652 10.0961 4.48695 9.97108 4.36193C9.84605 4.2369 9.67649 4.16666 9.49967 4.16666C9.32286 4.16666 9.15329 4.2369 9.02827 4.36193C8.90325 4.48695 8.83301 4.65652 8.83301 4.83333V7.60533C8.83301 7.78214 8.90325 7.95171 9.02827 8.07674C9.15329 8.20176 9.32286 8.272 9.49967 8.272Z" fill="#111111"/>
<path d="M9.52845 12.3047C9.65347 12.4296 9.82301 12.4998 9.99978 12.4998C10.1766 12.4998 10.3461 12.4296 10.4711 12.3047L12.4711 10.3047C12.5926 10.1789 12.6598 10.0105 12.6582 9.83572C12.6567 9.66093 12.5866 9.49372 12.463 9.37011C12.3394 9.24651 12.1722 9.17639 11.9974 9.17488C11.8226 9.17336 11.6542 9.24055 11.5284 9.36199L9.99978 10.8907L9.47112 10.362C9.34538 10.2406 9.17698 10.1734 9.00218 10.1749C8.82738 10.1764 8.66018 10.2465 8.53657 10.3701C8.41297 10.4937 8.34285 10.6609 8.34133 10.8357C8.33981 11.0105 8.40701 11.1789 8.52845 11.3047L9.52845 12.3047Z" fill="#111111"/>
<path d="M9.52845 15.9713C9.65347 16.0963 9.82301 16.1665 9.99978 16.1665C10.1766 16.1665 10.3461 16.0963 10.4711 15.9713L12.4711 13.9713C12.5926 13.8456 12.6598 13.6772 12.6582 13.5024C12.6567 13.3276 12.5866 13.1604 12.463 13.0368C12.3394 12.9132 12.1722 12.8431 11.9974 12.8415C11.8226 12.84 11.6542 12.9072 11.5284 13.0287L9.99978 14.5573L9.47112 14.0287C9.34538 13.9072 9.17698 13.84 9.00218 13.8415C8.82738 13.8431 8.66018 13.9132 8.53657 14.0368C8.41297 14.1604 8.34285 14.3276 8.34133 14.5024C8.33981 14.6772 8.40701 14.8456 8.52845 14.9713L9.52845 15.9713Z" fill="#111111"/>
<path d="M13.6665 11.1667C13.6665 11.3435 13.7367 11.513 13.8618 11.6381C13.9868 11.7631 14.1564 11.8333 14.3332 11.8333H16.9998C17.1766 11.8333 17.3462 11.7631 17.4712 11.6381C17.5963 11.513 17.6665 11.3435 17.6665 11.1667C17.6665 10.9899 17.5963 10.8203 17.4712 10.6953C17.3462 10.5702 17.1766 10.5 16.9998 10.5H14.3332C14.1564 10.5 13.9868 10.5702 13.8618 10.6953C13.7367 10.8203 13.6665 10.9899 13.6665 11.1667Z" fill="#111111"/>
</mask>
<g mask="url(#mask0)">
<rect opacity="0.6" width="24" height="24" fill="white"/>
</g>
</svg>
