<svg width="24" height="24" viewBox="0 0 24 24" fill="none" xmlns="http://www.w3.org/2000/svg">
<mask id="mask0" mask-type="alpha" maskUnits="userSpaceOnUse" x="4" y="4" width="17" height="16">
<path d="M18.4762 5.66667H17.8335C17.7893 5.66667 17.7469 5.64911 17.7156 5.61785C17.6844 5.58659 17.6668 5.5442 17.6668 5.5V4.66667C17.6668 4.48986 17.5966 4.32029 17.4716 4.19526C17.3465 4.07024 17.177 4 17.0002 4C16.8234 4 16.6538 4.07024 16.5288 4.19526C16.4037 4.32029 16.3335 4.48986 16.3335 4.66667V5.5C16.3335 5.5442 16.3159 5.58659 16.2847 5.61785C16.2534 5.64911 16.211 5.66667 16.1668 5.66667H15.5002C15.456 5.66667 15.4136 5.64911 15.3823 5.61785C15.3511 5.58659 15.3335 5.5442 15.3335 5.5V4.66667C15.3335 4.48986 15.2633 4.32029 15.1382 4.19526C15.0132 4.07024 14.8436 4 14.6668 4C14.49 4 14.3204 4.07024 14.1954 4.19526C14.0704 4.32029 14.0002 4.48986 14.0002 4.66667V5.5C14.0002 5.5442 13.9826 5.58659 13.9513 5.61785C13.9201 5.64911 13.8777 5.66667 13.8335 5.66667H13.1668C13.1226 5.66667 13.0802 5.64911 13.049 5.61785C13.0177 5.58659 13.0002 5.5442 13.0002 5.5V4.66667C13.0002 4.48986 12.9299 4.32029 12.8049 4.19526C12.6799 4.07024 12.5103 4 12.3335 4C12.1567 4 11.9871 4.07024 11.8621 4.19526C11.7371 4.32029 11.6668 4.48986 11.6668 4.66667V5.5C11.6668 5.5442 11.6493 5.58659 11.618 5.61785C11.5868 5.64911 11.5444 5.66667 11.5002 5.66667H10.8575C10.6573 5.66658 10.4591 5.70594 10.2742 5.7825C10.0892 5.85905 9.9212 5.97131 9.77967 6.11284C9.63814 6.25437 9.52588 6.42241 9.44933 6.60735C9.37277 6.79229 9.33341 6.99051 9.3335 7.19067V13.2C9.3338 13.2403 9.34901 13.2791 9.37622 13.3089C9.40342 13.3387 9.44068 13.3574 9.48083 13.3613C9.81368 13.4019 10.1348 13.5097 10.4248 13.678C10.4503 13.6916 10.4789 13.6982 10.5078 13.6972C10.5367 13.6963 10.5648 13.6877 10.5893 13.6725C10.6138 13.6572 10.6339 13.6357 10.6475 13.6103C10.6611 13.5848 10.6678 13.5562 10.6668 13.5273V7.19067C10.6668 7.1401 10.6869 7.0916 10.7227 7.05584C10.7584 7.02009 10.8069 7 10.8575 7H11.5002C11.5444 7 11.5868 7.01756 11.618 7.04882C11.6493 7.08007 11.6668 7.12246 11.6668 7.16667V7.33333C11.6668 7.51014 11.7371 7.67971 11.8621 7.80474C11.9871 7.92976 12.1567 8 12.3335 8C12.5103 8 12.6799 7.92976 12.8049 7.80474C12.9299 7.67971 13.0002 7.51014 13.0002 7.33333V7.16667C13.0002 7.12246 13.0177 7.08007 13.049 7.04882C13.0802 7.01756 13.1226 7 13.1668 7H13.8335C13.8777 7 13.9201 7.01756 13.9513 7.04882C13.9826 7.08007 14.0002 7.12246 14.0002 7.16667V7.33333C14.0002 7.51014 14.0704 7.67971 14.1954 7.80474C14.3204 7.92976 14.49 8 14.6668 8C14.8436 8 15.0132 7.92976 15.1382 7.80474C15.2633 7.67971 15.3335 7.51014 15.3335 7.33333V7.16667C15.3335 7.12246 15.3511 7.08007 15.3823 7.04882C15.4136 7.01756 15.456 7 15.5002 7H16.1668C16.211 7 16.2534 7.01756 16.2847 7.04882C16.3159 7.08007 16.3335 7.12246 16.3335 7.16667V7.33333C16.3335 7.51014 16.4037 7.67971 16.5288 7.80474C16.6538 7.92976 16.8234 8 17.0002 8C17.177 8 17.3465 7.92976 17.4716 7.80474C17.5966 7.67971 17.6668 7.51014 17.6668 7.33333V7.16667C17.6668 7.12246 17.6844 7.08007 17.7156 7.04882C17.7469 7.01756 17.7893 7 17.8335 7H18.4762C18.5012 7 18.526 7.00493 18.5491 7.01451C18.5723 7.0241 18.5933 7.03814 18.611 7.05584C18.6287 7.07355 18.6427 7.09457 18.6523 7.1177C18.6619 7.14083 18.6668 7.16563 18.6668 7.19067V15.8093C18.6668 15.8344 18.6619 15.8592 18.6523 15.8823C18.6427 15.9054 18.6287 15.9264 18.611 15.9442C18.5933 15.9619 18.5723 15.9759 18.5491 15.9855C18.526 15.9951 18.5012 16 18.4762 16H15.3802C15.3451 15.9999 15.311 16.0109 15.2826 16.0316C15.2543 16.0522 15.2333 16.0813 15.2227 16.1147C15.2121 16.1481 15.2124 16.184 15.2235 16.2172C15.2347 16.2504 15.2562 16.2792 15.2848 16.2993C15.6003 16.5185 15.8304 16.84 15.9362 17.2093C15.945 17.2445 15.9652 17.2757 15.9937 17.2981C16.0222 17.3206 16.0573 17.333 16.0935 17.3333H18.4762C18.6763 17.3334 18.8745 17.2941 19.0595 17.2175C19.2444 17.1409 19.4125 17.0287 19.554 16.8872C19.6955 16.7456 19.8078 16.5776 19.8843 16.3926C19.9609 16.2077 20.0002 16.0095 20.0002 15.8093V7.19067C20.0002 6.99051 19.9609 6.79229 19.8843 6.60735C19.8078 6.42241 19.6955 6.25437 19.554 6.11284C19.4125 5.97131 19.2444 5.85905 19.0595 5.7825C18.8745 5.70594 18.6763 5.66658 18.4762 5.66667Z" fill="#111111"/>
<path d="M14.3333 17H8.25C8.13949 17 8.03351 16.9561 7.95537 16.878C7.87723 16.7998 7.83333 16.6938 7.83333 16.5833C7.83333 16.4728 7.87723 16.3668 7.95537 16.2887C8.03351 16.2106 8.13949 16.1667 8.25 16.1667H9.93333C10.0436 16.1667 10.1522 16.1394 10.2493 16.0872C10.3465 16.0349 10.4292 15.9594 10.4899 15.8674C10.5507 15.7754 10.5877 15.6697 10.5976 15.5598C10.6075 15.45 10.59 15.3394 10.5467 15.238C10.432 14.9694 10.241 14.7405 9.9973 14.5797C9.7536 14.4188 9.46799 14.3332 9.176 14.3333H6.33333C6.24493 14.3333 6.16014 14.3685 6.09763 14.431C6.03512 14.4935 6 14.5783 6 14.6667V19C6 19.0884 6.03512 19.1732 6.09763 19.2357C6.16014 19.2982 6.24493 19.3333 6.33333 19.3333H13.5093C13.9046 19.333 14.2835 19.1758 14.563 18.8963C14.8425 18.6169 14.9996 18.2379 15 17.8427V17.6667C15 17.4899 14.9298 17.3203 14.8047 17.1953C14.6797 17.0702 14.5101 17 14.3333 17Z" fill="#111111"/>
<path d="M4.66667 13.8333C4.48986 13.8333 4.32029 13.9036 4.19526 14.0286C4.07024 14.1536 4 14.3232 4 14.5V19.3333C4 19.5101 4.07024 19.6797 4.19526 19.8047C4.32029 19.9298 4.48986 20 4.66667 20C4.84348 20 5.01305 19.9298 5.13807 19.8047C5.2631 19.6797 5.33333 19.5101 5.33333 19.3333V14.5C5.33333 14.3232 5.2631 14.1536 5.13807 14.0286C5.01305 13.9036 4.84348 13.8333 4.66667 13.8333Z" fill="#111111"/>
</mask>
<g mask="url(#mask0)">
<rect opacity="0.6" width="24" height="24" fill="white"/>
</g>
</svg>
