<svg width="24" height="24" viewBox="0 0 24 24" fill="none" xmlns="http://www.w3.org/2000/svg">
<mask id="mask0" mask-type="alpha" maskUnits="userSpaceOnUse" x="5" y="4" width="14" height="16">
<path d="M6.59071 8.00001H8.08107C8.11984 7.99999 8.15727 7.98515 8.18633 7.95827C8.21539 7.93138 8.23408 7.89431 8.23889 7.85401L8.48262 5.81267C8.48742 5.77237 8.50611 5.73529 8.53517 5.70841C8.56423 5.68152 8.60167 5.66668 8.64044 5.66667H15.3592C15.3979 5.66668 15.4354 5.68152 15.4644 5.70841C15.4935 5.73529 15.5122 5.77237 15.517 5.81267L15.7607 7.85401C15.7655 7.89431 15.7842 7.93138 15.8133 7.95827C15.8423 7.98515 15.8798 7.99999 15.9185 8.00001H17.4089C17.4561 8.00002 17.5027 7.98903 17.5453 7.96785C17.5879 7.94666 17.6255 7.91581 17.6554 7.87752C17.6852 7.83923 17.7066 7.79446 17.7179 7.74647C17.7292 7.69847 17.7301 7.64844 17.7207 7.60001L17.1874 4.84C17.1492 4.60757 17.0347 4.39644 16.8636 4.24306C16.6926 4.08969 16.4758 4.00372 16.2507 4H7.74889C7.52447 4.00342 7.30821 4.08871 7.13734 4.24118C6.96648 4.39365 6.85171 4.60376 6.8128 4.83533L6.27889 7.60001C6.26945 7.64844 6.27042 7.69847 6.28171 7.74647C6.29301 7.79446 6.31435 7.83923 6.3442 7.87752C6.37405 7.91581 6.41165 7.94666 6.45429 7.96785C6.49692 7.98903 6.54352 8.00002 6.59071 8.00001Z" fill="#111111"/>
<path d="M18.0455 8.66663H5.95455C5.70138 8.66663 5.45859 8.77198 5.27958 8.95952C5.10057 9.14706 5 9.40141 5 9.66663C5 9.93184 5.10057 10.1862 5.27958 10.3737C5.45859 10.5613 5.70138 10.6666 5.95455 10.6666H6.53364L7.303 19.1053C7.32591 19.3519 7.43616 19.5805 7.61204 19.7461C7.78791 19.9117 8.01662 20.0023 8.25309 20H15.703C15.9343 20.0002 16.1577 19.9125 16.3319 19.7531C16.5061 19.5936 16.6191 19.3734 16.6499 19.1333L17.6795 10.6666H18.0455C18.2986 10.6666 18.5414 10.5613 18.7204 10.3737C18.8994 10.1862 19 9.93184 19 9.66663C19 9.40141 18.8994 9.14706 18.7204 8.95952C18.5414 8.77198 18.2986 8.66663 18.0455 8.66663Z" fill="#111111"/>
</mask>
<g mask="url(#mask0)">
<rect width="24" height="24" fill="#161C2D" fill-opacity="0.68"/>
</g>
</svg>
