<?xml version="1.0" encoding="UTF-8" standalone="no"?>
<!DOCTYPE svg PUBLIC "-//W3C//DTD SVG 1.1//EN"
 "http://www.w3.org/Graphics/SVG/1.1/DTD/svg11.dtd">
<!-- Generated by graphviz version 2.40.1 (20161225.0304)
 -->
<!-- Title: dependencies Pages: 1 -->
<svg width="590pt" height="284pt"
 viewBox="0.00 0.00 590.00 284.00" xmlns="http://www.w3.org/2000/svg" xmlns:xlink="http://www.w3.org/1999/xlink">
<g id="graph0" class="graph" transform="scale(1 1) rotate(0) translate(4 280)">
<title>dependencies</title>
<polygon fill="#ffffff" stroke="transparent" points="-4,4 -4,-280 586,-280 586,4 -4,4"/>
<text text-anchor="start" x="270.0091" y="-42.4" font-family="sans-serif" font-weight="bold" font-size="14.00" fill="#000000">Legend</text>
<polygon fill="#ffffb3" stroke="transparent" points="57,-10 57,-30 77,-30 77,-10 57,-10"/>
<text text-anchor="start" x="80.629" y="-15.4" font-family="sans-serif" font-size="14.00" fill="#000000"> &#160;Declarations</text>
<polygon fill="#8dd3c7" stroke="transparent" points="170,-10 170,-30 190,-30 190,-10 170,-10"/>
<text text-anchor="start" x="193.7251" y="-15.4" font-family="sans-serif" font-size="14.00" fill="#000000"> &#160;Module</text>
<polygon fill="#80b1d3" stroke="transparent" points="256,-10 256,-30 276,-30 276,-10 256,-10"/>
<text text-anchor="start" x="279.7812" y="-15.4" font-family="sans-serif" font-size="14.00" fill="#000000"> &#160;Bootstrap</text>
<polygon fill="#fdb462" stroke="transparent" points="353,-10 353,-30 373,-30 373,-10 353,-10"/>
<text text-anchor="start" x="376.6732" y="-15.4" font-family="sans-serif" font-size="14.00" fill="#000000"> &#160;Providers</text>
<polygon fill="#fb8072" stroke="transparent" points="449,-10 449,-30 469,-30 469,-10 449,-10"/>
<text text-anchor="start" x="472.7258" y="-15.4" font-family="sans-serif" font-size="14.00" fill="#000000"> &#160;Exports</text>
<g id="clust1" class="cluster">
<title>cluster_ComponentsModule</title>
<polygon fill="none" stroke="#000000" stroke-dasharray="1,5" points="8,-70 8,-268 574,-268 574,-70 8,-70"/>
</g>
<g id="clust2" class="cluster">
<title>cluster_ComponentsModule_declarations</title>
<polygon fill="none" stroke="#000000" points="16,-78 16,-130 566,-130 566,-78 16,-78"/>
</g>
<g id="clust8" class="cluster">
<title>cluster_ComponentsModule_exports</title>
<polygon fill="none" stroke="#000000" points="77,-208 77,-260 505,-260 505,-208 77,-208"/>
</g>
<!-- EditorComponent -->
<g id="node1" class="node">
<title>EditorComponent</title>
<polygon fill="#ffffb3" stroke="#000000" points="558.3273,-122 441.6727,-122 441.6727,-86 558.3273,-86 558.3273,-122"/>
<text text-anchor="middle" x="500" y="-99.8" font-family="Times,serif" font-size="14.00" fill="#000000">EditorComponent</text>
</g>
<!-- ComponentsModule -->
<g id="node5" class="node">
<title>ComponentsModule</title>
<polygon fill="#8dd3c7" stroke="#000000" points="359.3272,-187 356.3272,-191 335.3272,-191 332.3272,-187 228.6728,-187 228.6728,-151 359.3272,-151 359.3272,-187"/>
<text text-anchor="middle" x="294" y="-164.8" font-family="Times,serif" font-size="14.00" fill="#000000">ComponentsModule</text>
</g>
<!-- EditorComponent&#45;&gt;ComponentsModule -->
<g id="edge1" class="edge">
<title>EditorComponent&#45;&gt;ComponentsModule</title>
<path fill="none" stroke="#000000" d="M469.2635,-122.0225C469.2635,-139.3734 469.2635,-163 469.2635,-163 469.2635,-163 369.2617,-163 369.2617,-163"/>
<polygon fill="#000000" stroke="#000000" points="369.2617,-159.5001 359.2617,-163 369.2616,-166.5001 369.2617,-159.5001"/>
</g>
<!-- FooterComponent -->
<g id="node2" class="node">
<title>FooterComponent</title>
<polygon fill="#ffffb3" stroke="#000000" points="423.8809,-122 306.1191,-122 306.1191,-86 423.8809,-86 423.8809,-122"/>
<text text-anchor="middle" x="365" y="-99.8" font-family="Times,serif" font-size="14.00" fill="#000000">FooterComponent</text>
</g>
<!-- FooterComponent&#45;&gt;ComponentsModule -->
<g id="edge2" class="edge">
<title>FooterComponent&#45;&gt;ComponentsModule</title>
<path fill="none" stroke="#000000" d="M332.6115,-122.1061C332.6115,-122.1061 332.6115,-140.991 332.6115,-140.991"/>
<polygon fill="#000000" stroke="#000000" points="329.1116,-140.9909 332.6115,-150.991 336.1116,-140.991 329.1116,-140.9909"/>
</g>
<!-- NavbarComponent -->
<g id="node3" class="node">
<title>NavbarComponent</title>
<polygon fill="#ffffb3" stroke="#000000" points="288.0297,-122 165.9703,-122 165.9703,-86 288.0297,-86 288.0297,-122"/>
<text text-anchor="middle" x="227" y="-99.8" font-family="Times,serif" font-size="14.00" fill="#000000">NavbarComponent</text>
</g>
<!-- NavbarComponent&#45;&gt;ComponentsModule -->
<g id="edge3" class="edge">
<title>NavbarComponent&#45;&gt;ComponentsModule</title>
<path fill="none" stroke="#000000" d="M258.5505,-122.1061C258.5505,-122.1061 258.5505,-140.991 258.5505,-140.991"/>
<polygon fill="#000000" stroke="#000000" points="255.0506,-140.9909 258.5505,-150.991 262.0506,-140.991 255.0506,-140.9909"/>
</g>
<!-- SidebarComponent -->
<g id="node4" class="node">
<title>SidebarComponent</title>
<polygon fill="#ffffb3" stroke="#000000" points="148.0954,-122 23.9046,-122 23.9046,-86 148.0954,-86 148.0954,-122"/>
<text text-anchor="middle" x="86" y="-99.8" font-family="Times,serif" font-size="14.00" fill="#000000">SidebarComponent</text>
</g>
<!-- SidebarComponent&#45;&gt;ComponentsModule -->
<g id="edge4" class="edge">
<title>SidebarComponent&#45;&gt;ComponentsModule</title>
<path fill="none" stroke="#000000" d="M116.625,-122.0225C116.625,-139.3734 116.625,-163 116.625,-163 116.625,-163 218.7078,-163 218.7078,-163"/>
<polygon fill="#000000" stroke="#000000" points="218.7078,-166.5001 228.7078,-163 218.7077,-159.5001 218.7078,-166.5001"/>
</g>
<!-- FooterComponent  -->
<g id="node6" class="node">
<title>FooterComponent </title>
<polygon fill="#fb8072" stroke="#000000" points="496.8814,-252 375.1186,-252 375.1186,-216 496.8814,-216 496.8814,-252"/>
<text text-anchor="middle" x="436" y="-229.8" font-family="Times,serif" font-size="14.00" fill="#000000">FooterComponent </text>
</g>
<!-- ComponentsModule&#45;&gt;FooterComponent  -->
<g id="edge5" class="edge">
<title>ComponentsModule&#45;&gt;FooterComponent </title>
<path fill="none" stroke="#000000" stroke-dasharray="5,2" d="M359.3914,-175C380.9997,-175 399.625,-175 399.625,-175 399.625,-175 399.625,-205.9775 399.625,-205.9775"/>
<polygon fill="#000000" stroke="#000000" points="396.1251,-205.9774 399.625,-215.9775 403.1251,-205.9775 396.1251,-205.9774"/>
</g>
<!-- NavbarComponent  -->
<g id="node7" class="node">
<title>NavbarComponent </title>
<polygon fill="#fb8072" stroke="#000000" points="357.0288,-252 230.9712,-252 230.9712,-216 357.0288,-216 357.0288,-252"/>
<text text-anchor="middle" x="294" y="-229.8" font-family="Times,serif" font-size="14.00" fill="#000000">NavbarComponent </text>
</g>
<!-- ComponentsModule&#45;&gt;NavbarComponent  -->
<g id="edge6" class="edge">
<title>ComponentsModule&#45;&gt;NavbarComponent </title>
<path fill="none" stroke="#000000" stroke-dasharray="5,2" d="M294,-187.1061C294,-187.1061 294,-205.991 294,-205.991"/>
<polygon fill="#000000" stroke="#000000" points="290.5001,-205.9909 294,-215.991 297.5001,-205.991 290.5001,-205.9909"/>
</g>
<!-- SidebarComponent  -->
<g id="node8" class="node">
<title>SidebarComponent </title>
<polygon fill="#fb8072" stroke="#000000" points="212.596,-252 85.404,-252 85.404,-216 212.596,-216 212.596,-252"/>
<text text-anchor="middle" x="149" y="-229.8" font-family="Times,serif" font-size="14.00" fill="#000000">SidebarComponent </text>
</g>
<!-- ComponentsModule&#45;&gt;SidebarComponent  -->
<g id="edge7" class="edge">
<title>ComponentsModule&#45;&gt;SidebarComponent </title>
<path fill="none" stroke="#000000" stroke-dasharray="5,2" d="M228.5635,-175C207.3927,-175 189.2667,-175 189.2667,-175 189.2667,-175 189.2667,-205.9775 189.2667,-205.9775"/>
<polygon fill="#000000" stroke="#000000" points="185.7667,-205.9774 189.2667,-215.9775 192.7667,-205.9775 185.7667,-205.9774"/>
</g>
</g>
</svg>
